<?xml version="1.0" standalone="no"?>
<!DOCTYPE svg PUBLIC "-//W3C//DTD SVG 20010904//EN"
 "http://www.w3.org/TR/2001/REC-SVG-20010904/DTD/svg10.dtd">
<svg version="1.0" xmlns="http://www.w3.org/2000/svg"
 width="409.000000pt" height="409.000000pt" viewBox="0 0 409.000000 409.000000"
 preserveAspectRatio="xMidYMid meet">
<metadata>
Created by potrace 1.14, written by Peter Selinger 2001-2017
</metadata>
<g transform="translate(0.000000,409.000000) scale(0.100000,-0.100000)"
fill="#000000" stroke="none">
<path d="M1875 3629 c-22 -4 -58 -10 -79 -13 -58 -9 -206 -61 -278 -97 -104
-52 -219 -133 -298 -211 -103 -101 -139 -146 -209 -262 -63 -108 -133 -295
-146 -396 -4 -30 -9 -64 -11 -75 -2 -11 -5 -492 -5 -1069 -1 -860 1 -1050 12
-1056 7 -5 16 -7 19 -5 3 1 38 6 79 9 278 25 531 146 736 351 184 185 305 426
341 685 4 30 8 527 8 1103 l1 1048 -65 -2 c-36 -2 -83 -6 -105 -10z"/>
<path d="M3157 1644 c-1 -1 -30 -5 -65 -8 -106 -11 -252 -55 -367 -110 -237
-114 -426 -297 -543 -526 -81 -157 -126 -318 -135 -484 l-4 -68 93 6 c275 18
541 138 739 333 99 96 114 115 179 217 107 166 169 350 182 536 3 41 7 81 9
88 3 6 1 12 -3 13 -17 3 -83 5 -85 3z"/>
</g>
</svg>
