<svg xmlns="http://www.w3.org/2000/svg" fill="none" viewBox="0 0 1630 1108"><path fill="#141414" d="M0 0h1630v1108H0z"/><path fill="#262626" d="M43.988.733H114V70.93c0 24.294-19.694 43.988-43.987 43.988H0V44.721C0 20.427 19.694.733 43.988.733ZM177.967 115.467c29.557 0 53.518-23.96 53.518-53.518-29.558 0-53.518 23.961-53.518 53.518ZM124.448 115.467c29.558 0 53.519-23.96 53.519-53.518-29.558 0-53.519 23.961-53.519 53.518ZM296 0c-30.367 0-54.985 19.386-54.985 43.3v72.167c30.367 0 54.985-19.386 54.985-43.3V0ZM235.884 54.984C235.884 24.617 216.497 0 192.583 0h-72.167c0 30.367 19.386 54.984 43.3 54.984h72.168ZM369.988.733h70.013V70.93c0 24.294-19.694 43.988-43.987 43.988H326V44.721C326 20.427 345.694.733 369.988.733ZM503.967 115.467c29.557 0 53.518-23.96 53.518-53.518-29.558 0-53.518 23.961-53.518 53.518ZM450.448 115.467c29.558 0 53.519-23.96 53.519-53.518-29.558 0-53.519 23.961-53.519 53.518ZM622 0c-30.367 0-54.985 19.386-54.985 43.3v72.167c30.367 0 54.985-19.386 54.985-43.3V0ZM561.884 54.984C561.884 24.617 542.497 0 518.583 0h-72.167c0 30.367 19.386 54.984 43.3 54.984h72.168ZM695.988.733h70.013V70.93c0 24.294-19.694 43.988-43.987 43.988H652V44.721C652 20.427 671.694.733 695.988.733ZM829.967 115.467c29.557 0 53.518-23.96 53.518-53.518-29.558 0-53.518 23.961-53.518 53.518ZM776.448 115.467c29.558 0 53.519-23.96 53.519-53.518-29.558 0-53.519 23.961-53.519 53.518ZM948 0c-30.367 0-54.985 19.386-54.985 43.3v72.167c30.367 0 54.985-19.386 54.985-43.3V0ZM887.884 54.984C887.884 24.617 868.497 0 844.583 0h-72.167c0 30.367 19.386 54.984 43.3 54.984h72.168ZM1021.99.733H1092V70.93c0 24.294-19.69 43.988-43.99 43.988H978V44.721C978 20.427 997.694.733 1021.99.733ZM1155.97 115.467c29.55 0 53.52-23.96 53.52-53.518-29.56 0-53.52 23.961-53.52 53.518ZM1102.45 115.467c29.56 0 53.52-23.96 53.52-53.518-29.56 0-53.52 23.961-53.52 53.518ZM1274 0c-30.37 0-54.98 19.386-54.98 43.3v72.167c30.36 0 54.98-19.386 54.98-43.3V0ZM1213.88 54.984c0-30.367-19.38-54.984-43.3-54.984h-72.16c0 30.367 19.38 54.984 43.3 54.984h72.16ZM1347.99.733H1418V70.93c0 24.294-19.69 43.988-43.99 43.988H1304V44.721c0-24.294 19.69-43.988 43.99-43.988ZM1481.97 115.467c29.55 0 53.52-23.96 53.52-53.518-29.56 0-53.52 23.961-53.52 53.518ZM1428.45 115.467c29.56 0 53.52-23.96 53.52-53.518-29.56 0-53.52 23.961-53.52 53.518ZM1600 0c-30.37 0-54.98 19.386-54.98 43.3v72.167c30.36 0 54.98-19.386 54.98-43.3V0ZM1539.88 54.984c0-30.367-19.38-54.984-43.3-54.984h-72.16c0 30.367 19.38 54.984 43.3 54.984h72.16ZM43.988 139.201H114v70.197c0 24.293-19.694 43.987-43.987 43.987H0v-70.197c0-24.293 19.694-43.987 43.988-43.987ZM177.967 253.935c29.557 0 53.518-23.961 53.518-53.518-29.558 0-53.518 23.961-53.518 53.518ZM124.448 253.935c29.558 0 53.519-23.961 53.519-53.518-29.558 0-53.519 23.961-53.519 53.518ZM296 138.468c-30.367 0-54.985 19.386-54.985 43.3v72.167c30.367 0 54.985-19.386 54.985-43.3v-72.167ZM235.884 193.452c0-30.367-19.387-54.984-43.301-54.984h-72.167c0 30.367 19.386 54.984 43.3 54.984h72.168ZM369.988 139.201h70.013v70.197c0 24.293-19.694 43.987-43.987 43.987H326v-70.197c0-24.293 19.694-43.987 43.988-43.987ZM503.967 253.935c29.557 0 53.518-23.961 53.518-53.518-29.558 0-53.518 23.961-53.518 53.518ZM450.448 253.935c29.558 0 53.519-23.961 53.519-53.518-29.558 0-53.519 23.961-53.519 53.518ZM622 138.468c-30.367 0-54.985 19.386-54.985 43.3v72.167c30.367 0 54.985-19.386 54.985-43.3v-72.167ZM561.884 193.452c0-30.367-19.387-54.984-43.301-54.984h-72.167c0 30.367 19.386 54.984 43.3 54.984h72.168ZM695.988 139.201h70.013v70.197c0 24.293-19.694 43.987-43.987 43.987H652v-70.197c0-24.293 19.694-43.987 43.988-43.987ZM829.967 253.935c29.557 0 53.518-23.961 53.518-53.518-29.558 0-53.518 23.961-53.518 53.518ZM776.448 253.935c29.558 0 53.519-23.961 53.519-53.518-29.558 0-53.519 23.961-53.519 53.518ZM948 138.468c-30.367 0-54.985 19.386-54.985 43.3v72.167c30.367 0 54.985-19.386 54.985-43.3v-72.167ZM887.884 193.452c0-30.367-19.387-54.984-43.301-54.984h-72.167c0 30.367 19.386 54.984 43.3 54.984h72.168ZM1021.99 139.201H1092v70.197c0 24.293-19.69 43.987-43.99 43.987H978v-70.197c0-24.293 19.694-43.987 43.99-43.987ZM1155.97 253.935c29.55 0 53.52-23.961 53.52-53.518-29.56 0-53.52 23.961-53.52 53.518ZM1102.45 253.935c29.56 0 53.52-23.961 53.52-53.518-29.56 0-53.52 23.961-53.52 53.518ZM1274 138.468c-30.37 0-54.98 19.386-54.98 43.3v72.167c30.36 0 54.98-19.386 54.98-43.3v-72.167ZM1213.88 193.452c0-30.367-19.38-54.984-43.3-54.984h-72.16c0 30.367 19.38 54.984 43.3 54.984h72.16ZM1347.99 139.201H1418v70.197c0 24.293-19.69 43.987-43.99 43.987H1304v-70.197c0-24.293 19.69-43.987 43.99-43.987ZM1481.97 253.935c29.55 0 53.52-23.961 53.52-53.518-29.56 0-53.52 23.961-53.52 53.518ZM1428.45 253.935c29.56 0 53.52-23.961 53.52-53.518-29.56 0-53.52 23.961-53.52 53.518ZM1600 138.468c-30.37 0-54.98 19.386-54.98 43.3v72.167c30.36 0 54.98-19.386 54.98-43.3v-72.167ZM1539.88 193.452c0-30.367-19.38-54.984-43.3-54.984h-72.16c0 30.367 19.38 54.984 43.3 54.984h72.16ZM43.988 277.668H114v70.197c0 24.294-19.694 43.988-43.987 43.988H0v-70.197c0-24.294 19.694-43.988 43.988-43.988ZM177.967 392.403c29.557 0 53.518-23.961 53.518-53.519-29.558 0-53.518 23.961-53.518 53.519ZM124.448 392.403c29.558 0 53.519-23.961 53.519-53.519-29.558 0-53.519 23.961-53.519 53.519ZM296 276.935c-30.367 0-54.985 19.386-54.985 43.3v72.168c30.367 0 54.985-19.387 54.985-43.301v-72.167ZM235.884 331.92c0-30.368-19.387-54.985-43.301-54.985h-72.167c0 30.367 19.386 54.985 43.3 54.985h72.168ZM369.988 277.668h70.013v70.197c0 24.294-19.694 43.988-43.987 43.988H326v-70.197c0-24.294 19.694-43.988 43.988-43.988ZM503.967 392.403c29.557 0 53.518-23.961 53.518-53.519-29.558 0-53.518 23.961-53.518 53.519ZM450.448 392.403c29.558 0 53.519-23.961 53.519-53.519-29.558 0-53.519 23.961-53.519 53.519ZM622 276.935c-30.367 0-54.985 19.386-54.985 43.3v72.168c30.367 0 54.985-19.387 54.985-43.301v-72.167ZM561.884 331.92c0-30.368-19.387-54.985-43.301-54.985h-72.167c0 30.367 19.386 54.985 43.3 54.985h72.168ZM695.988 277.668h70.013v70.197c0 24.294-19.694 43.988-43.987 43.988H652v-70.197c0-24.294 19.694-43.988 43.988-43.988ZM829.967 392.403c29.557 0 53.518-23.961 53.518-53.519-29.558 0-53.518 23.961-53.518 53.519ZM776.448 392.403c29.558 0 53.519-23.961 53.519-53.519-29.558 0-53.519 23.961-53.519 53.519ZM948 276.935c-30.367 0-54.985 19.386-54.985 43.3v72.168c30.367 0 54.985-19.387 54.985-43.301v-72.167ZM887.884 331.92c0-30.368-19.387-54.985-43.301-54.985h-72.167c0 30.367 19.386 54.985 43.3 54.985h72.168ZM1021.99 277.668H1092v70.197c0 24.294-19.69 43.988-43.99 43.988H978v-70.197c0-24.294 19.694-43.988 43.99-43.988ZM1155.97 392.403c29.55 0 53.52-23.961 53.52-53.519-29.56 0-53.52 23.961-53.52 53.519ZM1102.45 392.403c29.56 0 53.52-23.961 53.52-53.519-29.56 0-53.52 23.961-53.52 53.519ZM1274 276.935c-30.37 0-54.98 19.386-54.98 43.3v72.168c30.36 0 54.98-19.387 54.98-43.301v-72.167ZM1213.88 331.92c0-30.368-19.38-54.985-43.3-54.985h-72.16c0 30.367 19.38 54.985 43.3 54.985h72.16ZM1347.99 277.668H1418v70.197c0 24.294-19.69 43.988-43.99 43.988H1304v-70.197c0-24.294 19.69-43.988 43.99-43.988ZM1481.97 392.403c29.55 0 53.52-23.961 53.52-53.519-29.56 0-53.52 23.961-53.52 53.519ZM1428.45 392.403c29.56 0 53.52-23.961 53.52-53.519-29.56 0-53.52 23.961-53.52 53.519ZM1600 276.935c-30.37 0-54.98 19.386-54.98 43.3v72.168c30.36 0 54.98-19.387 54.98-43.301v-72.167ZM1539.88 331.92c0-30.368-19.38-54.985-43.3-54.985h-72.16c0 30.367 19.38 54.985 43.3 54.985h72.16ZM43.988 416.136H114v70.197c0 24.293-19.694 43.987-43.987 43.987H0v-70.197c0-24.293 19.694-43.987 43.988-43.987ZM177.967 530.87c29.557 0 53.518-23.961 53.518-53.518-29.558 0-53.518 23.961-53.518 53.518ZM124.448 530.87c29.558 0 53.519-23.961 53.519-53.518-29.558 0-53.519 23.961-53.519 53.518ZM296 415.403c-30.367 0-54.985 19.386-54.985 43.3v72.167c30.367 0 54.985-19.386 54.985-43.3v-72.167ZM235.884 470.387c0-30.367-19.387-54.984-43.301-54.984h-72.167c0 30.367 19.386 54.984 43.3 54.984h72.168ZM369.988 416.136h70.013v70.197c0 24.293-19.694 43.987-43.987 43.987H326v-70.197c0-24.293 19.694-43.987 43.988-43.987ZM503.967 530.87c29.557 0 53.518-23.961 53.518-53.518-29.558 0-53.518 23.961-53.518 53.518ZM450.448 530.87c29.558 0 53.519-23.961 53.519-53.518-29.558 0-53.519 23.961-53.519 53.518ZM622 415.403c-30.367 0-54.985 19.386-54.985 43.3v72.167c30.367 0 54.985-19.386 54.985-43.3v-72.167ZM561.884 470.387c0-30.367-19.387-54.984-43.301-54.984h-72.167c0 30.367 19.386 54.984 43.3 54.984h72.168ZM695.988 416.136h70.013v70.197c0 24.293-19.694 43.987-43.987 43.987H652v-70.197c0-24.293 19.694-43.987 43.988-43.987ZM829.967 530.87c29.557 0 53.518-23.961 53.518-53.518-29.558 0-53.518 23.961-53.518 53.518ZM776.448 530.87c29.558 0 53.519-23.961 53.519-53.518-29.558 0-53.519 23.961-53.519 53.518ZM948 415.403c-30.367 0-54.985 19.386-54.985 43.3v72.167c30.367 0 54.985-19.386 54.985-43.3v-72.167ZM887.884 470.387c0-30.367-19.387-54.984-43.301-54.984h-72.167c0 30.367 19.386 54.984 43.3 54.984h72.168ZM1021.99 416.136H1092v70.197c0 24.293-19.69 43.987-43.99 43.987H978v-70.197c0-24.293 19.694-43.987 43.99-43.987ZM1155.97 530.87c29.55 0 53.52-23.961 53.52-53.518-29.56 0-53.52 23.961-53.52 53.518ZM1102.45 530.87c29.56 0 53.52-23.961 53.52-53.518-29.56 0-53.52 23.961-53.52 53.518ZM1274 415.403c-30.37 0-54.98 19.386-54.98 43.3v72.167c30.36 0 54.98-19.386 54.98-43.3v-72.167ZM1213.88 470.387c0-30.367-19.38-54.984-43.3-54.984h-72.16c0 30.367 19.38 54.984 43.3 54.984h72.16ZM1347.99 416.136H1418v70.197c0 24.293-19.69 43.987-43.99 43.987H1304v-70.197c0-24.293 19.69-43.987 43.99-43.987ZM1481.97 530.87c29.55 0 53.52-23.961 53.52-53.518-29.56 0-53.52 23.961-53.52 53.518ZM1428.45 530.87c29.56 0 53.52-23.961 53.52-53.518-29.56 0-53.52 23.961-53.52 53.518ZM1600 415.403c-30.37 0-54.98 19.386-54.98 43.3v72.167c30.36 0 54.98-19.386 54.98-43.3v-72.167ZM1539.88 470.387c0-30.367-19.38-54.984-43.3-54.984h-72.16c0 30.367 19.38 54.984 43.3 54.984h72.16ZM43.988 554.603H114V624.8c0 24.294-19.694 43.988-43.987 43.988H0v-70.197c0-24.294 19.694-43.988 43.988-43.988ZM177.967 669.338c29.557 0 53.518-23.961 53.518-53.519-29.558 0-53.518 23.961-53.518 53.519ZM124.448 669.338c29.558 0 53.519-23.961 53.519-53.519-29.558 0-53.519 23.961-53.519 53.519ZM296 553.87c-30.367 0-54.985 19.386-54.985 43.3v72.168c30.367 0 54.985-19.387 54.985-43.301V553.87ZM235.884 608.855c0-30.367-19.387-54.985-43.301-54.985h-72.167c0 30.367 19.386 54.985 43.3 54.985h72.168ZM369.988 554.603h70.013V624.8c0 24.294-19.694 43.988-43.987 43.988H326v-70.197c0-24.294 19.694-43.988 43.988-43.988ZM503.967 669.338c29.557 0 53.518-23.961 53.518-53.519-29.558 0-53.518 23.961-53.518 53.519ZM450.448 669.338c29.558 0 53.519-23.961 53.519-53.519-29.558 0-53.519 23.961-53.519 53.519ZM622 553.87c-30.367 0-54.985 19.386-54.985 43.3v72.168c30.367 0 54.985-19.387 54.985-43.301V553.87ZM561.884 608.855c0-30.367-19.387-54.985-43.301-54.985h-72.167c0 30.367 19.386 54.985 43.3 54.985h72.168ZM695.988 554.603h70.013V624.8c0 24.294-19.694 43.988-43.987 43.988H652v-70.197c0-24.294 19.694-43.988 43.988-43.988ZM829.967 669.338c29.557 0 53.518-23.961 53.518-53.519-29.558 0-53.518 23.961-53.518 53.519ZM776.448 669.338c29.558 0 53.519-23.961 53.519-53.519-29.558 0-53.519 23.961-53.519 53.519ZM948 553.87c-30.367 0-54.985 19.386-54.985 43.3v72.168c30.367 0 54.985-19.387 54.985-43.301V553.87ZM887.884 608.855c0-30.367-19.387-54.985-43.301-54.985h-72.167c0 30.367 19.386 54.985 43.3 54.985h72.168ZM1021.99 554.603H1092V624.8c0 24.294-19.69 43.988-43.99 43.988H978v-70.197c0-24.294 19.694-43.988 43.99-43.988ZM1155.97 669.338c29.55 0 53.52-23.961 53.52-53.519-29.56 0-53.52 23.961-53.52 53.519ZM1102.45 669.338c29.56 0 53.52-23.961 53.52-53.519-29.56 0-53.52 23.961-53.52 53.519ZM1274 553.87c-30.37 0-54.98 19.386-54.98 43.3v72.168c30.36 0 54.98-19.387 54.98-43.301V553.87ZM1213.88 608.855c0-30.367-19.38-54.985-43.3-54.985h-72.16c0 30.367 19.38 54.985 43.3 54.985h72.16ZM1347.99 554.603H1418V624.8c0 24.294-19.69 43.988-43.99 43.988H1304v-70.197c0-24.294 19.69-43.988 43.99-43.988ZM1481.97 669.338c29.55 0 53.52-23.961 53.52-53.519-29.56 0-53.52 23.961-53.52 53.519ZM1428.45 669.338c29.56 0 53.52-23.961 53.52-53.519-29.56 0-53.52 23.961-53.52 53.519ZM1600 553.87c-30.37 0-54.98 19.386-54.98 43.3v72.168c30.36 0 54.98-19.387 54.98-43.301V553.87ZM1539.88 608.855c0-30.367-19.38-54.985-43.3-54.985h-72.16c0 30.367 19.38 54.985 43.3 54.985h72.16ZM43.988 693.071H114v70.196c0 24.294-19.694 43.988-43.987 43.988H0v-70.197c0-24.294 19.694-43.987 43.988-43.987ZM177.967 807.805c29.557 0 53.518-23.961 53.518-53.518-29.558 0-53.518 23.961-53.518 53.518ZM124.448 807.805c29.558 0 53.519-23.961 53.519-53.518-29.558 0-53.519 23.961-53.519 53.518ZM296 692.337c-30.367 0-54.985 19.387-54.985 43.301v72.167c30.367 0 54.985-19.386 54.985-43.3v-72.168ZM235.884 747.322c0-30.367-19.387-54.985-43.301-54.985h-72.167c0 30.368 19.386 54.985 43.3 54.985h72.168ZM369.988 693.071h70.013v70.196c0 24.294-19.694 43.988-43.987 43.988H326v-70.197c0-24.294 19.694-43.987 43.988-43.987ZM503.967 807.805c29.557 0 53.518-23.961 53.518-53.518-29.558 0-53.518 23.961-53.518 53.518ZM450.448 807.805c29.558 0 53.519-23.961 53.519-53.518-29.558 0-53.519 23.961-53.519 53.518ZM622 692.337c-30.367 0-54.985 19.387-54.985 43.301v72.167c30.367 0 54.985-19.386 54.985-43.3v-72.168ZM561.884 747.322c0-30.367-19.387-54.985-43.301-54.985h-72.167c0 30.368 19.386 54.985 43.3 54.985h72.168ZM695.988 693.071h70.013v70.196c0 24.294-19.694 43.988-43.987 43.988H652v-70.197c0-24.294 19.694-43.987 43.988-43.987ZM829.967 807.805c29.557 0 53.518-23.961 53.518-53.518-29.558 0-53.518 23.961-53.518 53.518ZM776.448 807.805c29.558 0 53.519-23.961 53.519-53.518-29.558 0-53.519 23.961-53.519 53.518ZM948 692.337c-30.367 0-54.985 19.387-54.985 43.301v72.167c30.367 0 54.985-19.386 54.985-43.3v-72.168ZM887.884 747.322c0-30.367-19.387-54.985-43.301-54.985h-72.167c0 30.368 19.386 54.985 43.3 54.985h72.168ZM1021.99 693.071H1092v70.196c0 24.294-19.69 43.988-43.99 43.988H978v-70.197c0-24.294 19.694-43.987 43.99-43.987ZM1155.97 807.805c29.55 0 53.52-23.961 53.52-53.518-29.56 0-53.52 23.961-53.52 53.518ZM1102.45 807.805c29.56 0 53.52-23.961 53.52-53.518-29.56 0-53.52 23.961-53.52 53.518ZM1274 692.337c-30.37 0-54.98 19.387-54.98 43.301v72.167c30.36 0 54.98-19.386 54.98-43.3v-72.168ZM1213.88 747.322c0-30.367-19.38-54.985-43.3-54.985h-72.16c0 30.368 19.38 54.985 43.3 54.985h72.16ZM1347.99 693.071H1418v70.196c0 24.294-19.69 43.988-43.99 43.988H1304v-70.197c0-24.294 19.69-43.987 43.99-43.987ZM1481.97 807.805c29.55 0 53.52-23.961 53.52-53.518-29.56 0-53.52 23.961-53.52 53.518ZM1428.45 807.805c29.56 0 53.52-23.961 53.52-53.518-29.56 0-53.52 23.961-53.52 53.518ZM1600 692.337c-30.37 0-54.98 19.387-54.98 43.301v72.167c30.36 0 54.98-19.386 54.98-43.3v-72.168ZM1539.88 747.322c0-30.367-19.38-54.985-43.3-54.985h-72.16c0 30.368 19.38 54.985 43.3 54.985h72.16ZM43.988 831.538H114v70.197c0 24.294-19.694 43.988-43.987 43.988H0v-70.197c0-24.294 19.694-43.988 43.988-43.988ZM177.967 946.273c29.557 0 53.518-23.961 53.518-53.519-29.558 0-53.518 23.961-53.518 53.519ZM124.448 946.273c29.558 0 53.519-23.961 53.519-53.519-29.558 0-53.519 23.961-53.519 53.519ZM296 830.805c-30.367 0-54.985 19.386-54.985 43.3v72.168c30.367 0 54.985-19.386 54.985-43.3v-72.168ZM235.884 885.79c0-30.367-19.387-54.985-43.301-54.985h-72.167c0 30.367 19.386 54.985 43.3 54.985h72.168ZM369.988 831.538h70.013v70.197c0 24.294-19.694 43.988-43.987 43.988H326v-70.197c0-24.294 19.694-43.988 43.988-43.988ZM503.967 946.273c29.557 0 53.518-23.961 53.518-53.519-29.558 0-53.518 23.961-53.518 53.519ZM450.448 946.273c29.558 0 53.519-23.961 53.519-53.519-29.558 0-53.519 23.961-53.519 53.519ZM622 830.805c-30.367 0-54.985 19.386-54.985 43.3v72.168c30.367 0 54.985-19.386 54.985-43.3v-72.168ZM561.884 885.79c0-30.367-19.387-54.985-43.301-54.985h-72.167c0 30.367 19.386 54.985 43.3 54.985h72.168ZM695.988 831.538h70.013v70.197c0 24.294-19.694 43.988-43.987 43.988H652v-70.197c0-24.294 19.694-43.988 43.988-43.988ZM829.967 946.273c29.557 0 53.518-23.961 53.518-53.519-29.558 0-53.518 23.961-53.518 53.519ZM776.448 946.273c29.558 0 53.519-23.961 53.519-53.519-29.558 0-53.519 23.961-53.519 53.519ZM948 830.805c-30.367 0-54.985 19.386-54.985 43.3v72.168c30.367 0 54.985-19.386 54.985-43.3v-72.168ZM887.884 885.79c0-30.367-19.387-54.985-43.301-54.985h-72.167c0 30.367 19.386 54.985 43.3 54.985h72.168ZM1021.99 831.538H1092v70.197c0 24.294-19.69 43.988-43.99 43.988H978v-70.197c0-24.294 19.694-43.988 43.99-43.988ZM1155.97 946.273c29.55 0 53.52-23.961 53.52-53.519-29.56 0-53.52 23.961-53.52 53.519ZM1102.45 946.273c29.56 0 53.52-23.961 53.52-53.519-29.56 0-53.52 23.961-53.52 53.519ZM1274 830.805c-30.37 0-54.98 19.386-54.98 43.3v72.168c30.36 0 54.98-19.386 54.98-43.3v-72.168ZM1213.88 885.79c0-30.367-19.38-54.985-43.3-54.985h-72.16c0 30.367 19.38 54.985 43.3 54.985h72.16ZM1347.99 831.538H1418v70.197c0 24.294-19.69 43.988-43.99 43.988H1304v-70.197c0-24.294 19.69-43.988 43.99-43.988ZM1481.97 946.273c29.55 0 53.52-23.961 53.52-53.519-29.56 0-53.52 23.961-53.52 53.519ZM1428.45 946.273c29.56 0 53.52-23.961 53.52-53.519-29.56 0-53.52 23.961-53.52 53.519ZM1600 830.805c-30.37 0-54.98 19.386-54.98 43.3v72.168c30.36 0 54.98-19.386 54.98-43.3v-72.168ZM1539.88 885.79c0-30.367-19.38-54.985-43.3-54.985h-72.16c0 30.367 19.38 54.985 43.3 54.985h72.16ZM43.988 970.006H114v70.194c0 24.3-19.694 43.99-43.987 43.99H0v-70.2c0-24.29 19.694-43.984 43.988-43.984ZM177.967 1084.74c29.557 0 53.518-23.96 53.518-53.52-29.558 0-53.518 23.96-53.518 53.52ZM124.448 1084.74c29.558 0 53.519-23.96 53.519-53.52-29.558 0-53.519 23.96-53.519 53.52ZM296 969.272c-30.367 0-54.985 19.387-54.985 43.298v72.17c30.367 0 54.985-19.39 54.985-43.3v-72.168ZM235.884 1024.26c0-30.37-19.387-54.988-43.301-54.988h-72.167c0 30.368 19.386 54.988 43.3 54.988h72.168ZM369.988 970.006h70.013v70.194c0 24.3-19.694 43.99-43.987 43.99H326v-70.2c0-24.29 19.694-43.984 43.988-43.984ZM503.967 1084.74c29.557 0 53.518-23.96 53.518-53.52-29.558 0-53.518 23.96-53.518 53.52ZM450.448 1084.74c29.558 0 53.519-23.96 53.519-53.52-29.558 0-53.519 23.96-53.519 53.52ZM622 969.272c-30.367 0-54.985 19.387-54.985 43.298v72.17c30.367 0 54.985-19.39 54.985-43.3v-72.168ZM561.884 1024.26c0-30.37-19.387-54.988-43.301-54.988h-72.167c0 30.368 19.386 54.988 43.3 54.988h72.168ZM695.988 970.006h70.013v70.194c0 24.3-19.694 43.99-43.987 43.99H652v-70.2c0-24.29 19.694-43.984 43.988-43.984ZM829.967 1084.74c29.557 0 53.518-23.96 53.518-53.52-29.558 0-53.518 23.96-53.518 53.52ZM776.448 1084.74c29.558 0 53.519-23.96 53.519-53.52-29.558 0-53.519 23.96-53.519 53.52ZM948 969.272c-30.367 0-54.985 19.387-54.985 43.298v72.17c30.367 0 54.985-19.39 54.985-43.3v-72.168ZM887.884 1024.26c0-30.37-19.387-54.988-43.301-54.988h-72.167c0 30.368 19.386 54.988 43.3 54.988h72.168ZM1021.99 970.006H1092v70.194c0 24.3-19.69 43.99-43.99 43.99H978v-70.2c0-24.29 19.694-43.984 43.99-43.984ZM1155.97 1084.74c29.55 0 53.52-23.96 53.52-53.52-29.56 0-53.52 23.96-53.52 53.52ZM1102.45 1084.74c29.56 0 53.52-23.96 53.52-53.52-29.56 0-53.52 23.96-53.52 53.52ZM1274 969.272c-30.37 0-54.98 19.387-54.98 43.298v72.17c30.36 0 54.98-19.39 54.98-43.3v-72.168ZM1213.88 1024.26c0-30.37-19.38-54.988-43.3-54.988h-72.16c0 30.368 19.38 54.988 43.3 54.988h72.16ZM1347.99 970.006H1418v70.194c0 24.3-19.69 43.99-43.99 43.99H1304v-70.2c0-24.29 19.69-43.984 43.99-43.984ZM1481.97 1084.74c29.55 0 53.52-23.96 53.52-53.52-29.56 0-53.52 23.96-53.52 53.52ZM1428.45 1084.74c29.56 0 53.52-23.96 53.52-53.52-29.56 0-53.52 23.96-53.52 53.52ZM1600 969.272c-30.37 0-54.98 19.387-54.98 43.298v72.17c30.36 0 54.98-19.39 54.98-43.3v-72.168ZM1539.88 1024.26c0-30.37-19.38-54.988-43.3-54.988h-72.16c0 30.368 19.38 54.988 43.3 54.988h72.16Z"/></svg>