<svg xmlns="http://www.w3.org/2000/svg" fill="none" viewBox="0 0 22 23"><path fill="#141414" d="M3 3.945h9.6a6.4 6.4 0 0 1 6.4 6.4v9.6H9.4a6.4 6.4 0 0 1-6.4-6.4v-9.6Z"/><path fill="#fff" d="M11.778 14.834a2.88 2.88 0 0 1-2.56-1.556h2.56l.444-.889H8.924a2.948 2.948 0 0 1-.035-.444c0-.152.013-.298.035-.445h2.854l.444-.889H9.218a2.885 2.885 0 0 1 4.44-.858l.786-.786a3.98 3.98 0 0 0-2.666-1.022 4.002 4.002 0 0 0-3.77 2.666H6.445l-.444.89h1.804a3.673 3.673 0 0 0 0 .888h-1.36L6 13.278h2.009a4.002 4.002 0 0 0 3.769 2.667c1.026 0 1.96-.387 2.666-1.023l-.79-.786a2.847 2.847 0 0 1-1.876.698Z"/></svg>