<svg xmlns="http://www.w3.org/2000/svg" fill="none" viewBox="0 0 721 394">
    <mask id="a" width="807" height="456" x="-43" y="-55" maskUnits="userSpaceOnUse" style="mask-type:luminance">
        <path fill="#fff" d="M763.99-54.175H-42.99v454.331h806.98V-54.175Z" />
    </mask>
    <g mask="url(#a)">
        <mask id="b" width="807" height="456" x="-43" y="-55" maskUnits="userSpaceOnUse" style="mask-type:luminance">
            <path fill="#fff" d="M763.99-54.175H-42.99v454.331h806.98V-54.175Z" />
        </mask>
        <g mask="url(#b)">
            <path fill="#3F3F3F"
                d="M706.408 337.896H110.681c-53.072 0-96.09-43.06-96.09-96.175V8.085H610.32c53.072 0 96.089 43.06 96.089 96.175v233.636Z" />
        </g>
        <path fill="#CACACA"
            d="M530.844 84.918h-1.416v-10.21h4.211c1.799 0 2.896 1.127 2.896 3 0 1.476-.685 2.486-2.001 2.822l2.266 4.388h-1.593l-2.118-4.24h-2.236v4.24h-.009Zm2.732-5.473c.908 0 1.446-.497 1.446-1.376v-.732c0-.88-.542-1.376-1.446-1.376h-2.732v3.484h2.732Zm4.279 1.682c0-2.397 1.328-3.962 3.434-3.962 2.105 0 3.316 1.61 3.316 3.731v.572h-5.334v.307c0 1.258.774 2.167 2.135 2.167.95 0 1.635-.455 2.047-1.229l.879.745c-.526.98-1.623 1.636-3.039 1.636-2.106 0-3.434-1.564-3.434-3.962l-.004-.005Zm1.416-.715v.101h3.888v-.147c0-1.258-.731-2.108-1.87-2.108-1.139 0-2.018.91-2.018 2.15v.004Zm6.54.715c0-2.427 1.244-3.962 3.405-3.962 1.492 0 2.425.732 2.866 1.813l-1.126.555c-.248-.745-.862-1.199-1.74-1.199-1.299 0-1.959.892-1.959 2.137v1.317c0 1.245.656 2.137 1.959 2.137.92 0 1.55-.467 1.929-1.287l.992.614c-.484 1.14-1.476 1.842-2.921 1.842-2.165 0-3.405-1.535-3.405-3.962v-.005Zm7.225 0c0-2.414 1.387-3.962 3.451-3.962 2.063 0 3.45 1.552 3.45 3.962s-1.387 3.963-3.45 3.963c-2.064 0-3.451-1.552-3.451-3.963Zm5.451.573v-1.14c0-1.477-.819-2.226-2-2.226s-2.001.745-2.001 2.225v1.14c0 1.477.82 2.226 2.001 2.226s2-.745 2-2.225Zm4.603 3.218-2.615-7.577h1.358l1.244 3.627.79 2.616h.088l.803-2.617 1.257-3.626h1.299l-2.631 7.577h-1.593Zm4.766-3.79c0-2.398 1.328-3.963 3.434-3.963s3.316 1.61 3.316 3.731v.572h-5.334v.307c0 1.258.774 2.167 2.135 2.167.95 0 1.635-.455 2.047-1.229l.879.745c-.526.98-1.623 1.636-3.039 1.636-2.106 0-3.434-1.564-3.434-3.962l-.004-.005Zm1.416-.716v.101h3.888v-.147c0-1.258-.731-2.108-1.87-2.108-1.139 0-2.018.91-2.018 2.15v.004Zm6.973 4.506V77.34h1.358v1.447h.071c.248-.744.921-1.447 2.135-1.447h.454v1.36h-.672c-1.257 0-1.988.496-1.988 1.244v4.973h-1.358Zm10.457-7.577h1.316l-3.287 9.23c-.349.95-.714 1.275-1.87 1.275h-.744v-1.157h1.244l.513-1.464-2.808-7.884h1.358l1.681 4.842.395 1.418h.071l.437-1.418 1.694-4.842Zm6.301 7.577v-10.21h4.211c1.841 0 2.896 1.186 2.896 3 0 1.812-1.051 2.999-2.896 2.999h-2.791v4.215h-1.416l-.004-.004Zm1.416-5.473h2.732c.908 0 1.446-.497 1.446-1.376v-.732c0-.88-.542-1.376-1.446-1.376h-2.732v3.484Zm12.067 4.228h-.059c-.349.938-1.139 1.417-2.177 1.417-1.9 0-3.039-1.506-3.039-3.963 0-2.456 1.139-3.962 3.039-3.962 1.038 0 1.828.483 2.177 1.417h.059v-1.245h1.357v7.576h-1.357v-1.245.004Zm0-1.157v-2.781c0-.803-.82-1.388-1.841-1.388-1.215 0-1.988.862-1.988 2.137v1.287c0 1.275.773 2.137 1.988 2.137 1.021 0 1.841-.585 1.841-1.388v-.004Zm5.426 2.397c-.937 0-1.433-.555-1.433-1.434v-4.99h-1.215v-1.156h.673c.512 0 .672-.19.672-.703v-1.388h1.227v2.09h1.623v1.158h-1.623v5.267h1.505v1.156h-1.433.004Zm2.984-10.823h1.358v4.492h.071c.349-.833.992-1.417 2.135-1.417 1.551 0 2.501 1.068 2.501 2.91v4.843h-1.358v-4.636c0-1.275-.525-1.931-1.592-1.931-.891 0-1.753.454-1.753 1.376v5.195H614.9V74.098l-.004-.008Z" />
        <mask id="c" width="807" height="456" x="-43" y="-55" maskUnits="userSpaceOnUse" style="mask-type:luminance">
            <path fill="#fff" d="M763.99-54.175H-42.99v454.331h806.98V-54.175Z" />
        </mask>
        <g fill="#CACACA" mask="url(#c)">
            <path
                d="M489.461 73.35a7.622 7.622 0 0 0-.071 15.24c3.597.017 6.619-2.465 7.431-5.818l2.114.009 1.492-2.129 1.286 2.141 2.652.013 1.492-2.129 1.29 2.141 2.278.009.912-1.296.786 1.304h1.329l1.74-1.628-1.976-3.087-15.761-.072a7.619 7.619 0 0 0-6.998-4.699m-5.599 7.593a2.182 2.182 0 0 1 2.194-2.175 2.18 2.18 0 0 1 2.173 2.196 2.18 2.18 0 0 1-2.194 2.175 2.182 2.182 0 0 1-2.173-2.196ZM106.57 73.336a7.622 7.622 0 0 0-7.649 7.585c-.017 4.207 3.375 7.635 7.578 7.657a7.611 7.611 0 0 0 7.431-5.818l2.114.008 1.492-2.129 1.29 2.142 2.653.012 1.492-2.128 1.29 2.14 2.278.01.912-1.296.786 1.304h1.324l1.74-1.628-1.975-3.088-15.762-.072a7.618 7.618 0 0 0-6.998-4.699m-5.598 7.594a2.184 2.184 0 1 1 4.367.021 2.181 2.181 0 0 1-2.194 2.175 2.181 2.181 0 0 1-2.173-2.196Z" />
        </g>
        <path fill="#CACACA"
            d="M146.176 84.918v-10.21h4.211c1.841 0 2.896 1.186 2.896 3 0 1.812-1.051 2.999-2.896 2.999h-2.791v4.215h-1.416l-.004-.004Zm1.416-5.473h2.732c.908 0 1.446-.497 1.446-1.376v-.732c0-.88-.542-1.376-1.446-1.376h-2.732v3.484Zm7.2 5.473V77.34h1.357v1.447h.072c.248-.744.92-1.447 2.135-1.447h.454v1.36h-.673c-1.256 0-1.988.496-1.988 1.244v4.973h-1.357Zm5.161-9.903v-.206c0-.438.248-.745.82-.745.571 0 .819.307.819.745v.206c0 .437-.248.745-.819.745-.572 0-.82-.308-.82-.745Zm.13 2.326h1.358v7.577h-1.358V77.34Zm3.438 7.577V77.34h1.358v1.246h.071c.324-.775 1.009-1.418 2.018-1.418s1.9.467 2.295 1.535h.029c.278-.82 1.038-1.535 2.308-1.535 1.521 0 2.425 1.068 2.425 2.91v4.843h-1.358v-4.636c0-1.275-.483-1.93-1.534-1.93-.878 0-1.681.453-1.681 1.375v5.195h-1.358V80.29c0-1.274-.483-1.93-1.521-1.93-.862 0-1.694.454-1.694 1.375v5.195h-1.358v-.012Zm17.523-1.246h-.059c-.349.939-1.139 1.418-2.177 1.418-1.9 0-3.039-1.506-3.039-3.963 0-2.456 1.139-3.962 3.039-3.962 1.038 0 1.828.483 2.177 1.417h.059v-1.245h1.357v7.576h-1.357v-1.245.004Zm0-1.156v-2.781c0-.804-.82-1.388-1.841-1.388-1.215 0-1.988.862-1.988 2.137v1.287c0 1.275.773 2.137 1.988 2.137 1.021 0 1.841-.585 1.841-1.388v-.004Zm3.526 2.397v-7.576h1.358v1.447h.071c.248-.744.921-1.447 2.135-1.447h.454v1.359h-.672c-1.257 0-1.988.496-1.988 1.245v4.972h-1.358Zm10.457-7.576h1.316l-3.287 9.23c-.349.95-.715 1.274-1.87 1.274h-.744v-1.156h1.244l.513-1.464-2.808-7.884h1.358l1.681 4.842.395 1.418h.071l.437-1.418 1.694-4.842Zm6.301 7.576v-10.21h4.211c1.841 0 2.896 1.187 2.896 3s-1.051 3-2.896 3h-2.791v4.215h-1.416l-.004-.005Zm1.416-5.472h2.732c.908 0 1.446-.497 1.446-1.376v-.732c0-.88-.542-1.376-1.446-1.376h-2.732v3.484Zm12.071 4.227h-.059c-.349.938-1.139 1.418-2.177 1.418-1.9 0-3.039-1.506-3.039-3.963s1.139-3.963 3.039-3.963c1.038 0 1.828.484 2.177 1.418h.059v-1.245h1.358v7.576h-1.358v-1.245.004Zm0-1.157v-2.78c0-.804-.82-1.388-1.841-1.388-1.215 0-1.988.862-1.988 2.136v1.288c0 1.275.773 2.137 1.988 2.137 1.021 0 1.841-.585 1.841-1.388v-.005Zm5.422 2.398c-.937 0-1.433-.555-1.433-1.434v-4.99h-1.215V77.33h.673c.512 0 .672-.19.672-.703v-1.388h1.227v2.09h1.623v1.157h-1.623v5.267h1.505v1.157h-1.433.004Zm2.984-10.824h1.358v4.493h.071c.349-.833.992-1.418 2.135-1.418 1.551 0 2.501 1.069 2.501 2.912v4.841h-1.358v-4.635c0-1.275-.525-1.931-1.592-1.931-.892 0-1.753.454-1.753 1.375v5.196h-1.358V74.094l-.004-.009Z" />
        <mask id="d" width="807" height="456" x="-43" y="-55" maskUnits="userSpaceOnUse" style="mask-type:luminance">
            <path fill="#fff" d="M763.99-54.175H-42.99v454.331h806.98V-54.175Z" />
        </mask>
        <g mask="url(#d)">
            <path fill="#CACACA"
                d="M409.377 92.326c0 27.02-21.885 48.92-48.877 48.92s-48.877-21.904-48.877-48.92c0-27.016 21.885-48.92 48.877-48.92s48.877 21.904 48.877 48.92Z" />
            <path fill="#3F3F3F"
                d="M403.509 92.322c0 23.789-19.25 43.056-43.013 43.056-11.256 0-21.507-4.329-29.174-11.422-8.515-7.866-13.84-19.132-13.84-31.634 0-23.769 19.267-43.057 43.018-43.057 12.588 0 23.902 5.41 31.779 14.03.021 0 .059.02.076.076 6.93 7.652 11.159 17.798 11.159 28.946" />
            <path fill="#1B1B1B"
                d="M403.51 92.322c0 23.789-19.25 43.056-43.014 43.056-11.256 0-21.507-4.329-29.173-11.421-7.087-7.674-11.428-17.951-11.428-29.22 0-23.769 19.266-43.057 43.018-43.057 11.373 0 21.662 4.388 29.366 11.615.021 0 .059.02.076.076 6.931 7.652 11.159 17.798 11.159 28.946" />
            <path fill="#00ff66"
                d="M362.164 99.015 338.06 74.889l3.762-3.761 20.346 20.37 11.756-11.767 3.762 3.76-15.522 15.524Z" />
        </g>
        <mask id="e" width="258" height="224" x="104" y="115" maskUnits="userSpaceOnUse" style="mask-type:luminance">
            <path fill="#fff" d="M361.715 115.892H104.057v222.24h257.658v-222.24Z" />
        </mask>
        <g mask="url(#e)">
            <path fill="#1B1B1B"
                d="M231.766 135.908c1.542-3.1 5.249-4.994 8.696-4.438 3.967-3.244 10.263-3.256 14.244-.021 3.005-1.847 6.994-2.003 10.137-.4 3.144 1.607 5.33 4.914 5.553 8.409 3.526-.631 7.359 1.191 9.07 4.304 1.715 3.117 1.177 7.29-1.265 9.882 3.875 1.161 6.493 5.464 5.72 9.398-.773 3.937-4.838 6.949-8.868 6.579l-41.543-24.185c-2.543-2.372-3.287-6.432-1.74-9.536" />
            <path fill="#CACACA"
                d="M276.276 170.748c-1.841-18-17.334-31.58-35.596-31.205l-1.815.037c-19.544 1.532-29.148 18.826-27.064 38.135l4.178 64.481 2.85 8.06 33.67 41.786 8.486-37.642.164-17.479s18.75-3.281 18.594-21.913c-.076-8.998-1.753-27.517-3.467-44.26Z" />
            <path fill="#1B1B1B"
                d="M261.124 236.946s-11.819.905-24.613-6.697c0 0 6.04 13.323 24.596 11.32l.021-4.623h-.004ZM271.879 187.466c.08 1.405-1.055 2.629-2.534 2.739-1.475.109-2.74-.938-2.82-2.343-.08-1.405 1.055-2.63 2.53-2.739 1.479-.109 2.74.942 2.82 2.343M272.653 180.887c-.328.353-2.392-1.098-5.283-1.031-2.888.025-4.977 1.54-5.3 1.199-.16-.151.168-.787 1.08-1.468.895-.682 2.433-1.359 4.232-1.388 1.799-.026 3.329.597 4.212 1.253.903.656 1.214 1.279 1.055 1.439M246.001 188.901c.08 1.405-1.055 2.629-2.534 2.734-1.476.109-2.741-.938-2.82-2.343-.08-1.405 1.054-2.629 2.53-2.739 1.479-.109 2.74.938 2.82 2.343M244.992 181.051c-.327.353-2.395-1.094-5.283-1.031-2.887.025-4.976 1.54-5.3 1.195-.155-.152.164-.787 1.08-1.468.896-.682 2.434-1.359 4.233-1.389 1.799-.025 3.329.598 4.215 1.254.9.656 1.215 1.279 1.055 1.439ZM254.954 202.072c-.017-.164 1.773-.509 4.678-.934.735-.088 1.433-.248 1.546-.753.164-.53-.164-1.312-.538-2.158l-2.299-5.519c-3.194-7.863-5.527-14.333-5.203-14.459.324-.122 3.173 6.146 6.367 14.013.77 1.939 1.509 3.79 2.207 5.557.298.825.794 1.758.441 2.861-.189.551-.718.959-1.189 1.093-.471.152-.887.169-1.248.198-2.926.215-4.746.265-4.758.105M244.858 172.873c-.328.749-2.833.134-5.855.244-3.026.042-5.531.786-5.854.05-.143-.349.348-1.039 1.395-1.691 1.038-.652 2.648-1.216 4.464-1.262 1.811-.042 3.421.433 4.459 1.035 1.046.602 1.538 1.266 1.391 1.62M271.833 173.049c-.437.699-2.488.228-4.875.442-2.392.131-4.355.884-4.889.257-.239-.307.013-.989.828-1.691.803-.699 2.207-1.346 3.85-1.464 1.644-.118 3.123.324 4.019.904.912.581 1.256 1.216 1.067 1.557" />
            <path fill="#1B1B1B"
                d="M274.288 162.242s-5.204-11.564-10.941-14.172c-6.943-3.155-9.747 4.379-16.337 2.7-6.59-1.678-13.218-4.707-19.813.446-7.216 5.642-3.699 9.423-3.98 17.698-1.139 33.549-7.12 43.149-9.205 27.403-.227-1.725-5.102-3.004-5.972-10.294-1.127-9.457-1.736-20.95.26-27.718 1.682-5.705 4.863-9.684 10.621-14.122 9.092-7.005 21.772-7.409 30.405-6.727 8.633.681 25.441 10.159 24.962 24.782" />
            <path fill="#CACACA"
                d="M215.197 195.783c-.176-2.873-2.727-5.09-5.611-4.762-3.501.404-7.363 2.457-6.981 9.629.677 12.726 13.437 9.428 13.441 9.062 0-.249-.512-8.608-.844-13.933" />
            <path fill="#1B1B1B"
                d="M212.995 205.071c-.059-.037-.214.169-.584.358a2.264 2.264 0 0 1-1.673.122c-1.383-.425-2.639-2.499-2.824-4.787a7.277 7.277 0 0 1 .458-3.206c.344-.951.916-1.632 1.593-1.788a1.144 1.144 0 0 1 1.353.539c.189.345.122.606.193.622.038.03.265-.227.135-.748a1.406 1.406 0 0 0-.547-.77c-.319-.232-.781-.337-1.256-.261-.988.118-1.833 1.068-2.232 2.095a7.503 7.503 0 0 0-.588 3.588c.218 2.562 1.672 4.893 3.555 5.326.917.185 1.656-.122 2.03-.442.383-.336.433-.622.387-.643M214.937 171.102c1.694 1.094 3.48 2.221 5.497 2.381 2.018.155 4.296-1.035 4.59-3.016.135-.888-.105-1.915.467-2.613.685-.833 1.983-.601 3.064-.509 3.745.316 7.519-2.381 8.397-6.003.984 1.397 3.207 1.287 4.632.337 1.425-.951 2.32-2.478 3.425-3.782 1.102-1.304 2.665-2.482 4.367-2.276.954.113 1.854.656 2.808.551 1.685-.181 2.471-2.158 2.69-3.824.223-1.666.378-3.605 1.79-4.539 1.308-.863 3.035-.412 4.594-.219 1.56.194 3.56-.206 3.926-1.72.193-.796-.168-1.62-.622-2.297-2.068-3.08-6.46-4.38-9.894-2.924-1.345-4.182-5.388-7.375-9.806-7.745-4.417-.37-8.944 2.104-10.978 6.003-2.77-2.385-6.737-3.331-10.302-2.448-3.559.879-6.615 3.563-7.926 6.958-3.144-.753-6.687.517-8.612 3.092-1.93 2.57-2.136 6.298-.501 9.061-2.282 1.355-4.215 3.669-4.207 6.306.009 2.638 2.657 5.213 5.208 4.464-.996 2.074-.093 4.842 1.937 5.948 2.03 1.106 4.876.374 6.107-1.569" />
            <path fill="#CACACA"
                d="M207.031 166.828c-.046-.034-.215 1.077.853 2.431a4.143 4.143 0 0 0 2.61 1.468 4.483 4.483 0 0 0 3.644-1.131l-.546-.068c.66 1.086 1.521 2.184 2.631 3.126.714.597 1.504 1.106 2.375 1.397.849.315 1.811.328 2.593.185 1.626-.21 3.03-1.107 3.665-2.183.664-1.052.861-2.024.983-2.672.118-.656.122-1.022.076-1.03-.055-.013-.156.34-.357.963-.206.614-.484 1.531-1.139 2.448-1.181 1.851-5.132 2.865-7.725.337-1.03-.871-1.867-1.914-2.51-2.928l-.235-.37-.311.298c-.866.833-2.076 1.149-3.081 1.044-1.021-.097-1.828-.623-2.354-1.166-1.054-1.14-1.071-2.179-1.181-2.145M230.299 136.753c-.009.043.336.085.916.312a4.412 4.412 0 0 1 2.034 1.64l.16.24.172-.24c1.169-1.619 3.14-3.714 6.111-5.111 1.48-.685 3.199-1.169 5.04-1.203 1.832-.046 3.757.438 5.476 1.43a10.566 10.566 0 0 1 3.308 2.979c.82 1.182 1.337 2.507 1.492 3.811l.051.404.386-.114c1.921-.563 3.896-.231 5.359.535 1.484.769 2.438 1.968 2.988 3.041 1.085 2.217.749 3.778.879 3.757.029.004.126-.358.134-1.043 0-.682-.109-1.713-.638-2.886a7.263 7.263 0 0 0-3.09-3.366 7.781 7.781 0 0 0-5.825-.685l.437.286c-.151-1.422-.698-2.869-1.576-4.148a11.16 11.16 0 0 0-3.531-3.202c-1.828-1.06-3.908-1.573-5.867-1.506-1.959.051-3.77.589-5.304 1.334a15.57 15.57 0 0 0-6.166 5.469h.332a4.353 4.353 0 0 0-2.295-1.616c-.63-.176-.983-.139-.988-.113" />
            <path fill="#1B1B1B"
                d="M247.334 206.556s-3.712 7.674 4.236 9.516c.69.16 1.417.11 2.085-.113a3.843 3.843 0 0 0 2.492-2.655l1.097-4.177c-.374.101-9.906-2.571-9.906-2.571" />
            <path fill="#1B1B1B"
                d="M254.483 216.051c-.013-.042-.37.051-1.03.097a6.825 6.825 0 0 1-2.723-.408c-1.089-.396-2.312-1.191-3.115-2.491-.794-1.291-1.122-3.07-.668-4.774a5.83 5.83 0 0 1 .811-1.797l-.265.097c3.069.778 5.78 1.447 7.726 1.902.895.202 1.66.37 2.294.513.543.109.841.156.845.126.009-.029-.277-.134-.807-.299-.626-.18-1.378-.399-2.257-.656a456.26 456.26 0 0 0-7.67-2.057l-.168-.042-.097.139a6.145 6.145 0 0 0-.887 1.948c-.492 1.842-.126 3.756.757 5.14.899 1.397 2.227 2.209 3.387 2.579a6.39 6.39 0 0 0 2.858.269c.673-.105 1.017-.265 1.009-.286Z" />
            <path fill="#00ff66"
                d="M310.942 264.013s13.458 7.21 16.194 26.098c2.354 16.226 16.522 103.205 16.522 103.205l12.639 53.54h-32.746l-17.808-95.019 5.199-87.82v-.004Z" />
            <path fill="#fff"
                d="m301.338 447.032-18.405-166.836-16.06-36.784-5.371-3.723-6.906 19.604-6.531 1.384-6.321-5.356-25.95-16.002-.517 8.586-10.768 31.517 8.927 82.238v85.191l87.902.181Z" />
            <path fill="#00ff66"
                d="m186.171 356.679-25.785-79.899 45.628-24.546 9.532-10.328s2.026 42.863 2.345 54.213c.32 11.354 5.313 54.385 7.545 80.559 1.189 13.984.424 37.34-.273 50.507-.803 15.102-.639 20.091-.639 20.091l-44.64-.248 14.765-58.832-8.478-31.521v.004ZM279.84 252.04l31.106 11.972 4.826 115.771 12.012 67.249-34.305.64c-.32-8.199-9.049-76.5-9.049-76.5l-11.462-106.899-8.948-22.838 15.82 10.605Z" />
            <path fill="#1B1B1B"
                d="M279.268 251.405s.21.206.572.635c.387.471.912 1.106 1.572 1.91 1.391 1.725 3.362 4.173 5.842 7.248l.126.156-.164.122c-1.479 1.11-3.148 2.368-4.951 3.723l-.067-.404c1.807.568 3.757 1.178 5.808 1.822l.185.058v.194c-.113 10.256-.252 23.167-.403 37.163-.252 17.083-.479 32.543-.643 43.796-.114 5.566-.206 10.084-.269 13.273-.046 1.527-.08 2.73-.105 3.609-.017.379-.034.69-.042.938-.013.21-.026.32-.038.32-.013 0-.021-.11-.03-.32-.004-.248-.012-.559-.021-.938 0-.875-.008-2.082-.016-3.609l.063-13.277.454-43.801.533-37.158.181.248c-2.047-.661-3.993-1.292-5.792-1.872l-.433-.139.362-.265c1.82-1.333 3.501-2.57 4.993-3.664l-.038.278a32848.84 32848.84 0 0 1-5.695-7.358c-.63-.829-1.122-1.485-1.492-1.973-.336-.45-.5-.69-.487-.703M222.645 363.284s-.05-.101-.122-.307c-.08-.244-.181-.543-.302-.917-.282-.854-.669-2.036-1.16-3.534a672.408 672.408 0 0 0-4.46-12.932c-.983-2.721-2.055-5.696-3.211-8.884-1.194-3.176-2.295-6.668-3.266-10.366-1.887-7.416-3.328-15.704-4.56-24.433a451.172 451.172 0 0 1-3.215-31.306l-.009-.131.097-.088c1.757-1.679 3.421-3.269 5.006-4.779l.025.391c-1.681-1.27-3.257-2.457-4.745-3.576l-.185-.138.134-.186c3.594-4.829 6.515-8.745 8.57-11.505 1.001-1.317 1.787-2.356 2.358-3.109.257-.324.463-.589.626-.799.143-.177.223-.265.232-.261.008.008-.051.109-.177.299-.151.218-.34.496-.572.837-.546.77-1.298 1.834-2.257 3.18l-8.397 11.628-.046-.324 4.774 3.533.244.181-.219.211a5043.34 5043.34 0 0 1-4.972 4.812l.084-.219a491.145 491.145 0 0 0 3.296 31.253c1.231 8.712 2.652 16.982 4.497 24.374.954 3.693 2.013 7.134 3.19 10.327 1.126 3.202 2.177 6.188 3.135 8.919 1.883 5.464 3.325 9.915 4.266 13.003.471 1.544.82 2.751 1.043 3.571.096.383.176.69.239.938.051.215.068.324.059.328" />
            <path fill="#00ff66"
                d="M142.775 396.408a9.295 9.295 0 0 1-4.421-7.581c-.101-2.772.025-6.899.752-12.919 1.765-14.563 21.28-99.124 21.28-99.124l28.753 65.899-8.31 28.691 42.354 20.083-11.789 32.96s-56.275-20.399-68.619-28.009Z" />
            <path fill="#1B1B1B"
                d="M171.65 296.27c.021-.004.113.248.269.74l.647 2.154c.559 1.956 1.328 4.649 2.274 7.943 1.891 6.714 4.48 15.998 7.116 26.313 2.631 10.319 4.715 19.738 6.031 26.591.66 3.424 1.151 6.205 1.45 8.132.139.908.248 1.645.336 2.221.072.509.097.778.072.782-.021 0-.093-.256-.202-.761-.118-.568-.269-1.3-.458-2.2-.408-1.99-.967-4.733-1.652-8.09-1.429-6.823-3.581-16.209-6.212-26.519-2.631-10.307-5.153-19.608-6.931-26.352-.857-3.314-1.563-6.028-2.072-7.997-.219-.891-.391-1.615-.53-2.183-.113-.501-.163-.766-.142-.774" />
            <g opacity=".3">
                <mask id="f" width="6" height="98" x="286" y="266" maskUnits="userSpaceOnUse"
                    style="mask-type:luminance">
                    <path fill="#fff" d="M291.469 266.856h-4.753v96.47h4.753v-96.47Z" />
                </mask>
                <g mask="url(#f)">
                    <path fill="#000" d="m287.926 266.856 3.543 4.842s-.987 73.404-4.753 91.628l1.21-96.47Z" />
                </g>
            </g>
            <path fill="#263238"
                d="M327.784 447.032s-.009-.122-.042-.349c-.042-.252-.101-.589-.177-1.022-.168-.921-.408-2.246-.719-3.938a30415.1 30415.1 0 0 0-2.74-14.564l-9.364-48.832v.051c.033-2.587.063-5.334.096-8.111.211-21.547.4-41.05.534-55.197.046-7.042.08-12.751.105-16.726v-4.548c-.004-.5-.008-.891-.012-1.182-.005-.265-.013-.403-.021-.403-.009 0-.017.134-.03.403-.008.291-.021.682-.038 1.182-.021 1.065-.054 2.592-.096 4.548l-.261 16.726c-.172 14.143-.416 33.646-.681 55.193-.029 2.781-.059 5.523-.088 8.111v.05c3.77 19.297 7.116 36.448 9.524 48.803 1.223 6.142 2.202 11.093 2.887 14.534.345 1.687.614 3.004.803 3.921.093.429.164.766.219 1.014.05.227.084.345.092.34" />
            <path fill="#1B1B1B" d="m248.065 260.677-3.867 78.511 11.97 8.291 12.891-8.14-14.462-80.046-6.532 1.384Z" />
        </g>
        <mask id="g" width="217" height="224" x="494" y="115" maskUnits="userSpaceOnUse" style="mask-type:luminance">
            <path fill="#fff" d="M710.641 115.892H494.858v222.24h215.783v-222.24Z" />
        </mask>
        <g mask="url(#g)">
            <path fill="#1B1B1B"
                d="M624.803 135.908c-1.547-3.1-5.25-4.994-8.696-4.438-3.968-3.244-10.264-3.256-14.244-.021-3.006-1.847-6.994-2.003-10.138-.4-3.144 1.607-5.33 4.914-5.552 8.409-3.527-.631-7.36 1.191-9.07 4.304-1.715 3.117-1.177 7.29 1.265 9.882-3.876 1.161-6.494 5.464-5.721 9.398.774 3.937 4.838 6.949 8.869 6.579l41.542-24.185c2.543-2.372 3.283-6.432 1.74-9.536" />
            <path fill="#CACACA"
                d="M580.293 170.748c1.841-18 17.333-31.58 35.595-31.205l1.816.037c19.544 1.532 29.148 18.826 27.063 38.135l-4.178 64.481-2.849 8.06-33.667 41.786-8.486-37.642-.164-17.479s-18.749-3.281-18.594-21.913c.076-8.998 1.753-27.517 3.468-44.26" />
            <path fill="#1B1B1B"
                d="M595.449 236.946s11.819.905 24.613-6.697c0 0-6.04 13.323-24.596 11.32l-.021-4.623h.004ZM584.689 187.466c-.08 1.405 1.055 2.629 2.534 2.739 1.476.109 2.741-.938 2.821-2.343.08-1.405-1.055-2.63-2.531-2.739-1.479-.109-2.74.942-2.82 2.343M583.92 180.887c.328.353 2.391-1.098 5.283-1.031 2.888.025 4.976 1.54 5.3 1.199.16-.151-.168-.787-1.076-1.468-.895-.682-2.433-1.359-4.232-1.388-1.799-.026-3.329.597-4.212 1.253-.903.656-1.219 1.279-1.055 1.439M610.567 188.901c-.08 1.405 1.055 2.629 2.535 2.734 1.475.109 2.74-.938 2.82-2.343.08-1.405-1.055-2.629-2.53-2.739-1.48-.109-2.741.938-2.821 2.343M611.576 181.051c.328.353 2.396-1.094 5.283-1.031 2.888.025 4.976 1.54 5.3 1.195.156-.152-.164-.787-1.08-1.468-.895-.682-2.434-1.359-4.233-1.389-1.798-.025-3.328.598-4.215 1.254-.9.656-1.215 1.279-1.055 1.439ZM601.615 202.072c.017-.164-1.774-.509-4.678-.934-.736-.088-1.433-.248-1.547-.753-.164-.53.164-1.312.538-2.158l2.299-5.519c3.194-7.863 5.527-14.333 5.203-14.459-.323-.122-3.173 6.146-6.367 14.013-.769 1.939-1.509 3.79-2.207 5.557-.298.825-.798 1.758-.441 2.861.189.551.723.959 1.189 1.093.471.152.887.169 1.249.198 2.925.215 4.741.265 4.758.105M611.71 172.873c.328.749 2.833.134 5.855.244 3.026.042 5.531.786 5.855.05.143-.349-.349-1.039-1.395-1.691-1.039-.652-2.648-1.216-4.464-1.262-1.812-.042-3.421.433-4.459 1.035-1.047.602-1.539 1.266-1.392 1.62M584.735 173.049c.437.699 2.488.228 4.876.442 2.391.131 4.354.884 4.888.257.239-.307-.013-.989-.828-1.691-.803-.699-2.207-1.346-3.85-1.464-1.644-.118-3.123.324-4.018.904-.912.581-1.257 1.216-1.068 1.557" />
            <path fill="#1B1B1B"
                d="M582.281 162.242s5.203-11.564 10.94-14.172c6.944-3.155 9.747 4.379 16.337 2.7 6.591-1.678 13.219-4.707 19.813.446 7.217 5.642 3.699 9.423 3.981 17.698 1.139 33.549 7.12 43.149 9.204 27.403.227-1.725 5.103-3.004 5.973-10.294 1.126-9.457 1.736-20.95-.261-27.718-1.681-5.705-4.863-9.684-10.621-14.122-9.091-7.005-21.776-7.409-30.405-6.727-8.632.681-25.44 10.159-24.961 24.782" />
            <path fill="#CACACA"
                d="M641.371 195.783c.177-2.873 2.728-5.09 5.611-4.762 3.501.404 7.364 2.457 6.981 9.629-.676 12.726-13.437 9.428-13.441 9.062 0-.249.513-8.608.845-13.933" />
            <path fill="#1B1B1B"
                d="M643.573 205.071c.059-.037.215.169.585.358a2.26 2.26 0 0 0 1.672.122c1.383-.425 2.64-2.499 2.825-4.787a7.306 7.306 0 0 0-.458-3.206c-.341-.951-.917-1.632-1.593-1.788a1.145 1.145 0 0 0-1.354.539c-.193.345-.122.606-.193.622-.038.03-.265-.227-.134-.748.067-.249.231-.543.546-.77.324-.232.782-.337 1.257-.261.987.118 1.832 1.068 2.231 2.095a7.515 7.515 0 0 1 .589 3.588c-.219 2.562-1.673 4.893-3.556 5.326-.916.185-1.656-.122-2.03-.442-.382-.336-.433-.622-.387-.643M641.632 171.102c-1.694 1.094-3.48 2.221-5.498 2.381-2.017.155-4.291-1.035-4.59-3.016-.134-.888.106-1.915-.466-2.613-.685-.833-1.984-.601-3.064-.509-3.745.316-7.519-2.381-8.398-6.003-.983 1.397-3.207 1.287-4.631.337-1.425-.951-2.321-2.478-3.426-3.782-1.101-1.304-2.665-2.482-4.367-2.276-.954.113-1.853.656-2.807.551-1.686-.181-2.472-2.158-2.69-3.824-.223-1.666-.379-3.605-1.791-4.539-1.307-.863-3.034-.412-4.594-.219-1.559.194-3.56-.206-3.925-1.72-.194-.796.168-1.62.622-2.297 2.068-3.08 6.46-4.38 9.894-2.924 1.345-4.182 5.388-7.375 9.805-7.745 4.418-.37 8.944 2.104 10.979 6.003 2.769-2.385 6.737-3.331 10.301-2.448 3.56.879 6.616 3.563 7.927 6.958 3.144-.753 6.687.517 8.612 3.092 1.929 2.57 2.135 6.298.5 9.061 2.282 1.355 4.216 3.669 4.207 6.306-.008 2.638-2.652 5.213-5.207 4.464.996 2.074.092 4.842-1.938 5.948-2.03 1.106-4.875.374-6.111-1.569" />
            <path fill="#CACACA"
                d="M649.538 166.828c.046-.034.214 1.077-.854 2.431a4.138 4.138 0 0 1-2.61 1.468 4.484 4.484 0 0 1-3.644-1.131l.547-.068c-.66 1.086-1.522 2.184-2.631 3.126-.715.597-1.505 1.106-2.375 1.397-.849.315-1.812.328-2.593.185-1.627-.21-3.031-1.107-3.665-2.183-.664-1.052-.862-2.024-.988-2.672-.118-.656-.122-1.022-.076-1.03.055-.013.156.34.357.963.206.614.484 1.531 1.14 2.448 1.181 1.851 5.131 2.865 7.725.337 1.029-.871 1.866-1.914 2.509-2.928l.235-.37.311.298c.866.833 2.077 1.149 3.081 1.044 1.021-.097 1.828-.623 2.354-1.166 1.055-1.14 1.071-2.179 1.181-2.145M626.27 136.753c.008.043-.337.085-.917.312a4.405 4.405 0 0 0-2.03 1.64l-.16.24-.172-.24c-1.168-1.619-3.139-3.714-6.111-5.111-1.479-.685-3.199-1.169-5.039-1.203-1.833-.046-3.762.438-5.477 1.43a10.507 10.507 0 0 0-3.304 2.979c-.819 1.182-1.336 2.507-1.496 3.811l-.05.404-.387-.114c-1.921-.563-3.896-.231-5.359.535-1.483.769-2.438 1.968-2.988 3.041-1.085 2.217-.748 3.778-.883 3.757-.029.004-.126-.358-.134-1.043a7 7 0 0 1 .639-2.886 7.255 7.255 0 0 1 3.089-3.366 7.781 7.781 0 0 1 5.825-.685l-.437.286c.151-1.422.698-2.869 1.576-4.148a11.16 11.16 0 0 1 3.531-3.202c1.828-1.06 3.909-1.573 5.867-1.506 1.959.051 3.77.589 5.304 1.334a15.57 15.57 0 0 1 6.166 5.469h-.332a4.353 4.353 0 0 1 2.295-1.616c.63-.176.988-.139.988-.113" />
            <path fill="#1B1B1B"
                d="M609.239 206.556s3.711 7.674-4.232 9.516c-.69.16-1.417.11-2.089-.113a3.831 3.831 0 0 1-2.489-2.655l-1.096-4.177c.374.101 9.906-2.571 9.906-2.571Z" />
            <path fill="#1B1B1B"
                d="M602.085 216.051c.013-.042.37.051 1.03.097a6.83 6.83 0 0 0 2.724-.408c1.088-.396 2.311-1.191 3.114-2.491.794-1.291 1.122-3.07.668-4.774a5.83 5.83 0 0 0-.811-1.797l.265.097a459.169 459.169 0 0 1-7.725 1.902c-.895.202-1.66.37-2.295.513-.542.109-.841.156-.845.126-.008-.029.278-.134.807-.299.626-.18 1.379-.399 2.257-.656a464.72 464.72 0 0 1 7.671-2.057l.168-.042.096.139c.395.568.702 1.237.887 1.948.492 1.842.126 3.756-.756 5.14-.9 1.397-2.228 2.209-3.388 2.579a6.39 6.39 0 0 1-2.858.269c-.672-.105-1.017-.265-1.009-.286Z" />
            <path fill="#00ff66"
                d="M545.626 264.013s-13.458 7.21-16.194 26.098c-2.354 16.226-16.522 103.205-16.522 103.205l-12.639 53.54h32.746l17.808-95.019-5.199-87.82v-.004Z" />
            <path fill="#fff"
                d="m555.23 447.032 18.405-166.836 16.06-36.784 5.371-3.723 6.906 19.604 6.531 1.384 6.322-5.356 25.949-16.002.517 8.586 10.768 31.517-8.927 82.238v85.191l-87.902.181Z" />
            <path fill="#00ff66"
                d="m670.397 356.679 25.786-79.899-45.628-24.546-9.533-10.328s-2.026 42.863-2.345 54.213c-.319 11.354-5.313 54.385-7.54 80.559-1.19 13.984-.425 37.34.273 50.507.803 15.102.639 20.091.639 20.091l44.64-.248-14.765-58.832 8.477-31.521-.004.004ZM576.733 252.04l-31.107 11.972-4.825 115.771-12.012 67.249 34.305.64c.319-8.199 9.049-76.5 9.049-76.5l11.462-106.899 8.948-22.838-15.82 10.605Z" />
            <path fill="#1B1B1B"
                d="M577.3 251.405s-.21.206-.572.635c-.386.471-.912 1.106-1.572 1.91-1.391 1.725-3.362 4.173-5.842 7.248l-.126.156.16.122c1.479 1.11 3.148 2.368 4.951 3.723l.067-.404c-1.807.568-3.757 1.178-5.808 1.822l-.185.058v.194c.113 10.256.252 23.167.403 37.163.253 17.083.479 32.543.643 43.796.114 5.566.206 10.084.269 13.273.047 1.527.08 2.73.105 3.609.017.379.034.69.042.938.013.21.026.32.038.32.013 0 .021-.11.03-.32.004-.248.012-.559.021-.938 0-.875.008-2.082.017-3.609-.017-3.189-.038-7.711-.063-13.277-.118-11.253-.278-26.717-.454-43.801l-.534-37.158-.181.248c2.047-.661 3.993-1.292 5.792-1.872l.433-.139-.362-.265a8015.39 8015.39 0 0 0-4.993-3.664l.038.278c2.417-3.122 4.342-5.608 5.695-7.358a409.83 409.83 0 0 0 1.492-1.973c.336-.45.5-.69.488-.703M633.923 363.284s.051-.101.122-.307c.08-.244.181-.543.303-.917l1.16-3.534a671.077 671.077 0 0 1 4.459-12.932c.984-2.721 2.056-5.696 3.211-8.884 1.194-3.176 2.295-6.668 3.266-10.366 1.887-7.416 3.329-15.704 4.56-24.433a450.605 450.605 0 0 0 3.216-31.306l.008-.131-.092-.088a5737.271 5737.271 0 0 0-5.006-4.779l-.025.391c1.681-1.27 3.257-2.457 4.745-3.576l.185-.138-.135-.186c-3.593-4.829-6.514-8.745-8.57-11.505l-2.358-3.109c-.256-.324-.462-.589-.626-.799-.143-.177-.223-.265-.231-.261-.008.008.05.109.177.299.151.218.34.496.571.837.547.77 1.299 1.834 2.257 3.18 2.013 2.789 4.876 6.752 8.398 11.628l.046-.324-4.775 3.533-.243.181.218.211c1.572 1.523 3.228 3.125 4.972 4.812l-.084-.219a490.36 490.36 0 0 1-3.295 31.253c-1.231 8.712-2.652 16.982-4.497 24.374-.954 3.693-2.018 7.134-3.19 10.327-1.127 3.202-2.177 6.188-3.136 8.919-1.883 5.464-3.324 9.915-4.266 13.003-.47 1.544-.819 2.751-1.042 3.571l-.24.938c-.05.215-.067.324-.058.328" />
            <path fill="#00ff66"
                d="M713.793 396.408a9.296 9.296 0 0 0 4.422-7.581c.101-2.772-.025-6.899-.753-12.919-1.765-14.563-21.279-99.124-21.279-99.124l-28.753 65.899 8.309 28.691-42.354 20.083 11.79 32.96s56.274-20.399 68.618-28.009Z" />
            <path fill="#1B1B1B"
                d="M684.919 296.27c-.021-.004-.114.248-.269.74l-.648 2.154c-.559 1.956-1.328 4.649-2.273 7.943-1.892 6.714-4.481 15.998-7.116 26.313-2.631 10.319-4.716 19.738-6.031 26.591-.656 3.424-1.152 6.205-1.45 8.132-.139.908-.248 1.645-.337 2.221-.071.509-.096.778-.075.782.021 0 .092-.256.201-.761.118-.568.269-1.3.458-2.2.408-1.99.967-4.733 1.652-8.09 1.429-6.823 3.581-16.209 6.212-26.519 2.631-10.307 5.153-19.608 6.927-26.352.857-3.314 1.563-6.028 2.072-7.997.219-.891.391-1.615.53-2.183.113-.501.163-.766.142-.774" />
            <g opacity=".3">
                <mask id="h" width="5" height="98" x="565" y="266" maskUnits="userSpaceOnUse"
                    style="mask-type:luminance">
                    <path fill="#fff" d="M569.852 266.856h-4.753v96.47h4.753v-96.47Z" />
                </mask>
                <g mask="url(#h)">
                    <path fill="#000" d="m568.642 266.856-3.547 4.842s.992 73.404 4.754 91.628l-1.211-96.47h.004Z" />
                </g>
            </g>
            <path fill="#263238"
                d="M528.785 447.032s.008-.122.042-.349c.042-.252.101-.589.176-1.022.168-.921.408-2.246.719-3.938.647-3.445 1.58-8.405 2.74-14.564l9.365-48.832v.051c-.034-2.587-.063-5.334-.097-8.111-.21-21.547-.399-41.05-.538-55.197-.046-7.042-.08-12.751-.105-16.726v-4.548c.004-.5.008-.891.013-1.182.004-.265.012-.403.021-.403.008 0 .016.134.029.403.008.291.021.682.038 1.182.021 1.065.054 2.592.096 4.548.064 3.975.152 9.684.261 16.726.172 14.143.416 33.646.681 55.193.029 2.781.059 5.523.088 8.111v.05c-3.77 19.297-7.116 36.448-9.528 48.803-1.223 6.142-2.202 11.093-2.888 14.534-.344 1.687-.613 3.004-.802 3.921-.093.429-.164.766-.219 1.014-.05.227-.084.345-.088.34" />
            <path fill="#1B1B1B" d="m608.503 260.677 3.867 78.511-11.97 8.291-12.891-8.14 14.463-80.046 6.531 1.384Z" />
        </g>
        <mask id="i" width="807" height="456" x="-43" y="-55" maskUnits="userSpaceOnUse" style="mask-type:luminance">
            <path fill="#fff" d="M763.99-54.175H-42.99v454.331h806.98V-54.175Z" />
        </mask>
        <g mask="url(#i)">
            <path fill="#1B1B1B"
                d="M490.47 250.084c-.441-12.259-.887-24.576-3.245-36.62-2.358-12.04-5.312-23.777-12.89-33.452l-70.888 3.769c-2.737 10.87-5.494 22.006-4.355 33.149 1.101 10.816 5.851 21.274 5.086 32.119-.542 7.665-3.8 14.829-6.2 22.132-2.404 7.303-3.942 15.409-1.088 22.548.719 1.801 1.765 3.551 3.392 4.611 2 1.295 4.535 1.346 6.922 1.35 28.337.038 56.678-.606 84.985-1.939l-1.715-47.663" />
            <path fill="#263238"
                d="M479.668 210.469c.437 15.094-6.006 30.255-17.19 40.46-2.56-7.382-5.124-14.765-7.683-22.144" />
            <path fill="#1B1B1B"
                d="M421.738 166.415c6.595-3.588 14.564-4.101 21.936-2.633s14.239 4.787 20.746 8.531c3.648 2.1 7.292 4.413 9.915 7.695 4.791 5.994 9.524 15.842 9.986 23.486.374 6.18-2.005 21.656-4.632 27.268-2.408 5.154-13.689 9.074-19.254 10.345l-51.079-59.101c1.803-6.567 6.384-12.33 12.386-15.595" />
            <path fill="#1B1B1B"
                d="m412.933 174.387 12.247-2.179c-6.695 15.86-8.507 52.13-12.34 68.903-4.514-6.516-14.996-26.364-14.437-34.256.563-7.892-.021-33.814 14.53-32.468Z" />
            <path fill="#CACACA"
                d="M470.985 200.734c-.543-9.078-6.755-16.831-15.615-19.077l-28.32-7.19c-12.188-1.308-20.325 13.605-21.124 25.775-.887 13.521-1.433 27.786.156 37.882 3.194 20.294 18.817 22.91 18.817 22.91 0-.029 0 4.686.012 10.61l.32.744c7.246 17.004 31.178 17.786 39.533 1.292l6.296-72.651c.009-.358-.042.256-.075-.299" />
            <path fill="#1B1B1B"
                d="M409.839 215.458c-.05 1.376 1.076 2.549 2.518 2.633 1.437.08 2.648-.967 2.702-2.339.051-1.375-1.076-2.553-2.513-2.633-1.442-.08-2.652.968-2.703 2.339M408.994 208.193c.324.341 2.308-1.115 5.124-1.102 2.812-.026 4.871 1.417 5.178 1.077.151-.152-.181-.766-1.076-1.418-.883-.652-2.392-1.283-4.144-1.283-1.753.004-3.228.643-4.077 1.3-.866.66-1.16 1.27-1.005 1.422M435.461 215.105c-.051 1.375 1.076 2.549 2.517 2.629 1.438.08 2.648-.968 2.703-2.339.05-1.376-1.076-2.554-2.513-2.634-1.442-.08-2.652.968-2.703 2.344M435.717 208.193c.324.341 2.312-1.115 5.124-1.102 2.812-.026 4.871 1.417 5.178 1.077.151-.152-.177-.766-1.076-1.418-.883-.652-2.392-1.283-4.144-1.283-1.753.008-3.228.643-4.077 1.3-.866.66-1.16 1.27-1.005 1.426ZM426.92 230.182c.013-.16-1.736-.463-4.568-.829-.719-.076-1.4-.219-1.518-.707-.168-.517.135-1.287.484-2.12.68-1.729 1.391-3.542 2.139-5.439 2.967-7.745 5.119-14.114 4.804-14.232-.315-.118-2.976 6.066-5.943 13.811-.715 1.91-1.4 3.731-2.047 5.473-.273.812-.744 1.733-.378 2.806.193.534.718.925 1.181 1.047.458.139.866.148 1.219.173 2.854.16 4.623.177 4.631.017M451.949 253.815s-6.636 13.937-27.042 11.994v-4.771s13.433.88 27.042-7.218M436.604 198.076c.277.761 3.085.408 6.384.811 3.312.337 5.969 1.305 6.41.623.197-.328-.265-1.043-1.341-1.784-1.067-.74-2.765-1.442-4.749-1.665-1.984-.219-3.8.088-5.002.572-1.214.483-1.824 1.081-1.706 1.443M409.911 199.628c.491.635 2.433-.021 4.766-.046 2.328-.11 4.304.437 4.762-.228.202-.323-.109-.959-.971-1.564-.849-.602-2.27-1.094-3.871-1.052-1.601.046-2.993.622-3.804 1.27-.824.652-1.097 1.304-.878 1.616" />
            <path fill="#1B1B1B"
                d="M411.47 181.715c1.248-3.054 4.615-4.884 7.923-5.052 3.307-.168 6.54 1.081 9.406 2.726 12.147 6.983 18.388 23.853 30.388 31.08 2.95 1.779 6.792.151 9.301 2.503 2.509 2.356 4.14 6.116 2.749 9.259 1.614-2.2 3.245-4.442 4.165-7.004.916-2.567 1.03-5.549-.336-7.909-1.038-1.788-2.871-3.155-3.375-5.162-.441-1.762.256-3.609.181-5.427-.08-1.851-.954-3.563-1.867-5.174-4.698-8.27-11.167-15.75-19.493-20.403-5.443-3.037-11.664-4.817-17.897-4.606-6.237.21-12.466 2.49-17.026 6.722-2.686 2.491-5.506 5.065-4.115 8.443" />
            <path fill="#CACACA"
                d="M468.198 215.487c.214-.58 10.852-4.4 10.995 6.849.135 10.929-10.945 8.775-10.97 8.464-.021-.311-.025-15.308-.025-15.308" />
            <path fill="#1B1B1B"
                d="M471.569 226.627c.046-.034.193.13.517.278a1.93 1.93 0 0 0 1.429.016c1.156-.433 2.118-2.275 2.152-4.248a6.307 6.307 0 0 0-.563-2.722c-.345-.795-.866-1.351-1.454-1.447-.585-.127-.992.223-1.123.534-.142.307-.071.526-.13.543-.029.029-.235-.181-.151-.636.042-.218.168-.475.424-.69.261-.214.648-.328 1.055-.286.849.051 1.618.821 2.014 1.675.445.862.714 1.922.693 3.041-.05 2.205-1.164 4.274-2.749 4.745-.769.207-1.416-.016-1.752-.273-.345-.269-.404-.509-.366-.53" />
            <path fill="#CACACA"
                d="M472.565 209.871s-.235-.113-.664-.37c-.42-.265-1.068-.618-1.841-1.165-1.534-1.102-3.665-2.852-5.93-5.372-2.278-2.503-4.666-5.751-7.251-9.373-2.593-3.613-5.438-7.614-9.066-11.228-1.849-1.767-3.791-3.348-5.85-4.598-2.055-1.258-4.207-2.183-6.317-2.852a31.458 31.458 0 0 0-11.634-1.422 30.23 30.23 0 0 0-7.797 1.519c-.904.273-1.572.576-2.034.749-.463.181-.71.269-.719.252-.008-.017.227-.135.677-.345.454-.206 1.114-.538 2.009-.841 1.769-.661 4.438-1.431 7.834-1.687a31.194 31.194 0 0 1 11.802 1.333c2.148.665 4.342 1.599 6.435 2.874 2.102 1.266 4.077 2.873 5.947 4.661 3.674 3.655 6.519 7.69 9.092 11.32 2.568 3.639 4.909 6.891 7.141 9.407a40.636 40.636 0 0 0 5.779 5.447c.752.564 1.378.943 1.778 1.237.407.282.617.438.609.454Z" />
            <path fill="#1B1B1B"
                d="M469.804 212.963c.172 2.983.311 6.138-1.076 8.788-1.387 2.651-4.884 4.455-7.49 2.974-2.127-1.211-2.766-3.92-3.127-6.331-1.042-6.962-1.517-13.996-2.623-20.945l14.312 15.519.004-.005Z" />
            <path fill="#CACACA"
                d="M414.177 176.516c.012.063.97-.181 2.731-.24 1.749-.046 4.338.181 7.272 1.321a23.943 23.943 0 0 1 4.556 2.335c1.542 1.014 3.11 2.225 4.699 3.567 3.152 2.709 6.414 5.97 9.196 9.865 1.395 1.948 2.631 3.954 3.972 5.81 1.328 1.863 2.803 3.542 4.405 4.926 3.194 2.759 6.481 4.694 9.28 6.175 2.812 1.477 5.161 2.512 6.779 3.231.765.324 1.387.589 1.879.795.433.177.664.257.673.24.008-.021-.206-.139-.622-.349l-1.829-.901c-1.589-.782-3.904-1.876-6.674-3.394-2.757-1.523-5.994-3.479-9.117-6.222-1.555-1.363-2.984-3.008-4.287-4.851-1.315-1.834-2.547-3.845-3.959-5.813-2.824-3.955-6.132-7.228-9.331-9.941-1.614-1.346-3.206-2.553-4.787-3.563a23.706 23.706 0 0 0-4.678-2.314c-3.013-1.106-5.661-1.274-7.431-1.152-.891.058-1.576.176-2.034.281-.458.11-.693.173-.689.194M501.877 307.637l32.603 34.756c5.38 5.738 9.284 10.976 16.909 12.978 5.342 1.401 13.722.669 16.488-2.852 3.795-4.834 5.603-14.745 1.446-21.131-4.157-6.386-33.343-34.811-33.343-34.811l-34.103 11.064v-.004Z" />
            <path fill="#00ff66"
                d="M547.034 304.612s-33.876-40.221-46.759-40.221c0 0-8.145 14.265-8.414 22.039-.269 7.774 26.063 44.188 26.063 44.188l29.11-26.01v.004Z" />
            <path fill="#00ff66"
                d="m510.947 317.695-10.764-53.392-34.835-.362c-12.831 14.526-25.945 24.929-40.882 8.22l-36.684 14.438 9.532 51.852 110.64-.071c4.313-14.211 2.989-20.685 2.989-20.685" />
            <path fill="#00ff66"
                d="M363.11 338.384c0-2.145 12.277-46.687 24.676-51.781l9.574 14.703 2.699 37.12-36.949-.042Z" />
            <path fill="#263238"
                d="M517.924 330.623c-.03.021-.349-.337-.908-1.002a97.237 97.237 0 0 1-2.291-2.877c-1.908-2.453-4.459-5.898-7.288-9.688-2.833-3.791-5.459-7.173-7.431-9.562a201.235 201.235 0 0 0-2.349-2.823c-.559-.665-.858-1.043-.828-1.069.025-.025.374.308.983.93.61.619 1.459 1.548 2.48 2.718 2.051 2.339 4.733 5.691 7.57 9.486 2.833 3.794 5.338 7.273 7.166 9.781.862 1.19 1.584 2.187 2.156 2.974.504.707.773 1.106.744 1.127M392.863 338.914c-.033.008-.176-.45-.399-1.283-.227-.833-.504-2.053-.799-3.572-.592-3.033-1.16-7.281-1.281-12.001-.114-4.725.243-8.995.685-12.053.218-1.531.437-2.764.622-3.605.18-.846.298-1.308.332-1.3.038.008-.013.484-.131 1.338-.126.854-.285 2.086-.453 3.618a90.57 90.57 0 0 0-.53 11.993 90.352 90.352 0 0 0 1.122 11.952c.244 1.518.467 2.742.635 3.588.16.845.231 1.321.197 1.329" />
            <path fill="#1B1B1B"
                d="M391.821 274.008c.016.134.382.244 1.088.223.706-.013 1.749-.215 2.989-.766 1.227-.568 2.639-1.51 3.946-2.936 1.303-1.405 2.514-3.349 3.291-5.625.803-2.276 1.232-4.871 1.383-7.593.155-2.73.101-5.561-.008-8.561-.236-5.99-.946-12.511-1.736-19.279-.79-6.777-1.522-13.18-1.816-19.006-.307-5.823-.214-11.064.185-15.435.769-8.759 2.614-14 1.996-14.227-.134-.051-.382.223-.735.803-.177.29-.378.656-.605 1.094-.215.442-.437.963-.69 1.548-.971 2.356-2.122 5.894-2.887 10.399-.794 4.497-1.202 9.941-1.101 15.948.088 6.011.718 12.561 1.513 19.351.794 6.79 1.605 13.201 2.042 19.027.211 2.907.387 5.7.387 8.233 0 2.532-.227 4.842-.748 6.844-.992 4.03-3.35 6.672-5.229 8.018-1.916 1.355-3.324 1.612-3.27 1.94" />
            <path fill="#00ff66"
                d="M428.564 235.541c.954-1.363 2.69-2.158 4.446-2.036 1.219.084 2.468.618 3.245 1.573.778.955.984 2.348.353 3.311-.714 1.085-2.282 1.388-3.631 1.064-1.349-.328-2.535-1.156-3.657-1.985-.311-.232-.63-.467-.832-.791-.202-.324-.256-.753-.038-1.035" />
            <path fill="#1B1B1B"
                d="M435.427 230.489c-.454-.009-.344 3.012-2.858 5.258-2.509 2.251-5.762 2.036-5.766 2.461-.034.19.744.56 2.109.543 1.341-.004 3.283-.509 4.821-1.885 1.534-1.375 2.148-3.155 2.203-4.4.067-1.266-.303-2.002-.509-1.977ZM488.02 217.961c3.841 13.962.584 32.623 4.379 43.835 3.8 11.211 6.565 23.654 2.27 34.684-1.971-4.345-3.943-8.691-5.918-13.036 2.387 5.115 1.887 11.459-1.278 16.141-3.165 4.682-19.111 8.674-24.772 8.405-5.733-30.268-4.153-53.417 5.749-76.816l7.646 8.456 6.884-2.949 5.04-18.724v.004ZM427.719 214.398c.071.008-.017-1.165.492-3.176.235-1.006.718-2.192 1.466-3.446a12.999 12.999 0 0 1 3.325-3.659c1.475-1.094 3.329-2.028 5.472-2.398 2.127-.362 4.527-.291 6.809.572 1.148.399 2.257.997 3.274 1.758.526.362.988.812 1.467 1.245.433.48.891.951 1.27 1.494 1.593 2.107 2.488 4.817 2.517 7.61-.025 2.793-.92 5.502-2.513 7.614-.374.543-.832 1.014-1.269 1.494-.484.433-.942.883-1.467 1.245a12.235 12.235 0 0 1-3.279 1.758c-2.282.867-4.682.934-6.809.572-2.139-.374-3.997-1.304-5.472-2.398a12.999 12.999 0 0 1-3.325-3.659c-.752-1.254-1.231-2.44-1.466-3.446-.509-2.006-.421-3.18-.492-3.172-.008 0-.013.072-.013.211 0 .164.009.37.013.622a6 6 0 0 0 .084 1.01c.055.4.105.862.248 1.363.218 1.022.681 2.238 1.425 3.525a13.094 13.094 0 0 0 3.345 3.774c1.497 1.135 3.392 2.103 5.586 2.503 2.182.387 4.649.328 7.002-.551 1.186-.404 2.329-1.023 3.384-1.801.542-.37 1.021-.833 1.517-1.279.45-.492.921-.976 1.311-1.535 1.648-2.171 2.581-4.973 2.602-7.854-.025-2.882-.958-5.679-2.606-7.85-.386-.56-.861-1.043-1.311-1.536-.496-.446-.971-.908-1.517-1.278a12.454 12.454 0 0 0-3.38-1.797c-2.353-.879-4.82-.938-7.002-.551-2.194.4-4.089 1.367-5.586 2.503a13.082 13.082 0 0 0-3.345 3.774c-.744 1.291-1.211 2.503-1.425 3.525-.143.505-.193.967-.248 1.363a6.004 6.004 0 0 0-.084 1.014 44.94 44.94 0 0 1-.013.622c0 .139 0 .211.013.211M398.218 213.83c.071.008-.017-1.165.492-3.176.235-1.006.718-2.192 1.467-3.445a12.969 12.969 0 0 1 3.324-3.66c1.475-1.094 3.329-2.028 5.472-2.398 2.127-.362 4.527-.291 6.809.572 1.148.399 2.257.997 3.274 1.758.526.362.988.812 1.467 1.245.437.48.891.951 1.27 1.494 1.593 2.107 2.488 4.817 2.517 7.61-.025 2.793-.92 5.502-2.513 7.614-.374.543-.832 1.014-1.269 1.494-.484.433-.942.883-1.467 1.245a12.235 12.235 0 0 1-3.279 1.758c-2.282.867-4.682.934-6.809.572-2.139-.374-3.997-1.304-5.472-2.397a12.996 12.996 0 0 1-3.324-3.66c-.753-1.254-1.232-2.44-1.467-3.446-.509-2.006-.421-3.18-.492-3.172-.008 0-.013.072-.013.211 0 .164.009.37.013.622a6 6 0 0 0 .084 1.01c.055.4.105.862.248 1.363.219 1.022.681 2.238 1.425 3.525a13.094 13.094 0 0 0 3.345 3.774c1.497 1.135 3.392 2.103 5.586 2.503 2.182.387 4.649.328 7.002-.551 1.186-.404 2.329-1.023 3.384-1.801.542-.37 1.017-.833 1.517-1.279.45-.492.921-.976 1.311-1.535 1.648-2.171 2.581-4.973 2.602-7.854-.025-2.882-.958-5.679-2.606-7.85-.386-.56-.861-1.043-1.311-1.536-.496-.445-.975-.908-1.517-1.278a12.454 12.454 0 0 0-3.38-1.797c-2.353-.879-4.82-.938-7.002-.551-2.194.4-4.089 1.367-5.586 2.503a13.082 13.082 0 0 0-3.345 3.774c-.744 1.291-1.211 2.503-1.425 3.525-.143.505-.193.968-.248 1.363a6.004 6.004 0 0 0-.084 1.014 44.94 44.94 0 0 1-.013.622c0 .139 0 .215.013.215Z" />
            <path fill="#455A64"
                d="M424.264 212.206c.054.034.21-.168.517-.4a2.562 2.562 0 0 1 1.349-.534 2.61 2.61 0 0 1 1.416.32c.341.181.526.358.572.315.042-.029-.067-.281-.408-.559a2.316 2.316 0 0 0-3.127.244c-.294.324-.361.593-.315.614" />
            <path fill="#1B1B1B"
                d="M453.58 211.053c-.025.114 3.543.955 7.969 1.885s8.032 1.59 8.053 1.481c.025-.114-3.543-.955-7.969-1.885-4.426-.929-8.028-1.59-8.053-1.481Z" />
            <path fill="#fff"
                d="M447.532 223.564s.307-.05.786-.332c.475-.282 1.105-.795 1.727-1.561a11.392 11.392 0 0 0 1.74-2.974c.454-1.224.761-2.642.757-4.148.008-3.029-1.106-5.641-2.236-7.231a10.597 10.597 0 0 0-1.509-1.759c-.416-.357-.652-.542-.673-.521-.067.067.908.816 1.934 2.444 1.042 1.594 2.072 4.139 2.068 7.067 0 1.456-.286 2.831-.702 4.014a11.766 11.766 0 0 1-1.614 2.927c-.576.766-1.156 1.292-1.585 1.607-.437.312-.714.434-.697.467M441.753 225.613c.012.109 1.097.067 2.366-.345 1.269-.404 2.173-1.001 2.119-1.098-.055-.105-1.022.311-2.249.703-1.223.395-2.253.622-2.236.74ZM411.037 202.404c0 .072.891.072 2.278.375 1.383.294 3.261.963 4.997 2.238 1.74 1.274 2.934 2.869 3.628 4.093.697 1.228.966 2.078 1.033 2.053.026-.009-.012-.227-.13-.614a9.543 9.543 0 0 0-.647-1.582c-.639-1.292-1.837-2.966-3.636-4.287-1.799-1.321-3.761-1.964-5.19-2.192a10.27 10.27 0 0 0-1.707-.147c-.403 0-.626.034-.626.059M422.309 217.381c.093.054.652-.817.866-2.049.223-1.233 0-2.238-.105-2.221-.122.012-.092.984-.307 2.145-.201 1.165-.563 2.07-.454 2.12" />
            <path fill="#1B1B1B"
                d="M451.878 311.482c.227.143 1.076-.661 2.257-2.377 1.189-1.708 2.606-4.396 3.866-7.9 1.278-3.505 2.287-7.833 2.947-12.667.664-4.834.962-10.155 1.13-15.687.173-5.515.324-10.719.728-15.405.399-4.682 1.021-8.851 1.832-12.288 1.576-6.891 3.703-10.845 3.131-11.173-.231-.139-1.063.681-2.215 2.414-1.16 1.729-2.53 4.434-3.749 7.955-1.231 3.517-2.194 7.854-2.82 12.688-.631 4.834-.904 10.155-1.072 15.679-.172 5.506-.349 10.706-.782 15.384-.432 4.678-1.097 8.834-1.954 12.254-1.664 6.866-3.871 10.778-3.304 11.119" />
            <path fill="#CACACA"
                d="M476.428 230.253c-.026.03.248.219.613.669.353.446.79 1.199.896 2.217a3.873 3.873 0 0 1-1.177 3.21c-.938.942-2.484 1.518-3.993 1.115-1.505-.371-2.694-1.494-3.148-2.743-.484-1.258-.358-2.545 0-3.492.353-.963.966-1.59 1.475-1.838.513-.261.862-.181.862-.227 0-.013-.08-.042-.24-.051a1.615 1.615 0 0 0-.689.131c-.572.222-1.274.87-1.681 1.876-.412.993-.589 2.364-.085 3.735.48 1.372 1.762 2.609 3.409 3.012a4.49 4.49 0 0 0 2.434-.063 4.77 4.77 0 0 0 1.929-1.182 4.325 4.325 0 0 0 1.063-1.746 4.118 4.118 0 0 0 .135-1.771 4.226 4.226 0 0 0-1.064-2.288c-.42-.433-.727-.581-.735-.564M545.933 260.332l-1.042-13.243-2.707-16.718-4.199-13.693s-.853-1.296-2.513-.067c-1.66 1.228.702 8.691.702 8.691l.899 5.708s-.559 4.54-.933 4.203c-.374-.337-2.324-7.963-2.324-7.963l-5.023-16.289s-.962-1.712-2.946-.846c-1.101.48-1.669 2.213-1.257 4.662.408 2.452 1.942 6.495 2.207 7.883.264 1.388 2.068 9.377 2.068 9.377l-7.663-17.997s-1.702-5.94-4.144-4.8c-2.442 1.14-.277 5.305.042 7.169.32 1.863 5.359 14.134 5.435 17.702.075 3.563-.681 1.859-.681 1.859l-3.758-10.142c-1.656-4.472-3.69-6.946-5.728-7.063-2.035-.122 1.799 10.239 1.799 10.239l5.001 14.513-.328 4.825-3.795-3.908s-.702-5.574-4.464-7.526c-3.82-1.985-4.379.762-4.379.762l8.881 20.912c1.929 3.365 12.693 9.162 12.693 9.162l4.136 21.48 22.49-3.749-8.465-25.152-.004.009Z" />
            <path fill="#1B1B1B"
                d="M537.279 253.369c-.101.118-1.265-.833-3.241-2.162-1.937-1.275-4.976-3.016-8.507-2.473-1.555.222-2.95.904-3.866 1.888l-.337.362-.369-.391c-1.631-1.721-3.338-3.189-4.376-4.27-1.084-1.068-1.643-1.809-1.542-1.885.071-.05.735.514 1.925 1.464 1.181 1.002 2.841 2.234 4.724 4.123l-.706-.029c1.038-1.183 2.66-1.99 4.4-2.238 1.93-.295 3.808.058 5.334.689 1.534.623 2.761 1.456 3.728 2.196 1.921 1.515 2.909 2.642 2.833 2.726Z" />
            <path fill="#CACACA" d="m540.536 337.252-12.029-66.938 18.208-7.896 24.571 73.779-30.75 1.055Z" />
            <path fill="#1B1B1B"
                d="M542.23 337.867c-.059.012-.34-.951-.807-2.701a293.744 293.744 0 0 1-1.832-7.455c-1.488-6.305-3.392-15.056-5.355-24.744a1274.104 1274.104 0 0 1-4.779-24.862l-1.319-7.559c-.29-1.788-.425-2.785-.366-2.794.059-.012.303.964.698 2.731.407 1.914.941 4.446 1.593 7.504l5.031 24.808c1.979 9.608 3.77 18.303 5.102 24.786.639 3.063 1.164 5.595 1.564 7.509.361 1.775.533 2.764.474 2.777" />
            <path fill="#263238"
                d="M66.579 207.983c-2.497-7.383-4.968-14.825-6.158-22.528-1.194-7.702-1.055-15.754 1.568-23.095.4-1.111 3.812-8.586 4.989-8.485.84.072-1.236 7.03-.803 7.757 4.14 6.916 5.342 15.279 4.796 23.323-.547 8.043-2.131 15.291-4.392 23.028Z" />
            <path fill="#CACACA"
                d="m67.39 248.317-1.942-70.068c-.874-19.532 9.755-36.321 29.287-36.658l1.807.076c18.182.753 32.75 15.346 33.46 33.549.664 16.932 1.177 35.652.694 44.705-1.005 18.737-19.86 20.874-19.86 20.874-.042 0-.168 19.465-.155 24.972L97.374 279.91l.765-4.283-30.754-27.31h.005Z" />
            <path fill="#1B1B1B"
                d="M110.837 240.8s-11.832.206-24.088-8.225c0 0 5.283 14.337 24.041 13.42l.047-5.195ZM123.794 190.874c-.008 1.413-1.214 2.574-2.69 2.595-1.475.017-2.664-1.11-2.656-2.528.008-1.414 1.211-2.579 2.686-2.596 1.475-.016 2.669 1.115 2.66 2.529ZM125.677 183.331c-.344.336-2.311-1.25-5.19-1.359-2.875-.151-5.048 1.241-5.343.875-.147-.164.219-.778 1.165-1.409.933-.631 2.505-1.216 4.295-1.132 1.795.084 3.274.808 4.111 1.519.857.715 1.13 1.359.962 1.51M98.202 190.874c-.008 1.413-1.214 2.574-2.69 2.595-1.475.021-2.664-1.11-2.656-2.528.008-1.414 1.215-2.579 2.69-2.596 1.48-.016 2.669 1.115 2.66 2.529M97.437 182.835c-.349.336-2.316-1.25-5.19-1.359-2.875-.152-5.048 1.241-5.347.875-.147-.164.215-.779 1.165-1.41.933-.631 2.505-1.215 4.295-1.135 1.79.084 3.274.807 4.115 1.518.853.715 1.13 1.359.962 1.511ZM106.848 205.395c-.009-.164 1.794-.399 4.707-.652.74-.046 1.442-.164 1.585-.66.193-.522-.08-1.329-.4-2.2-.618-1.809-1.265-3.706-1.941-5.692-2.69-8.098-4.603-14.749-4.279-14.854.328-.105 2.774 6.373 5.46 14.475l1.849 5.722c.244.849.681 1.817.26 2.902-.218.543-.777.917-1.252 1.027-.475.126-.891.113-1.257.122-2.925.038-4.732-.026-4.737-.19M98.74 173.861c-.42.72-3.181-.168-6.578-.382-3.391-.282-6.254.197-6.565-.577-.134-.366.467-1.005 1.686-1.552 1.21-.547 3.055-.938 5.09-.791 2.034.152 3.803.808 4.921 1.523 1.131.719 1.631 1.439 1.442 1.779M126.161 174.867c-.614.639-2.942-.101-5.763-.21-2.811-.19-5.216.302-5.749-.396-.232-.336.159-.984 1.218-1.577 1.043-.589 2.779-1.048 4.712-.951 1.938.101 3.598.74 4.56 1.438.98.699 1.286 1.385 1.017 1.696" />
            <path fill="#CACACA"
                d="M66.402 192.195c-.315-.152-12.71-4.342-12.832 8.489-.121 12.83 12.778 10.306 12.803 9.936.025-.366.03-18.43.03-18.43" />
            <path fill="#1B1B1B"
                d="M62.502 205.728c-.055-.042-.227.155-.606.324a2.235 2.235 0 0 1-1.668.016c-1.35-.509-2.472-2.671-2.51-4.985a7.349 7.349 0 0 1 .656-3.192c.4-.934 1.013-1.586 1.698-1.7.681-.151 1.16.261 1.312.627.168.362.084.614.151.639.034.034.277-.214.18-.744a1.415 1.415 0 0 0-.495-.808c-.303-.253-.757-.387-1.232-.337-.987.059-1.887.964-2.353 1.969a7.607 7.607 0 0 0-.807 3.572c.058 2.587 1.357 5.018 3.206 5.574.9.244 1.657-.021 2.047-.32.4-.311.471-.597.425-.623M121.718 153.955c2.076-1.144-4.148-7.875-9.247-10.193-7.704-3.504-19.472-5.667-26.58-3.652-8.557 2.424-15.668 6.681-19.968 14.472-4.3 7.791-5.918 16.869-5.674 25.77.075 2.714.357 5.545 1.803 7.842 1.79 2.839 5.224 4.627 5.073 8.54-.055 1.43.353 2.873 1.328 3.916 2.345 2.499 5.216.156 6.536-2.2 2.82-5.023 3.14-11.026 3.387-16.785.177-4.093.345-8.275-.802-12.204-.627-2.137-1.631-4.16-2.14-6.331-.508-2.171-.441-4.636.912-6.407.219-.286.585-.652 1.043-1.056 3.631-3.184 8.717-4.135 13.269-2.52 7.22 2.562 19.548 6.386 22.767 3.934 4.636-3.526 5.746-5.827 5.746-5.827l2.547 2.697v.004ZM97.807 207.179c.441-.029.458 2.92 2.988 4.998 2.526 2.086 5.662 1.741 5.687 2.154.042.185-.698.576-2.022.618-1.298.05-3.198-.358-4.745-1.632-1.542-1.275-2.21-2.983-2.316-4.194-.117-1.233.206-1.965.408-1.948" />
            <path fill="#00ff66"
                d="M63.594 249.432s-30.11-7.757-47.363 11.779c-6.448 7.303-9.449 17.029-8.78 26.751a9474.37 9474.37 0 0 1 1.698 25.131c1.034 15.603 4.446 54.141 12.688 63.333 8.243 9.192 30.414 4.72 38.193 1.661 7.78-3.058 19.847-2.191 25.815-7.845 5.969-5.65 14.904-9.133 24.256-12.873 9.352-3.736 5.611-8.7 5.611-8.7l-13.984-29.611-50.68 10.13s-2.084-19.524.08-25.409c2.165-5.885 5.822-13.537 7.003-22.523 1.18-8.986 5.46-31.828 5.46-31.828" />
            <path fill="#263238"
                d="M51.654 324.321c.033.097-1.379.585-3.468 1.746-1.05.572-2.24 1.354-3.497 2.305a30.966 30.966 0 0 0-3.757 3.483 31.607 31.607 0 0 0-3.077 4.102c-.82 1.35-1.47 2.616-1.933 3.719-.942 2.2-1.282 3.655-1.379 3.63-.033-.008.03-.374.177-1.035.071-.332.168-.736.323-1.19.148-.459.295-.989.534-1.548.425-1.136 1.055-2.445 1.862-3.833a28.981 28.981 0 0 1 3.098-4.202 28.826 28.826 0 0 1 3.858-3.517c1.295-.951 2.53-1.712 3.615-2.251.53-.294 1.042-.496 1.483-.69a9.213 9.213 0 0 1 1.152-.441c.643-.215 1-.32 1.013-.287" />
            <g opacity=".3">
                <mask id="j" width="24" height="25" x="28" y="324" maskUnits="userSpaceOnUse"
                    style="mask-type:luminance">
                    <path fill="#fff" d="M51.654 324.073H28.609v24.226h23.045v-24.226Z" />
                </mask>
                <g mask="url(#j)">
                    <path fill="#000"
                        d="M49.918 324.262c-10.083 1.783-18.737 9.957-21.107 19.927-.332 1.405-.37 3.231.903 3.904.946.501 2.165.013 2.854-.799.694-.816.996-1.881 1.328-2.899 2.871-8.792 9.44-16.305 17.762-20.327l-1.736.194h-.004Z" />
                </g>
            </g>
            <path fill="#fff"
                d="M54.285 246.786h5.544l6.338-9.276 26.008 21.316 6.296 10.525 3.245-9.777 9.116-6.184 2.182 6.428 7.069 3.252-8.86 22.187-7.12 8.632s-11.008 8.14-25.617-5.267l-14.61-13.407-9.595-28.429h.004Z" />
            <path fill="#1B1B1B" d="m95.529 264.967-4.489 22.296 4.026 4.788 12.622-1.641-7.38-26.574-4.78 1.131Z" />
            <path fill="#00ff66"
                d="M54.285 246.786s29.064 43.986 40.828 39.829c11.764-4.156 23.444-24.727 23.444-24.727s25.576 8.107 33.532 16.764c7.956 8.658 21.276 59.45 21.276 59.45H93.583l-42.572-9.137s-7.923-29.401-7.923-31.479c0-2.078-4.884-48.475-4.884-48.475l16.08-2.234v.009Z" />
            <path fill="#263238"
                d="M108.727 357.609c.021.038-.564.387-1.669 1.005l-.114.063-.05-.126c-1.11-2.717-3.354-8.548-5.88-15.317a994.18 994.18 0 0 1-4.472-12.182c-.521-1.494-.958-2.743-1.299-3.715-.294-.879-.441-1.376-.407-1.388.033-.013.248.454.6 1.316.383.955.87 2.184 1.455 3.656a973.01 973.01 0 0 1 4.615 12.132c2.53 6.769 4.661 12.646 5.607 15.423l-.164-.064c1.139-.555 1.756-.833 1.778-.795M21.602 271.825c.017-.034.425.164 1.152.542.719.391 1.748.98 2.98 1.775 2.471 1.574 5.724 4.01 9.036 7.013a94.328 94.328 0 0 1 4.527 4.379c1.337 1.393 2.572 2.646 3.396 3.887.845 1.225 1.253 2.394 1.37 3.214.063.413.067.737.055.951-.017.219-.034.332-.05.328-.051 0-.03-.458-.206-1.241-.177-.782-.614-1.88-1.472-3.041-.832-1.178-2.08-2.385-3.433-3.761a123.247 123.247 0 0 0-4.535-4.329c-3.296-2.987-6.486-5.448-8.89-7.092-1.194-.833-2.19-1.464-2.875-1.91-.693-.434-1.067-.69-1.046-.72" />
            <path fill="#263238"
                d="M116.477 350.285s-.118-.189-.316-.572c-.205-.417-.487-.98-.84-1.696-.736-1.522-1.786-3.685-3.102-6.402-2.639-5.536-6.351-13.319-10.709-22.452l.269.135c-6.633 1.333-13.92 2.797-21.574 4.333-10.71 2.124-20.709 4.11-29.11 5.78l-.219.042-.046-.219-3.88-19.103-1.046-5.342c-.11-.589-.194-1.056-.26-1.41-.055-.319-.076-.483-.068-.488.013 0 .055.16.135.476.08.349.189.812.323 1.396.278 1.267.673 3.055 1.169 5.318.987 4.632 2.383 11.186 4.064 19.065l-.265-.173c8.393-1.691 18.388-3.702 29.093-5.855 7.654-1.523 14.946-2.975 21.583-4.291l.189-.038.08.172c4.287 9.167 7.935 16.979 10.537 22.536 1.261 2.743 2.265 4.926 2.976 6.462.327.727.584 1.3.773 1.724.172.396.252.602.244.606" />
            <path fill="#CACACA"
                d="M102.46 320.19s16.472-6.138 23.781-5.389c7.309.749 35.835 23.305 35.835 23.305l-37.126-.214-3.223-2.949-8.272 8.931-10.991-23.684h-.004Z" />
        </g>
    </g>
</svg>