<svg xmlns="http://www.w3.org/2000/svg" fill="none" viewBox="0 0 721 462"><g clip-path="url(#a)"><path fill="#E6E6E6" d="M-1.274 28H631c49.705 0 90 40.294 90 90v316H88.726c-49.706 0-90-40.294-90-90V28Z"/><mask id="b" width="993" height="560" x="-136" y="-49" maskUnits="userSpaceOnUse" style="mask-type:luminance"><path fill="#fff" d="M856.028-48.364h-991.056v558.728h991.056V-48.364Z"/></mask><g mask="url(#b)"><mask id="c" width="993" height="560" x="-136" y="-49" maskUnits="userSpaceOnUse" style="mask-type:luminance"><path fill="#fff" d="M856.028-48.364h-991.056v558.728h991.056V-48.364Z"/></mask><g mask="url(#c)"><path fill="#fff" d="M229.262 369.875c0 40.87-33.055 74-73.833 74s-73.834-33.13-73.834-74 33.056-74 73.834-74c40.778 0 73.833 33.13 73.833 74Z"/></g><mask id="d" width="149" height="149" x="81" y="295" maskUnits="userSpaceOnUse" style="mask-type:luminance"><path fill="#fff" d="M81.6 369.87c0 40.869 33.056 74 73.834 74 40.778 0 73.834-33.131 73.834-74 0-40.87-33.056-74.001-73.834-74.001-40.778 0-73.834 33.131-73.834 74.001Z"/></mask><g mask="url(#d)"><path fill="#1B1B1B" d="m115.461 395.173 2.834-19.39c1.435-9.804 3.241-23.094 7.871-31.677 6.824-12.649 25.334-17.6 38.91-14.718 12.347 2.617 18.701 6.689 23.233 19.172 4.532 12.489 3.484 33.219 1.982 46.426-.212 1.884-.511 3.891-1.724 5.277-1.28 1.459-3.273 1.883-5.131 2.23-9.023 1.687-18.051 3.378-27.073 5.065l-15.682-4.18c-6.87 1.635-14.164 1.319-20.931-.906-1.579-.517-3.267-1.267-4.036-2.819-.671-1.356-.47-2.975-.248-4.475"/><path fill="#CACACA" d="M184.66 354.505c-1.126-9.866-12.001-19.132-21.52-17.517l-18.819 4.863c-6.866 1.774-11.491 8.417-10.912 15.675l3.695 11.102 2.617 46.783-1.548.673s3.783 21.112 21.142 18.857c15.594-2.028 10.871-20.927 10.871-20.932l-.852-12.287s15.48-1.795 17.153-18.453c.831-8.283-.583-17.812-1.833-28.775"/><path fill="#1B1B1B" d="M181.558 370.666c.098 1.118-.739 2.121-1.869 2.256-1.125.129-2.121-.668-2.22-1.78-.098-1.117.739-2.126 1.864-2.255 1.13-.13 2.121.667 2.219 1.784M182.357 363.837c-.222.259-1.626-.77-3.592-.698-1.967.047-3.402 1.159-3.619.916-.108-.109.119-.569.744-1.076.614-.502 1.662-1.004 2.89-1.045 1.229-.037 2.266.403 2.865.869.614.465.821.915.712 1.029M163.378 371.903c.098 1.117-.738 2.121-1.869 2.255-1.125.13-2.121-.667-2.219-1.779-.099-1.113.738-2.127 1.863-2.256 1.13-.129 2.121.667 2.219 1.785M162.098 364.479c-.222.259-1.626-.771-3.593-.698-1.967.046-3.402 1.158-3.618.915-.109-.108.118-.569.743-1.076.614-.502 1.662-1.003 2.891-1.045 1.228-.036 2.266.404 2.864.869.615.466.821.916.713 1.03M169.35 379.709c-.016-.098 1.352-.382 3.567-.765.562-.088 1.094-.212 1.176-.528.119-.331-.134-.802-.428-1.304a2199.04 2199.04 0 0 0-1.801-3.295c-.677-1.2-4.037-7.993-4.099-8.666.243-.088 2.478 3.648 4.981 8.345.604 1.159 1.182 2.266 1.735 3.321.232.497.624 1.045.361 1.739-.139.346-.542.615-.903.719-.357.114-.677.14-.955.176-2.235.253-3.624.357-3.634.258ZM169.458 401.753s-10.736 1.361-21.762-4.614c0 0 5.993 11.443 21.943 8.944l-.181-4.33ZM162.371 358.799c-.217.719-2.147.31-4.444.61-2.297.238-4.171 1.092-4.45.429-.123-.315.222-.988.992-1.66.763-.678 1.961-1.304 3.339-1.464 1.378-.161 2.622.181 3.438.672.821.492 1.223 1.076 1.13 1.418M182.626 356.709c-.33.662-1.998.248-3.913.475-1.92.151-3.479.89-3.928.306-.201-.29-.02-.931.615-1.604.624-.667 1.734-1.293 3.05-1.428 1.316-.129 2.524.264 3.268.802.753.533 1.053 1.128.908 1.449Z"/><path fill="#1B1B1B" d="M132.505 363.734c-.382-3.983-.536-5.432-.031-9.405.501-3.973 2.87-8.324 5.694-11.087 2.255-2.204 5.822-5.085 8.79-6.032 4.661-1.49 7.01-2.876 16.11-1.702 3.846.497 4.408-.124 7.98 1.397l2.493 1.174c-1.879 7.072-23.171 23.57-30.764 26.653-.242 2.577-.284 4.434-.81 6.969-.227 1.097-.625 2.225-1.466 2.939-1.063.895-2.653.9-3.877.279-1.223-.626-1.579-1.469-2.214-2.716-1.337-2.623-1.621-5.51-1.9-8.464"/><path fill="#CACACA" d="M136.857 369.513s-9.756-3.208-8.848 6.839c.909 10.052 10.52 6.994 10.51 6.705-.011-.29-1.662-13.544-1.662-13.544Z"/><path fill="#1B1B1B" d="M135.195 379.549c-.047-.026-.16.14-.434.305a1.67 1.67 0 0 1-1.27.156c-1.068-.285-2.085-1.884-2.297-3.689-.108-.911 0-1.801.248-2.556.232-.765.645-1.324 1.156-1.474a.856.856 0 0 1 1.048.377c.155.269.114.476.165.487.031.02.196-.187.078-.595a1.116 1.116 0 0 0-.439-.59c-.253-.171-.604-.238-.965-.16-.749.129-1.363.91-1.637 1.738a6.192 6.192 0 0 0-.335 2.861c.248 2.017 1.425 3.813 2.875 4.092.702.114 1.254-.155 1.528-.424.279-.28.31-.507.274-.523M168.38 384.634c.025.083-.429.337-1.25.388-.805.057-1.997-.144-3.035-.9-1.042-.755-1.605-1.826-1.801-2.612-.201-.797-.108-1.309-.021-1.309.109-.01.202.465.501 1.138.294.673.852 1.547 1.739 2.194.888.646 1.895.905 2.623.977.733.078 1.213.021 1.238.124M146.865 360.014c-4.903 14.165-4.821 30.006.233 44.114-1.637-.507-3.392-.321-5.105-.398-1.709-.073-3.562-.502-4.615-1.853-.919-1.179-1.017-2.788-1.063-4.283a227.444 227.444 0 0 1 1.724-35.816"/><path fill="#1B1B1B" d="M141.998 403.735s-.021-.295-.119-.838l-.449-2.375c-.429-2.116-1.022-5.07-1.755-8.696-.62-3.668-.682-8.148-.625-13.089.078-4.951.325-10.388.718-16.089.046-.621.087-1.242.134-1.816l-.191.253c5.182-1.966 9.745-4.666 13.56-7.501 3.83-2.83 6.968-5.743 9.492-8.267a131.21 131.21 0 0 0 5.776-6.157 79.826 79.826 0 0 0 1.492-1.733c.336-.403.506-.621.49-.631-.015-.01-.211.176-.572.554-.398.419-.919.972-1.575 1.66a187.665 187.665 0 0 1-5.9 6.017c-2.555 2.478-5.709 5.344-9.523 8.127-3.804 2.794-8.326 5.443-13.447 7.383l-.175.067-.016.186c-.041.58-.087 1.201-.134 1.821-.392 5.712-.624 11.165-.671 16.126-.026 4.961.073 9.447.759 13.177.81 3.616 1.466 6.559 1.941 8.67l.557 2.349c.135.533.212.812.233.807"/><path fill="#8FFF71" d="M134.648 360.356c.242-.512.789-.833 1.347-.937.557-.108 1.13-.036 1.693.037 2.627.326 5.301.672 7.691 1.8 1.45.481 1.037 1.836.821 2.24-.212.404-.656.641-1.105.714-.449.072-.909.01-1.358-.057-1.971-.285-3.943-.574-5.915-.859-.836-.124-1.703-.253-2.395-.74-.692-.486-1.136-1.433-.779-2.198Z"/><g opacity=".3"><mask id="e" width="6" height="4" x="155" y="375" maskUnits="userSpaceOnUse" style="mask-type:luminance"><path fill="#fff" d="M160.776 375.328h-5.538v3.502h5.538v-3.502Z"/></mask><g mask="url(#e)"><path fill="#E4E4E4" d="M155.558 376.347c.397-.58 1.187-.823 1.863-1.004.557-.016 1.12-.031 1.662.088.542.119 1.074.383 1.404.833.33.45.413 1.102.108 1.567-.242.373-.671.569-1.089.709a6.207 6.207 0 0 1-2.178.295c-.666-.031-1.394-.207-1.796-.745-.424-.564-.372-1.154.02-1.738"/></g></g><path fill="#8FFF71" d="m191.602 427.263 5.668 77.565s-20.596 16.188-45 12.815c-24.4-3.373-33.392-19.887-33.392-19.887s2.271-31.708 2.695-42.986c.516-13.704.841-40.766.841-40.766l17.478-6.813s7.737 9.187 17.498 7.837c9.761-1.35 12.961-7.837 12.961-7.837l9.782.263 11.474 19.809h-.005Z"/><path fill="#8FFF71" d="M179.968 407.449s6.302.021 14.329 4.667c4.325 2.503 21.524 22.638 21.524 22.638s-10.551 31.76-10.551 31.243l-16.982-16.571-8.326-41.977h.006ZM122.873 413.828s-5.094.316-13.172 9.297c-2.313 2.571-14.66 19.441-14.66 19.441l23.507 18.806 7.872-13.539 2.544-24.657-6.091-9.348Z"/><path fill="#1B1B1B" d="m197.9 514.932-1.043-21.904-6.478-2.991-4.026-46.565-49.471 2.602-4.686 48.304-13.318 3.378-2.297 20.218 19.997 15.804 29.133 1.884 22.376-3.472 9.813-17.258Z"/><path fill="#1B1B1B" d="M137.579 408.236s3.516 11.029 6.675 28.51c1.961 10.854 1.182 14.025 1.182 14.025l-8.621.347s.315-11.201-1.62-20.927c-2.132-10.693-5.807-19.136-5.807-19.136 1.863-1.888 8.465-2.861 8.191-2.819ZM179.265 407.191s2.53 5.018 4.491 23.357c1.172 10.968 1.678 16.467 1.678 16.467l-7.077.202s-.821-11.009-2.018-20.854c-1.389-11.402-3.964-19.167-3.964-19.167 4.707-1.195 6.89 0 6.89 0"/></g><mask id="f" width="993" height="560" x="-136" y="-49" maskUnits="userSpaceOnUse" style="mask-type:luminance"><path fill="#fff" d="M856.028-48.364h-991.056v558.728h991.056V-48.364Z"/></mask><g mask="url(#f)"><path fill="#1B1B1B" d="M229.175 423.057c1.032 10.435-6.757 19.711-17.395 20.725-10.644 1.014-20.111-6.622-21.143-17.052-1.032-10.429 6.757-19.71 17.395-20.724 10.644-1.014 20.11 6.622 21.143 17.051Z"/><path fill="#8FFF71" d="M228.457 421.521c1.032 10.435-6.757 19.711-17.395 20.725-10.644 1.014-20.11-6.622-21.143-17.052-1.032-10.43 6.757-19.711 17.396-20.725 10.643-1.014 20.11 6.622 21.142 17.052Z"/><path fill="#3F3F3F" d="M223.765 421.769c.769 7.75-5.182 14.662-13.291 15.432-8.11.771-15.305-4.883-16.074-12.638-.769-7.75 5.182-14.662 13.291-15.432 8.11-.771 15.305 4.883 16.074 12.638Z"/><path fill="#CACACA" d="M210.468 437.145c-7.964.76-15.062-4.848-16.053-12.577.011.135.016.274.031.409.79 7.946 7.996 13.761 16.105 12.99 8.104-.771 14.04-7.838 13.25-15.784-.015-.14-.036-.274-.051-.409.547 7.776-5.317 14.615-13.282 15.376"/><path fill="#1B1B1B" d="M207.697 409.193c7.964-.761 15.062 4.847 16.053 12.576-.011-.134-.016-.274-.031-.409-.79-7.946-7.996-13.761-16.105-12.99-8.104.771-14.04 7.838-13.25 15.784.015.14.036.274.051.409-.547-7.776 5.317-14.615 13.282-15.376"/><path fill="#1B1B1B" d="M217.138 426.534c-.202-2.018-1.311-3.239-2.814-3.632.976-.745 1.554-1.986 1.399-3.585-.196-1.987-1.466-3.29-3.649-3.554l-.243-2.452-2.307.222.227 2.282-1.311.124-.227-2.277-2.313.223.228 2.281-2.106.202-1.466.14.222 2.266 1.466-.14 1.094 11.014-1.621.155.222 2.266 1.621-.155 2.106-.202.263 2.649 2.313-.222-.264-2.649 1.311-.124.264 2.649 2.312-.223-.274-2.737c2.571-.605 3.779-2.209 3.552-4.511m-9.968-8.194 3.128-.3c1.735-.166 2.788.45 2.932 1.893.14 1.423-.774 2.224-2.508 2.39l-3.552.336-.423-4.283.423-.042v.006Zm4.723 10.667-3.783.362-.269.026-.443-4.485 4.052-.388c1.889-.181 2.983.408 3.133 1.966.155 1.552-.8 2.338-2.69 2.519Z"/><path fill="#8FFF71" d="M216.038 426.182c-.202-2.018-1.311-3.238-2.813-3.632.975-.745 1.553-1.986 1.398-3.585-.196-1.986-1.465-3.29-3.649-3.554l-.243-2.452-2.307.222.227 2.282-1.311.124-.227-2.281-2.312.222.227 2.281-2.106.202-1.466.14.222 2.266 1.466-.14 1.094 11.014-1.621.156.222 2.265 1.621-.155 2.106-.201.263 2.648 2.313-.222-.264-2.649 1.311-.124.264 2.649 2.312-.223-.273-2.737c2.57-.605 3.778-2.209 3.551-4.511m-9.967-8.194 3.128-.3c1.734-.166 2.787.45 2.931 1.893.14 1.423-.774 2.225-2.508 2.39l-3.551.336-.424-4.283.424-.042v.006Zm4.723 10.667-3.784.362-.268.026-.444-4.485 4.052-.388c1.889-.181 2.978.409 3.133 1.966.155 1.557-.8 2.338-2.689 2.519Z"/><path fill="#fff" d="M434.334 369.875c0 40.87-33.056 74-73.834 74-40.778 0-73.834-33.13-73.834-74s33.056-74 73.834-74c40.778 0 73.834 33.13 73.834 74Z"/></g><mask id="g" width="149" height="149" x="286" y="295" maskUnits="userSpaceOnUse" style="mask-type:luminance"><path fill="#fff" d="M286.666 369.87c0 40.869 33.056 74 73.834 74 40.778 0 73.834-33.131 73.834-74 0-40.87-33.056-74.001-73.834-74.001-40.778 0-73.834 33.131-73.834 74.001Z"/></mask><g mask="url(#g)"><path fill="#1B1B1B" d="M348.489 325.544c.01-2.587 2.56-5.877 4.614-7.445 2.055-1.567 4.584-2.39 7.118-2.902 13.08-2.664 27.461 2.752 35.549 13.394 1.683 2.219 3.154 4.765 3.263 7.553.113 2.784-1.508 5.794-4.207 6.477 1.837 1.113 2.978 3.28 2.859 5.427-.118 2.147-1.491 4.175-3.432 5.081 1.285 3.745-.8 7.801-3.268 10.89-9.616 12.028-25.705 17.496-41.087 17.299-5.244-.067-10.726-.807-15.021-3.833-6.23-4.392-8.527-12.494-9.73-20.037-.464 1.682-2.57 2.561-4.212 1.982-1.641-.585-2.694-2.323-2.792-4.061-.098-1.744.635-3.446 1.693-4.832-1.11.362-2.266.729-3.427.61-1.162-.119-2.349-.864-2.597-2.012-.248-1.139.485-2.282 1.399-3.001.914-.719 2.013-1.164 2.947-1.857 3.474-2.566 3.737-7.548 5.343-11.563 1.858-4.645 5.941-8.339 10.741-9.715 4.801-1.376 10.215-.409 14.242 2.55"/><path fill="#CACACA" d="M389.525 345.674c-1.859-10.109-14.025-18.966-24.023-16.674l-32.096 10.207.764 5.468 10.148 67.617s5.435 21.552 23.718 18.086c16.42-3.115 13.416-20.533 13.41-20.539l-1.486-9.508s12.729-3.72 13.384-21.025c.331-8.603-1.75-22.396-3.814-33.632"/><path fill="#1B1B1B" d="M384.12 359.844c.176 1.143-.64 2.24-1.832 2.447-1.187.207-2.297-.549-2.473-1.692-.175-1.143.64-2.24 1.828-2.447 1.187-.207 2.296.548 2.477 1.697M387.449 353.868c-.237.316-2.028-.708-4.366-.419-2.339.254-3.913 1.666-4.197 1.407-.139-.113.072-.657.754-1.293.671-.631 1.863-1.309 3.319-1.48 1.455-.165 2.746.223 3.515.688.784.466 1.089.952.97 1.092M362.813 362.632c.175 1.143-.645 2.24-1.833 2.447-1.187.207-2.297-.548-2.472-1.692-.181-1.143.64-2.24 1.832-2.452 1.187-.207 2.297.549 2.478 1.697M364.924 357.334c-.238.316-2.029-.703-4.367-.419-2.338.254-3.913 1.666-4.197 1.408-.139-.114.073-.658.754-1.294.671-.631 1.863-1.309 3.319-1.479 1.456-.166 2.746.222 3.515.688.785.465 1.089.952.976 1.091M375.025 372.818c-.026-.108 1.404-.507 3.727-1.065.588-.13 1.141-.3 1.203-.662.098-.383-.212-.901-.568-1.454-.697-1.159-1.425-2.37-2.194-3.642-3.061-5.189-5.337-9.488-5.084-9.607.253-.114 2.937 3.999 6.003 9.188.738 1.283 1.45 2.504 2.121 3.673.289.548.754 1.153.532 1.95-.119.398-.526.73-.898.869-.372.15-.707.197-1.001.249-2.354.408-3.825.605-3.846.491M379.955 400.331s-11.31 2.105-23.414-3.342c0 0 7.288 11.05 24.054 7.423l-.64-4.081ZM368.645 373.036c.377-.067.687 2.473 3.077 4.02 2.384 1.552 5.053.941 5.12 1.293.057.155-.542.569-1.683.734-1.115.171-2.792.011-4.253-.936-1.456-.947-2.204-2.354-2.416-3.388-.222-1.051-.015-1.718.16-1.723M364.934 352.508c-.211.858-2.575.501-5.327 1.003-2.761.43-4.965 1.552-5.347.797-.171-.362.201-1.174 1.084-2.018.877-.843 2.281-1.655 3.938-1.935 1.652-.274 3.18.042 4.197.57 1.027.522 1.548 1.184 1.46 1.588M386.593 348.178c-.295.91-2.555.729-5.002 1.417-2.473.59-4.352 1.847-5.059 1.2-.32-.32-.222-1.174.47-2.157.676-.978 1.992-2.002 3.686-2.442 1.693-.44 3.344-.186 4.423.336 1.089.518 1.605 1.211 1.487 1.651M358.678 370.966c-.062.078-.206.073-.325-.015-.119-.088-.165-.228-.103-.311.062-.077.206-.072.325.016.119.088.165.228.103.31ZM362.436 370.687c-.103.005-.196-.207-.212-.481-.015-.269.052-.497.155-.502.103-.005.196.207.212.481.015.269-.052.497-.155.502ZM365.843 369.456c-.104 0-.186-.135-.186-.3 0-.171.077-.306.18-.306.104 0 .186.135.186.301 0 .17-.077.305-.18.305ZM361.486 374.417c-.078.067-.258-.016-.408-.186-.15-.171-.206-.362-.134-.43.077-.067.258.016.408.187.149.17.206.362.134.429ZM364.439 373.082c-.099-.01-.166-.16-.15-.331.02-.171.113-.3.217-.289.098.01.165.16.149.331-.02.17-.113.3-.216.289ZM384.786 367.676c-.093.036-.237-.103-.392-.264-.15-.165-.279-.321-.238-.414.042-.093.3-.057.501.161.201.217.217.481.124.512M387.254 367.335c-.099-.026-.119-.259-.052-.523s.201-.455.299-.429c.098.026.119.258.052.522s-.201.456-.299.43ZM389.777 367.443c-.098-.026-.134-.222-.077-.439.051-.218.175-.378.273-.352.099.026.135.222.078.44-.057.217-.176.377-.274.351ZM386.014 371.541c-.072.067-.232.02-.356-.109-.124-.129-.165-.295-.088-.362.073-.067.233-.021.357.108.124.13.165.295.087.363ZM388.379 370.537c-.103 0-.181-.119-.181-.269 0-.15.083-.269.186-.264.103 0 .181.119.181.269 0 .15-.083.269-.186.269"/><path fill="#1B1B1B" d="M374.808 370.278c-.103.005-.196-.191-.211-.445-.016-.253.051-.46.155-.465.103-.005.196.191.211.445.016.253-.051.46-.155.465ZM380.631 367.945c-.093.036-.196 0-.227-.077-.031-.078.015-.176.113-.213.093-.036.196 0 .227.078s-.015.176-.113.212ZM373.028 366.776c-.093.036-.222-.062-.284-.223-.062-.16-.042-.32.056-.356.093-.037.222.062.284.222.062.16.036.321-.056.357ZM369.177 370.444c-.103 0-.186-.15-.191-.336-.005-.187.072-.347.176-.347.098 0 .185.15.191.336.005.186-.073.347-.176.347ZM371.923 361.059c-.103 0-.186-.15-.191-.336-.005-.186.072-.347.175-.347.098 0 .186.15.191.337.006.191-.072.346-.175.346Z"/><path fill="#CACACA" d="M338.046 364.277c-.34-.088-13.394-1.79-10.994 10.911 2.395 12.7 14.628 7.672 14.577 7.299-.047-.367-3.583-18.215-3.583-18.215"/><path fill="#1B1B1B" d="M337.974 378.235c-.062-.031-.191.197-.531.44a2.216 2.216 0 0 1-1.642.346c-1.43-.238-2.963-2.157-3.453-4.433a7.394 7.394 0 0 1 .021-3.285c.211-1.004.686-1.764 1.342-2.013a1.14 1.14 0 0 1 1.419.362c.238.321.207.59.274.6.041.026.232-.263.031-.77a1.433 1.433 0 0 0-.651-.704c-.351-.191-.82-.233-1.28-.093-.965.253-1.672 1.319-1.935 2.406a7.66 7.66 0 0 0-.098 3.683c.562 2.545 2.322 4.692 4.253 4.873.934.062 1.631-.346 1.956-.719.336-.388.346-.683.299-.698M387.79 332.564c-2.457-3.326-6.591-5.08-10.695-5.561-4.103-.476-8.243.171-12.326.817l-34.377 7.941 2.782 27.844 3.629 4.081 3.066 2.432c3.319-1.63 6.369-6.607 5.925-12.054 3.515-.993 6.36-3.88 7.655-7.3 1.301-3.425 1.141-7.305-.072-10.76 1.523 2.778 4.227 4.883 7.288 5.675 1.218.315 2.514.429 3.732.119 3.479-.88 5.265-5.644 3.231-8.604a24.487 24.487 0 0 0 12.265 6.4c2.787.543 6.013.46 8.026-1.547 2.437-2.431 1.91-6.71-.139-9.483"/><path fill="#8FFF71" d="m409.955 410.45-28.859-3.456c-10.205 7.481-22.965 4.677-37.108.114l-29.36 11.754 21.023 87.653-4.356 49.587 102.647-.476-9.606-111.172-14.371-33.999-.01-.005Z"/><path fill="#8FFF71" d="M317.141 416.704s-13.828 6.581-14.685 19.142c-.743 10.895 2.968 37.569 5.203 49.556 2.788 14.936 11.418 27.196 17.85 28.573 6.431 1.376 54.105-16.762 54.105-16.762l22.825-8.5-11.376-22.411s-46.115 14.842-47.881 13.595c-1.765-1.246-26.041-63.198-26.041-63.198"/><path fill="#8FFF71" d="M357.965 507.901c-.619-.109-.428 17.259.568 21.884s74.33-11.356 81.396-18.976c7.072-7.621 4.295-19.137 4.295-19.137l-10.179-52.976c-3.402-13.657-8.12-24.077-20.441-27.294l-3.649-.952 2.818 35.588 3.247 43.135-58.049 18.723-.006.005Z"/><path fill="#263238" d="M411.834 434.201s.036.191.067.559c.026.413.062.941.103 1.603.103 1.444.248 3.446.428 5.893.388 4.971 1.028 11.837 1.714 19.416.687 7.584 1.275 14.454 1.585 19.436.16 2.494.248 4.511.289 5.903.01.662.015 1.195.02 1.609 0 .367-.005.559-.02.564-.016 0-.036-.192-.067-.559l-.104-1.604c-.103-1.443-.247-3.44-.428-5.892-.387-4.972-1.027-11.837-1.714-19.421-.686-7.579-1.275-14.449-1.584-19.437-.16-2.488-.248-4.511-.289-5.903-.011-.662-.016-1.195-.021-1.608 0-.368.005-.559.021-.564"/></g><mask id="h" width="993" height="560" x="-136" y="-49" maskUnits="userSpaceOnUse" style="mask-type:luminance"><path fill="#fff" d="M856.028-48.364h-991.056v558.728h991.056V-48.364Z"/></mask><g mask="url(#h)"><path fill="#1B1B1B" d="M434.241 423.057c1.032 10.435-6.751 19.711-17.395 20.725-10.644 1.014-20.11-6.622-21.143-17.052-1.032-10.429 6.757-19.71 17.396-20.724 10.643-1.014 20.11 6.622 21.142 17.051Z"/><path fill="#8FFF71" d="M433.524 421.521c1.032 10.435-6.752 19.711-17.396 20.725-10.643 1.014-20.11-6.622-21.142-17.052s6.751-19.711 17.395-20.725c10.644-1.014 20.11 6.622 21.143 17.052Z"/><path fill="#3F3F3F" d="M428.832 421.769c.769 7.75-5.183 14.662-13.292 15.432-8.109.771-15.305-4.883-16.074-12.638-.769-7.75 5.183-14.662 13.292-15.432 8.109-.771 15.304 4.883 16.074 12.638Z"/><path fill="#CACACA" d="M415.535 437.145c-7.965.76-15.062-4.848-16.053-12.577.01.135.015.274.031.409.79 7.946 7.995 13.761 16.105 12.99 8.104-.771 14.039-7.838 13.25-15.784-.016-.14-.036-.274-.052-.409.547 7.776-5.316 14.615-13.281 15.376"/><path fill="#1B1B1B" d="M412.763 409.193c7.964-.761 15.062 4.847 16.053 12.576-.01-.134-.016-.274-.031-.409-.79-7.946-7.996-13.761-16.105-12.99-8.104.771-14.04 7.838-13.25 15.784.016.14.036.274.052.409-.547-7.776 5.316-14.615 13.281-15.376"/><path fill="#1B1B1B" d="M422.204 426.534c-.201-2.018-1.316-3.239-2.813-3.632.975-.745 1.554-1.986 1.399-3.585-.196-1.987-1.466-3.29-3.65-3.554l-.242-2.452-2.308.222.228 2.282-1.312.124-.227-2.277-2.312.223.227 2.281-2.106.202-1.466.14.222 2.266 1.466-.14 1.094 11.014-1.621.155.228 2.266 1.62-.155 2.106-.202.264 2.649 2.307-.222-.263-2.649 1.311-.124.263 2.649 2.307-.223-.273-2.737c2.57-.605 3.778-2.209 3.551-4.511m-9.967-8.194 3.128-.3c1.734-.166 2.792.45 2.932 1.893.139 1.423-.775 2.224-2.509 2.39l-3.551.336-.424-4.283.424-.042v.006Zm4.723 10.667-3.784.362-.268.026-.444-4.485 4.052-.388c1.889-.181 2.983.408 3.133 1.966.155 1.552-.8 2.338-2.689 2.519Z"/><path fill="#8FFF71" d="M421.104 426.182c-.201-2.018-1.316-3.238-2.813-3.632.976-.745 1.554-1.986 1.399-3.585-.196-1.986-1.466-3.29-3.65-3.554l-.242-2.452-2.307.222.227 2.282-1.311.124-.228-2.281-2.312.222.227 2.281-2.106.202-1.466.14.222 2.266 1.466-.14 1.094 11.014-1.62.156.227 2.265 1.62-.155 2.106-.201.264 2.648 2.307-.222-.263-2.649 1.311-.124.263 2.649 2.307-.223-.273-2.737c2.57-.605 3.778-2.209 3.551-4.511m-9.967-8.194 3.128-.3c1.734-.166 2.792.45 2.932 1.893.139 1.423-.775 2.225-2.509 2.39l-3.551.336-.423-4.283.423-.042v.006Zm4.723 10.667-3.784.362-.268.026-.444-4.485 4.052-.388c1.889-.181 2.978.409 3.133 1.966.155 1.552-.8 2.338-2.689 2.519Z"/><path fill="#fff" d="M639.4 369.875c0 40.87-33.056 74-73.834 74-40.777 0-73.833-33.13-73.833-74s33.056-74 73.833-74c40.778 0 73.834 33.13 73.834 74Z"/></g><mask id="i" width="149" height="149" x="491" y="295" maskUnits="userSpaceOnUse" style="mask-type:luminance"><path fill="#fff" d="M491.737 369.87c0 40.869 33.056 74 73.834 74 40.778 0 73.834-33.131 73.834-74 0-40.87-33.056-74.001-73.834-74.001-40.778 0-73.834 33.131-73.834 74.001Z"/></mask><g mask="url(#i)"><path fill="#8FFF71" d="M600.846 407.408c-2.054-1.945-4.96-2.23-7.665-2.421l-38.197-2.747c-2.612-.187-5.285-.368-7.804.419-2.519.786-7.919 2.09-8.626 4.878-.707 2.789.563 8.888 3.154 9.302l42.848 19.343c3.99 2.851 9.626 1.252 12.976-2.467 3.35-3.72 4.837-9.018 5.622-14.196.65-4.263.66-9.302-2.308-12.106"/><path fill="#1B1B1B" d="M573.561 363.646c3.732-7.594 10.458-13.658 18.386-16.57l-.547-.58c6.999-.89 14.185 4.646 15.129 11.656.387 2.876-.15 5.789-.299 8.686-.15 2.897.175 6.012 1.987 8.278.97 1.205 2.287 2.074 3.324 3.223 1.033 1.148 1.786 2.778 1.249 4.231-.686 1.858-3.055 2.437-5.022 2.271-1.972-.165-3.98-.796-5.884-.258 2.085 2.55 1.61 6.787-.986 8.81-2.592 2.023-6.809 1.449-8.765-1.2.449 3.451-2.256 6.829-5.611 7.724-3.355.895-7.035-.378-9.621-2.696-2.592-2.317-4.207-5.545-5.245-8.867-2.524-8.075-1.827-17.119 1.905-24.708Z"/><path fill="#1B1B1B" d="M533.96 337.21c.888-2.219 3.412-3.42 5.792-3.466 2.385-.047 4.676.828 6.896 1.686-.15-3.181-.284-6.461.815-9.452 1.1-2.99 3.763-5.633 6.943-5.685 2.736-.041 5.151 1.78 6.999 3.808 1.848 2.028 3.407 4.371 5.647 5.944 5.828 4.097 14.056 1.717 20.689 4.304 6.808 2.659 11.335 11.821 9.059 18.78-12.327 2.353-24.772 4.744-36.277 9.762-6.22 2.716-13.013 6.26-19.424 4.03-3.985-1.387-7.082-5.07-7.763-9.245-.682-4.17 1.079-8.655 4.418-11.242-2.452-2.535-5.105-5.954-3.794-9.229"/><path fill="#CACACA" d="M542.612 355.353c2.358-9.209 14.143-16.596 23.222-13.849l28.958 11.469-1.053 4.993-12.533 61.889s-7.516 19.364-24.157 15.003c-14.949-3.922-11.067-19.799-11.067-19.804l2.689-11.614s-12.14-2.83-11.65-18.831c.243-7.957 2.968-19.028 5.585-29.256"/><path fill="#1B1B1B" d="M543.871 369.233c-.238 1.045.449 2.106 1.533 2.375 1.084.269 2.152-.357 2.39-1.407.237-1.045-.449-2.111-1.533-2.375-1.084-.269-2.158.362-2.395 1.407M543.84 363.036c.196.305 1.915-.523 4.052-.109 2.142.383 3.5 1.785 3.783 1.568.135-.094-.025-.611-.614-1.242-.578-.626-1.636-1.33-2.968-1.578-1.331-.248-2.545.031-3.288.409-.753.377-1.063.807-.965.946M562.288 373.305c-.238 1.045.449 2.105 1.533 2.374 1.084.269 2.152-.362 2.39-1.402.237-1.045-.449-2.11-1.533-2.374-1.084-.269-2.158.362-2.395 1.407M563.388 368.235c.196.305 1.914-.523 4.051-.109 2.143.383 3.5 1.785 3.784 1.568.134-.093-.026-.611-.614-1.242-.578-.626-1.637-1.329-2.968-1.578-1.337-.248-2.55.031-3.288.409-.754.383-1.064.807-.965.947M554.318 381.21c.026-.093-1.269-.538-3.381-1.185-.536-.155-1.037-.341-1.078-.647-.073-.331.232-.739.583-1.179.692-.921 1.419-1.883 2.178-2.892.811-1.05 4.955-7.062 5.105-7.688-.227-.119-2.88 3.14-5.926 7.269-.738 1.019-1.445 1.997-2.116 2.928-.289.44-.743.911-.578 1.604.093.346.449.657.79.796.335.151.64.218.908.285 2.148.528 3.49.807 3.51.714M548.558 403.517s10.297 2.665 21.813-1.583c0 0-7.365 9.835-22.598 5.417l.79-3.834h-.005ZM565.457 361.22c.119.708 2.055.569 4.254 1.148 2.214.518 3.928 1.568 4.284.978.16-.285-.088-.962-.754-1.702-.655-.74-1.75-1.485-3.071-1.816-1.322-.326-2.581-.165-3.438.197-.862.362-1.332.864-1.28 1.2M545.105 356.76c.237.673 1.915.492 3.752.957 1.853.388 3.278 1.289 3.794.792.232-.248.139-.88-.392-1.599-.527-.714-1.523-1.448-2.793-1.743-1.27-.295-2.498-.073-3.288.336-.8.409-1.172.937-1.073 1.257Z"/><path fill="#1B1B1B" d="M545.621 346.801c3.804-4.78 9.828-7.475 15.898-8.023 6.076-.549 12.192.894 17.824 3.248 5.626 2.354 10.834 5.598 16.011 8.831 1.255.782 2.607 1.692 3.005 3.12.268.967.036 1.997-.202 2.98-1.971 8.241-3.948 16.482-5.92 24.729l-3.18 4.702c-2.694-.465-4.609-2.861-5.993-5.225-4.826-8.267-6.312-18.427-4.052-27.734-.991.889-1.481 2.188-2.137 3.347-.655 1.159-1.656 2.297-2.983 2.405-2.209.181-3.541-2.535-3.474-4.754.067-2.224.862-4.506.155-6.617a25.29 25.29 0 0 1-9.632 6.038c-1.703.589-3.866.879-5.053-.476-.836-.963-.821-2.447-.294-3.611.526-1.164 1.465-2.08 2.384-2.96a19.86 19.86 0 0 1-10.643 3.989c-.842.057-1.807.005-2.354-.641-.79-.947-.124-2.38.64-3.342"/><path fill="#CACACA" d="M587.183 374.841c.253-.057 10.055-.931 7.882 8.479-2.173 9.411-11.149 5.282-11.103 5.013.047-.274 3.226-13.492 3.226-13.492"/><path fill="#1B1B1B" d="M587.648 385.431c.046-.02.139.155.382.342.242.186.686.377 1.218.31 1.073-.134 2.276-1.521 2.715-3.207a5.514 5.514 0 0 0 .082-2.453c-.129-.755-.459-1.34-.939-1.541a.85.85 0 0 0-1.069.222c-.185.233-.17.435-.222.44-.03.015-.165-.207 0-.574.083-.176.243-.373.506-.502.269-.13.62-.15.96-.031.713.217 1.208 1.034 1.373 1.857.202.833.212 1.8-.036 2.752-.5 1.883-1.879 3.43-3.324 3.513-.702.021-1.203-.31-1.44-.595-.237-.3-.237-.522-.201-.533"/><path fill="#CACACA" d="M581.18 352.647s.016.207.088.595c.072.383.201.952.403 1.671a31.051 31.051 0 0 0 2.302 5.877 32.672 32.672 0 0 0 2.25 3.746c.46.641.929 1.293 1.476 1.945.553.631 1.224 1.288 2.158 1.557.929.285 2.003-.041 2.715-.703.728-.652 1.229-1.542 1.502-2.499.501-1.971 0-3.978.176-5.944a6.68 6.68 0 0 1 .103-.75l-.47.077 3.025 4.941 1.44 2.343c.47.756 1.002 1.542 1.838 2.002.418.218.934.295 1.388.161.465-.124.836-.43 1.11-.766.547-.678.816-1.474 1.012-2.209.423-1.479.583-2.918.619-4.216a16.649 16.649 0 0 0-.981-6.048 12.059 12.059 0 0 0-.655-1.531c-.176-.337-.274-.512-.289-.502-.047.021.32.735.759 2.095.428 1.361.908 3.415.81 5.975-.057 1.273-.232 2.675-.666 4.113-.201.725-.464 1.454-.95 2.039-.459.6-1.264.858-1.946.476-.681-.373-1.192-1.097-1.646-1.853-.465-.765-.94-1.546-1.42-2.343-.97-1.593-1.972-3.239-3.004-4.93l-.351-.58-.119.657a7.767 7.767 0 0 0-.108.802c-.17 2.075.315 4.072-.15 5.856-.242.875-.707 1.692-1.342 2.266-.629.585-1.491.844-2.271.616-.779-.212-1.409-.791-1.946-1.397-.532-.615-1.012-1.267-1.471-1.893a34.369 34.369 0 0 1-2.276-3.668 34.313 34.313 0 0 1-2.432-5.769 37.696 37.696 0 0 1-.49-1.634c-.108-.378-.17-.575-.186-.569"/><path fill="#1B1B1B" d="M560.28 384.091c.366 1.19.454 3.291.046 4.465-.407 1.174-1.388 2.188-2.606 2.426-1.327.259-2.695-.429-3.608-1.428-.914-.998-1.461-2.266-1.993-3.512 2.514-.631 5.647-1.32 8.161-1.956"/><path fill="#CACACA" d="M554.938 391.044c-.052.037 1.078.626 2.88.078a4.793 4.793 0 0 0 2.56-1.94c.676-1.045.97-2.483.64-3.885a4.861 4.861 0 0 0-.666-1.557l-.113-.166-.196.031c-2.303.388-4.285.962-5.663 1.459-1.383.497-2.178.895-2.152.962.056.166 3.365-1.096 7.913-1.81l-.305-.135c.258.398.454.864.573 1.361.294 1.231.052 2.504-.516 3.435-.573.936-1.44 1.526-2.22 1.826-1.605.611-2.725.217-2.735.336"/><path fill="#8FFF71" d="m587.493 415.825-2.385-5.805-27.925 6.017-9.895-6.622-5.962 5.955-8.135 1.459c-.258.16-10.576 1.05-15.082 7.372-1.926 2.705-6.793 12.845-6.793 12.845l-16.998.937s-6.906 37.967-6.225 49.163c.052.843.098 1.603.144 2.302-.289 1.857-.144 4.149.486 6.384.113.993.134.455.134.455 1.559 4.961 5.595 9.447 12.873 7.889 10.768-2.297 16.699-10.745 16.699-10.745v-.01l-.424 7.217c-.924 15.556-3.045 39.478-3.045 39.478l82.459-6.322 6.782-7.072.207-67.59v-39.401l-16.931-3.911.016.005Z"/><path fill="#1B1B1B" d="M520.896 441.376c.181.006-.155 12.386-.754 27.642-.598 15.261-1.233 27.621-1.419 27.615-.181-.005.155-12.379.754-27.641.598-15.256 1.233-27.621 1.419-27.61M512.291 482.577c-.046-.005-.026-.646.057-1.795.093-1.148.181-2.814.258-4.868.16-4.113.057-9.804-.361-16.079-.423-6.275-.847-11.966-.965-16.1-.062-2.064-.083-3.735-.057-4.888.02-1.154.051-1.796.098-1.796.046 0 .103.637.16 1.79.072 1.278.16 2.913.268 4.874.238 4.118.733 9.788 1.157 16.079.418 6.285.449 12.012.17 16.141-.14 2.064-.3 3.73-.47 4.873-.16 1.143-.268 1.775-.31 1.769"/><path fill="#8FFF71" d="M626.257 525.237s18.283-19.726 21.959-25.929c3.448-5.825 6.266-13.714 2.983-20.937-3.02-6.653-10.953-19.726-10.953-19.726l-.042.042c-5.517-9.913-16.93-28.894-20.306-32.691-6.437-7.243-16.399-6.006-16.399-6.006v37.207l15.511 21.376 4.481 5.634-11.175 23.254"/></g><mask id="j" width="993" height="560" x="-136" y="-49" maskUnits="userSpaceOnUse" style="mask-type:luminance"><path fill="#fff" d="M856.028-48.364h-991.056v558.728h991.056V-48.364Z"/></mask><g mask="url(#j)"><path fill="#1B1B1B" d="M639.307 423.057c1.032 10.435-6.752 19.711-17.395 20.725-10.644 1.014-20.111-6.622-21.143-17.052-1.032-10.429 6.752-19.71 17.395-20.724 10.644-1.014 20.11 6.622 21.143 17.051Z"/><path fill="#8FFF71" d="M638.589 421.521c1.033 10.435-6.751 19.71-17.395 20.724-10.643 1.014-20.11-6.622-21.142-17.051-1.033-10.43 6.756-19.711 17.395-20.725 10.643-1.014 20.11 6.622 21.142 17.052Z"/><path fill="#3F3F3F" d="M633.897 421.769c.769 7.75-5.182 14.661-13.292 15.432-8.109.771-15.304-4.883-16.073-12.638-.769-7.75 5.182-14.662 13.291-15.433 8.109-.77 15.305 4.884 16.074 12.639Z"/><path fill="#CACACA" d="M620.601 437.144c-7.965.761-15.062-4.847-16.053-12.576.01.134.015.274.031.409.789 7.946 7.995 13.761 16.104 12.99 8.104-.771 14.04-7.838 13.25-15.784-.015-.14-.036-.274-.051-.409.547 7.776-5.317 14.615-13.281 15.376"/><path fill="#1B1B1B" d="M617.829 409.193c7.964-.761 15.062 4.847 16.053 12.576-.011-.134-.016-.274-.031-.409-.79-7.946-7.996-13.761-16.105-12.99-8.104.771-14.04 7.838-13.25 15.784.015.14.036.274.051.409-.547-7.776 5.317-14.615 13.282-15.376"/><path fill="#1B1B1B" d="M627.275 426.534c-.202-2.018-1.317-3.239-2.814-3.632.976-.745 1.554-1.987 1.399-3.585-.196-1.987-1.466-3.29-3.649-3.554l-.243-2.452-2.307.222.227 2.282-1.311.124-.227-2.277-2.313.223.228 2.281-2.106.202-1.466.14.222 2.266 1.466-.14 1.094 11.014-1.621.155.227 2.266 1.621-.155 2.106-.202.263 2.649 2.307-.222-.263-2.649 1.311-.124.264 2.649 2.307-.223-.274-2.737c2.571-.605 3.779-2.209 3.552-4.511m-9.968-8.195 3.128-.3c1.735-.165 2.793.45 2.932 1.894.14 1.423-.774 2.224-2.508 2.39l-3.552.336-.423-4.283.423-.042v.005Zm4.723 10.668-3.783.362-.269.026-.444-4.485 4.052-.388c1.89-.181 2.984.408 3.134 1.966.154 1.552-.801 2.338-2.69 2.519Z"/><path fill="#8FFF71" d="M626.175 426.182c-.201-2.018-1.316-3.239-2.813-3.632.976-.745 1.554-1.986 1.399-3.585-.196-1.986-1.466-3.29-3.649-3.554l-.243-2.452-2.307.222.227 2.282-1.311.124-.227-2.282-2.313.223.227 2.281-2.106.202-1.466.14.222 2.266 1.466-.14 1.094 11.014-1.62.155.227 2.266 1.621-.155 2.106-.202.263 2.649 2.307-.222-.263-2.649 1.311-.124.263 2.649 2.308-.223-.274-2.737c2.57-.605 3.778-2.209 3.551-4.511m-9.967-8.194 3.128-.301c1.734-.165 2.792.451 2.932 1.894.139 1.423-.774 2.225-2.509 2.39l-3.551.336-.423-4.283.423-.042v.006Zm4.723 10.667-3.784.362-.268.026-.444-4.485 4.052-.388c1.889-.181 2.978.408 3.133 1.966.155 1.552-.8 2.338-2.689 2.519Z"/></g><mask id="k" width="993" height="560" x="-136" y="-49" maskUnits="userSpaceOnUse" style="mask-type:luminance"><path fill="#fff" d="M856.028-48.364h-991.056v558.728h991.056V-48.364Z"/></mask><g mask="url(#k)"><path fill="#E4E4E4" d="M326.608 101.825c0 46.375-37.506 83.965-83.776 83.965-46.27 0-83.775-37.595-83.775-83.965 0-46.369 37.505-83.964 83.775-83.964s83.776 37.595 83.776 83.964ZM561.947 101.825c0 46.375-37.51 83.965-83.775 83.965-46.265 0-83.775-37.595-83.775-83.965 0-46.369 37.505-83.964 83.775-83.964s83.775 37.595 83.775 83.964Z"/><path fill="#fff" d="M326.608 101.825c0 46.375-37.506 83.965-83.776 83.965-46.27 0-83.775-37.595-83.775-83.965 0-46.369 37.505-83.964 83.775-83.964s83.776 37.595 83.776 83.964Z"/></g><mask id="l" width="168" height="169" x="159" y="17" maskUnits="userSpaceOnUse" style="mask-type:luminance"><path fill="#fff" d="M159.052 101.82c0 46.375 37.511 83.965 83.776 83.965 46.264 0 83.775-37.596 83.775-83.965 0-46.369-37.511-83.964-83.775-83.964-46.265 0-83.776 37.59-83.776 83.964Z"/></mask><g mask="url(#l)"><path fill="#1B1B1B" d="M270.99 60.443c5.73 4.527 9.002 12.008 8.439 19.297-.273 3.544-1.249 7.584 1.048 10.29 2.277 2.675 6.747 2.597 8.925 5.355 2.571 3.243.418 8.07 1.337 12.105.862 3.787 4.852 6.581 8.697 6.089a31.901 31.901 0 0 1-15.82 6.881l-4.429-5.696c1.677 1.992 1.234 5.173-.392 7.212-1.626 2.038-4.135 3.145-6.613 3.937-11.851 3.766-25.437 1.557-35.487-5.779"/><path fill="#1B1B1B" d="M204.553 91.737c.888-2.716 2.369-5.23 2.968-8.024 1.28-6-1.636-12.762 1.27-18.163 2.07-3.85 6.478-5.733 10.644-7.016 4.165-1.288 8.64-2.374 11.748-5.442 2.276-2.25 3.577-5.344 5.848-7.6 3.236-3.212 8.016-4.304 12.564-4.583 4.671-.285 9.497.16 13.699 2.23 4.202 2.063 7.691 5.944 8.439 10.574.367 2.255.088 4.625.8 6.798.78 2.39 2.654 4.247 3.81 6.482 2.441 4.718 1.12 11.071-2.999 14.418l-32.065 41.512c-6.736 2.55-23.057-.533-28.266-5.52-5.208-4.988-10.685-18.8-8.444-25.66"/><path fill="#CACACA" d="M272.482 76.124c-1.322-9.426-8.476-20.564-17.814-18.841l-28.828 9.71c-2.839.523-.805 5.163-.527 8.04l6.267 65.164c-.047.015-3.892 2.788-5.286 2.25-.361-.14-.686.269-.464.585 3.463 5.038 19.805 27.067 36.653 20.341 3.763-1.505-.392-13.388.047-17.791l-.501-11.247c-.372-5.742-.552-8.096-.547-8.039 0 0 11.918-2.939 13.209-18.919.64-7.947-.738-20.787-2.209-31.263"/><path fill="#1B1B1B" d="M268.879 91.36c.119 1.065-.681 2.048-1.791 2.193-1.105.145-2.101-.6-2.225-1.666-.119-1.065.681-2.048 1.791-2.193 1.11-.145 2.106.6 2.225 1.666ZM249.455 92.58c.119 1.066-.681 2.05-1.791 2.194-1.105.145-2.101-.6-2.225-1.666-.119-1.066.682-2.048 1.791-2.193 1.11-.145 2.106.6 2.225 1.666ZM271.202 83.956c-.217.373-2.101-.822-4.45-.475-2.359.305-3.861 1.96-4.171 1.66-.149-.13.037-.77.687-1.516.64-.74 1.807-1.536 3.273-1.743 1.465-.202 2.797.253 3.608.797.825.543 1.166 1.107 1.053 1.277ZM250.069 85.705c-.278.341-2.126-1.004-4.656-.895-2.529.067-4.325 1.542-4.614 1.221-.14-.145.124-.75.908-1.412.769-.662 2.096-1.33 3.675-1.387 1.58-.052 2.932.517 3.727 1.123.805.61 1.1 1.195.965 1.35M258.003 100.641c-.02-.124 1.311-.461 3.479-.91.553-.099 1.069-.254 1.131-.637.098-.414-.181-.993-.496-1.62l-1.966-4.107c-2.741-5.856-4.775-10.688-4.538-10.797.238-.108 2.653 4.548 5.394 10.404.661 1.443 1.296 2.825 1.9 4.138.258.616.676 1.304.454 2.163-.119.43-.501.76-.852.885-.345.134-.66.165-.934.201-2.194.29-3.561.404-3.577.28M261.482 126.306s-10.545 1.5-21.53-4.015c0 0 6.153 10.673 21.804 7.978l-.274-3.963Z"/><path fill="#8FFF71" d="M251.37 106.999c.295-.507.609-1.035 1.115-1.33.558-.326 1.249-.31 1.884-.191.919.171 1.833.564 2.462 1.257.63.693.94 1.723.62 2.607-.243.911-1.6 1.413-2.529 1.573-.924.166-1.89-.109-2.71-.569-.687-.388-1.353-1.009-1.389-1.8-.026-.554.263-1.071.542-1.547"/><path fill="#1B1B1B" d="M251.814 103.931c.351-.047.537 2.318 2.684 3.839 2.148 1.531 4.641 1.071 4.682 1.396.046.145-.527.502-1.585.616-1.037.114-2.586-.103-3.897-1.035-1.311-.936-1.946-2.266-2.101-3.233-.165-.983.052-1.588.217-1.588M249.878 77.18c-.17.61-2.359.496-4.888.998-2.534.455-4.537 1.36-4.914.853-.17-.243.145-.827.934-1.464.78-.636 2.055-1.283 3.572-1.567 1.518-.285 2.937-.15 3.897.155.966.305 1.472.735 1.404 1.024M269.859 75.984c-.397.528-2.147.145-4.212.28-2.064.072-3.773.626-4.217.14-.196-.239.042-.756.764-1.284.712-.522 1.941-1.003 3.36-1.076 1.415-.067 2.674.285 3.433.735.764.45 1.043.942.867 1.2"/><path fill="#1B1B1B" d="M219.466 69.27c1.455-2.246 4.067-3.4 6.56-4.362a144.87 144.87 0 0 1 33.391-8.52c1.425 2.348.109 5.545-2.038 7.253-2.148 1.707-4.904 2.384-7.469 3.347-2.566.962-5.198 2.447-6.257 4.977-1.125 2.695-.175 5.887-1.161 8.634-1.698 4.728-8.285 6.255-9.957 10.993-1.265 3.586.805 7.398 1.327 11.165.588 4.268-.991 8.779-4.104 11.748-2.457 2.339-5.822 3.653-9.203 3.72-.78-13.57-1.564-27.14-2.344-40.71-.165-2.824-.273-5.871 1.265-8.246"/><path fill="#1B1B1B" d="M192.186 103.553c2.137-1.919 4.821-3.58 5.672-6.332 1.244-4.004-1.966-8.707.098-12.354 1.885-3.327 7.433-3.156 9.188-6.555 1.368-2.654-.201-4.997.315-7.33.522-2.328 3.82-4.372 6.184-4.098l18.489 26.86c1.719 9.013 3.443 13.808 1.513 19.08-1.058 2.892-2.437 5.711-2.855 8.759-.413 3.052.362 6.508 2.855 8.313-11.057.869-21.416-4.93-30.991-10.538l-10.133-5.934c-1.053-.621-2.152-1.278-2.782-2.323-1.487-2.462.31-5.634 2.447-7.553"/><path fill="#CACACA" d="M202.38 116.647s.392.145 1.182.228c.785.077 1.972.114 3.443-.243a10.684 10.684 0 0 0 4.805-2.592c1.58-1.464 2.855-3.756 3.159-6.477.15-1.356.062-2.809-.361-4.253-.428-1.443-1.228-2.788-2.054-4.118-.816-1.335-1.709-2.705-2.117-4.273-.407-1.542-.407-3.373.594-4.697 1.007-1.35 2.875-1.682 4.604-2.38.873-.347 1.776-.89 2.359-1.749.583-.853.78-1.909.759-2.907-.026-2.028-.888-3.886-1.254-5.774-.191-.947-.258-1.924-.016-2.83a3.929 3.929 0 0 1 1.595-2.245c1.595-1.143 3.634-1.324 5.595-1.5 1.972-.145 4.032-.59 5.699-1.682a10.726 10.726 0 0 0 3.897-4.237c.857-1.717 1.167-3.57 1.44-5.313.269-1.748.506-3.445 1.084-4.982.578-1.526 1.508-2.85 2.602-3.926 2.23-2.127 5.048-3.26 7.65-3.472 2.622-.222 4.996.476 6.849 1.428a15.223 15.223 0 0 1 4.259 3.25c1.992 2.213 2.55 3.833 2.632 3.78.01 0-.026-.103-.108-.289-.088-.18-.191-.47-.382-.812-.362-.704-.971-1.707-1.957-2.846a15.046 15.046 0 0 0-4.279-3.403c-1.879-1.01-4.32-1.765-7.051-1.563-2.704.191-5.636 1.335-7.985 3.539-1.151 1.117-2.142 2.504-2.761 4.113-.615 1.609-.868 3.352-1.141 5.09-.279 1.738-.594 3.518-1.399 5.127-.821 1.593-2.096 3-3.685 3.978-1.585 1.025-3.459 1.433-5.425 1.578-1.941.176-4.12.342-5.905 1.614-.888.61-1.575 1.558-1.843 2.608-.274 1.05-.186 2.126.01 3.12.408 1.996 1.239 3.797 1.254 5.659.021.916-.16 1.826-.645 2.54-.485.72-1.249 1.195-2.08 1.531-.826.347-1.714.59-2.571.952-.851.352-1.703.864-2.271 1.64-1.156 1.568-1.104 3.57-.666 5.205.46 1.686 1.389 3.083 2.215 4.413.836 1.324 1.615 2.617 2.028 3.978.413 1.366.517 2.752.382 4.056-.268 2.613-1.46 4.832-2.957 6.265-1.502 1.464-3.206 2.225-4.615 2.607-2.891.735-4.573.145-4.563.259"/><path fill="#1B1B1B" d="M187.633 97.552s-.222.27-.367.905c-.144.621-.129 1.651.475 2.748.31.532.764 1.086 1.414 1.489a4.4 4.4 0 0 0 2.365.632c1.76.02 3.835-1.045 4.841-3.084.511-.993.785-2.162.79-3.378 0-1.22-.315-2.463-.779-3.663-.878-2.4-2.473-4.733-2.504-7.537-.031-1.356.289-2.835 1.285-3.808.986-.998 2.509-1.247 4.016-1.257 1.513-.052 3.164.145 4.785-.497a4.162 4.162 0 0 0 1.967-1.66c.464-.745.707-1.594.81-2.442.207-1.728-.201-3.363-.397-4.925a10.848 10.848 0 0 1 .258-4.568c.81-2.918 2.761-5.365 5.146-6.767 2.395-1.449 5.167-1.604 7.665-1.754 2.514-.134 4.945-.29 7-1.107a14.612 14.612 0 0 0 4.955-3.125 14.557 14.557 0 0 0 2.715-3.492c1.172-2.147 1.316-3.518 1.316-3.518-.077-.03-.315 1.32-1.533 3.389a14.708 14.708 0 0 1-2.741 3.352 14.412 14.412 0 0 1-4.862 2.96c-1.987.76-4.346.89-6.87.998-2.499.13-5.374.253-7.939 1.774-2.529 1.475-4.584 4.03-5.456 7.114a11.474 11.474 0 0 0-.284 4.821c.212 1.604.588 3.198.397 4.765-.16 1.562-.965 3.052-2.379 3.59-1.399.564-3.004.414-4.558.46-1.533.016-3.278.27-4.439 1.454-1.161 1.164-1.481 2.81-1.44 4.263.031 1.48.464 2.887 1.012 4.129.536 1.257 1.135 2.42 1.589 3.585.46 1.159.764 2.333.78 3.471.01 1.138-.232 2.235-.697 3.166-.909 1.904-2.798 2.908-4.444 2.929a4.125 4.125 0 0 1-2.199-.533c-.609-.352-1.048-.859-1.358-1.356-.599-1.014-.666-1.992-.562-2.597.098-.615.268-.915.237-.926M304.154 104.174c-.103-.005.599 1.061-.036 2.897-.32.864-1.038 1.914-2.297 2.339-1.223.419-2.932.093-4.057-1.113-.563-.589-.893-1.417-.95-2.317-.057-.9.119-1.858.423-2.804.589-1.878 1.786-3.917 1.601-6.364-.135-2.369-1.332-4.8-3.366-6.404a10.403 10.403 0 0 0-3.448-1.821c-1.27-.409-2.622-.502-3.938-.57-1.322-.067-2.617-.103-3.825-.403-1.198-.29-2.287-.9-2.973-1.852-.692-.947-.997-2.126-1.079-3.28-.083-1.164.057-2.307.284-3.42.454-2.214 1.115-4.366.991-6.482a9.828 9.828 0 0 0-1.977-5.385c-1.069-1.438-2.452-2.318-3.603-3.053-1.167-.734-2.163-1.365-2.88-1.996-1.477-1.252-1.735-2.386-1.812-2.334-.01 0 .005.068.046.197.047.124.093.32.222.543.217.47.651 1.117 1.378 1.785.713.678 1.709 1.35 2.85 2.11 1.135.766 2.441 1.64 3.432 3.022a9.426 9.426 0 0 1 1.807 5.137c.098 1.997-.558 4.082-1.038 6.338-.242 1.127-.402 2.343-.32 3.58.083 1.226.398 2.524 1.182 3.61.785 1.092 2.039 1.796 3.33 2.1 1.3.322 2.632.353 3.943.425 1.311.067 2.592.155 3.784.538a9.907 9.907 0 0 1 3.241 1.697c1.9 1.49 3.025 3.746 3.165 5.95.196 2.234-.914 4.195-1.518 6.166-.304.993-.49 2.013-.408 3.001.073.988.465 1.94 1.115 2.597 1.291 1.324 3.154 1.635 4.506 1.138 1.389-.507 2.117-1.671 2.416-2.592a4.12 4.12 0 0 0 .109-2.256c-.14-.501-.305-.724-.305-.724"/><path fill="#8FFF71" d="M285.696 148.79s5.962-.45 11.134 10.196c6.436 13.255 7.04 61.838 7.04 61.838l22.738 39.111-18.562 19.012s-25.504-27.083-28.327-34.631c-2.824-7.548 0-66.172 0-66.172l5.982-29.354h-.005Z"/><path fill="#8FFF71" d="M297.532 162.649s-1.652-6.87-7.578-13.171c-2.617-2.779-26.356-11.004-26.356-11.004-20.765 4.78-30.805-4.672-32.947-4.982-1.487-.218-15.279 2.592-15.279 2.592l-10.07 49.064s1.899 34.098 2.054 34.341c.155.243-6.297 23.312-6.297 23.312s40.158 16.146 56.025 19.762c15.867 3.616 32.452-16.741 32.452-16.741l-4.356-34.641 12.357-48.532h-.005Z"/><path fill="#8FFF71" d="M220.818 135.623c-1.399 0-15.707 0-25.67 10.761-2.245 2.421-13.606 36.188-30.531 68.553-13.736 26.265-17.654 47.502-17.654 47.502l12.069 9.177 21.736-37.952 25.014-40.083 15.041-57.953-.005-.005Z"/><path fill="#263238" d="M289.531 246.039s-.077-.264-.165-.765c-.088-.575-.206-1.309-.346-2.215-.33-2.002-.779-4.759-1.332-8.137-.573-3.436-1.285-7.517-1.961-12.075-.33-2.282-.656-4.682-.883-7.186-.211-2.494-.397-5.142.124-7.817.506-2.659 1.58-5.075 2.411-7.408.862-2.344 1.259-4.677 1.368-6.979.309-4.574-.062-8.707-.723-12.106-.666-3.404-1.518-6.089-2.132-7.931-.294-.869-.537-1.573-.723-2.121-.165-.486-.242-.745-.221-.755.02-.011.139.233.34.703.207.471.491 1.17.836 2.08a54.419 54.419 0 0 1 2.344 7.926c.728 3.419 1.156 7.61.872 12.235-.088 2.302-.495 4.78-1.368 7.149-.836 2.38-1.884 4.744-2.374 7.326-.501 2.561-.33 5.153-.129 7.636.222 2.483.532 4.878.841 7.155.687 4.532 1.301 8.624 1.827 12.09.522 3.445.909 6.239 1.131 8.174.119.967.181 1.723.227 2.235.041.512.057.781.031.781M200.578 163.849c.176-.025 1.374 7.212 2.679 16.162 1.301 8.95 2.215 16.229 2.039 16.255-.175.026-1.378-7.207-2.679-16.162-1.3-8.95-2.214-16.229-2.039-16.255Z"/></g><mask id="m" width="993" height="560" x="-136" y="-49" maskUnits="userSpaceOnUse" style="mask-type:luminance"><path fill="#fff" d="M856.028-48.364h-991.056v558.728h991.056V-48.364Z"/></mask><g mask="url(#m)"><path fill="#1B1B1B" d="M326.499 161.185c1.224 12.333-7.985 23.296-20.564 24.496-12.579 1.2-23.77-7.827-24.993-20.156-1.224-12.328 7.985-23.301 20.564-24.496 12.579-1.2 23.77 7.828 24.993 20.156Z"/><path fill="#8FFF71" d="M325.653 159.374c1.223 12.334-7.985 23.296-20.564 24.496-12.58 1.201-23.77-7.827-24.994-20.155-1.223-12.334 7.986-23.301 20.565-24.496 12.579-1.2 23.77 7.827 24.993 20.155Z"/><path fill="#3F3F3F" d="M320.104 159.664c.908 9.162-6.127 17.331-15.707 18.241-9.586.916-18.092-5.773-19.001-14.935-.908-9.162 6.127-17.331 15.713-18.242 9.585-.915 18.092 5.774 19 14.936"/><path fill="#CACACA" d="M304.387 177.838c-9.415.895-17.803-5.727-18.975-14.868.01.16.021.326.036.486.929 9.39 9.451 16.265 19.037 15.35 9.58-.911 16.595-9.266 15.661-18.661-.016-.16-.042-.321-.062-.481.645 9.193-6.282 17.274-15.697 18.174Z"/><path fill="#1B1B1B" d="M301.114 144.801c9.415-.895 17.803 5.727 18.975 14.868-.011-.16-.021-.326-.036-.486-.93-9.39-9.452-16.265-19.037-15.35-9.58.916-16.595 9.266-15.661 18.661.016.16.042.321.062.481-.645-9.193 6.282-17.274 15.697-18.174Z"/><path fill="#1B1B1B" d="M312.274 165.298c-.238-2.39-1.554-3.823-3.324-4.294 1.156-.88 1.837-2.349 1.651-4.237-.232-2.349-1.734-3.885-4.315-4.206l-.289-2.897-2.731.258.269 2.696-1.549.15-.268-2.695-2.731.258.269 2.696-2.488.237-1.735.166.264 2.675 1.734-.166 1.29 13.016-1.915.182.264 2.674 1.915-.181 2.488-.238.309 3.135 2.731-.259-.31-3.135 1.549-.15.31 3.135 2.73-.258-.32-3.234c3.04-.719 4.465-2.612 4.197-5.328m-11.78-9.685 3.696-.352c2.049-.196 3.299.533 3.469 2.241.165 1.681-.914 2.628-2.963 2.824l-4.196.399-.501-5.065.495-.047Zm5.58 12.608-4.47.424-.315.031-.526-5.303 4.79-.455c2.235-.212 3.525.486 3.706 2.323.181 1.836-.945 2.768-3.18 2.98"/><path fill="#8FFF71" d="M310.973 164.879c-.237-2.39-1.554-3.823-3.324-4.294 1.156-.88 1.838-2.349 1.652-4.237-.233-2.349-1.735-3.885-4.315-4.206l-.29-2.897-2.73.258.268 2.696-1.548.15-.269-2.696-2.73.259.268 2.695-2.488.238-1.734.166.268 2.675 1.735-.166 1.29 13.016-1.915.181.263 2.675 1.915-.181 2.488-.238.31 3.135 2.731-.259-.31-3.135 1.548-.15.31 3.135 2.731-.258-.32-3.234c3.04-.719 4.465-2.612 4.196-5.328Zm-11.779-9.685 3.696-.352c2.049-.196 3.298.533 3.469 2.24.165 1.682-.914 2.628-2.963 2.825l-4.197.398-.5-5.064.495-.047Zm5.58 12.608-4.47.424-.315.031-.527-5.303 4.785-.455c2.235-.212 3.526.486 3.707 2.323.18 1.836-.945 2.768-3.18 2.98Z"/><path fill="#fff" d="M561.948 101.825c0 46.375-37.511 83.965-83.776 83.965-46.264 0-83.775-37.59-83.775-83.965 0-46.374 37.505-83.964 83.775-83.964s83.776 37.595 83.776 83.964Z"/></g><mask id="n" width="168" height="169" x="394" y="17" maskUnits="userSpaceOnUse" style="mask-type:luminance"><path fill="#fff" d="M394.392 101.82c0 46.375 37.511 83.965 83.775 83.965 46.265 0 83.776-37.596 83.776-83.965 0-46.369-37.511-83.964-83.776-83.964-46.264 0-83.775 37.59-83.775 83.964Z"/></mask><g mask="url(#n)"><path fill="#CACACA" d="m428.269 160.699-13.029 64.098-31.858 73.669 16.616 9.064s39.812-63.126 40.277-71.227c.464-8.097 14.37-65.754 14.37-65.754l-26.376-9.855v.005ZM609.978 186.183s-26.495 54.46-37.758 59.572c-11.263 5.116-16.595-2.034-20.534-3.725-3.938-1.692-23.042-45.997-23.042-45.997l21.024-16.979 17.581 33.787 29.288-36.705 13.446 10.052-.005-.005ZM502.701 144.128l.769-63.488c.707-15.789-7.872-29.359-23.641-29.628l-1.456.062c-14.674.606-26.433 12.406-27.006 27.114-.537 13.689-.95 28.816-.562 36.131.81 15.143 16.027 16.871 16.027 16.871.036 0 .093 9.219.088 13.668l12.166 16.922v.905l23.61-18.557h.005Z"/><path fill="#1B1B1B" d="M466.837 131.195s9.549.165 19.444-6.648c0 0-4.269 11.588-19.408 10.849l-.036-4.201ZM459.074 92.094c.005 1.144.981 2.085 2.173 2.096 1.192.015 2.152-.9 2.142-2.044-.005-1.143-.981-2.085-2.168-2.1-1.192-.016-2.152.9-2.147 2.043M454.862 84.748c.279.269 1.863-1.009 4.186-1.102 2.318-.124 4.073 1.004 4.315.709.119-.13-.175-.631-.939-1.138-.754-.507-2.018-.983-3.469-.916-1.445.067-2.643.652-3.319 1.226-.692.58-.914 1.097-.774 1.221ZM479.422 92.094c.005 1.144.98 2.08 2.173 2.096 1.192.015 2.152-.895 2.147-2.044-.005-1.143-.981-2.085-2.168-2.1-1.192-.016-2.152.9-2.147 2.043M477.656 84.345c.279.269 1.869-1.01 4.186-1.097 2.318-.124 4.073 1.003 4.316.709.118-.13-.171-.632-.94-1.139-.753-.507-2.023-.983-3.468-.915-1.446.067-2.643.652-3.319 1.226-.687.58-.914 1.102-.775 1.22M470.058 102.581c.005-.135-1.45-.321-3.799-.528-.599-.036-1.161-.129-1.28-.533-.16-.424.062-1.076.325-1.78.496-1.458 1.022-2.995 1.569-4.599 2.168-6.544 3.717-11.92 3.454-12.007-.264-.083-2.235 5.153-4.409 11.697l-1.491 4.625c-.196.683-.553 1.469-.212 2.344.181.439.625.739 1.012.827.387.099.717.093 1.011.099 2.359.031 3.82-.021 3.825-.156M476.603 77.091c.341.58 2.571-.14 5.311-.31 2.741-.228 5.049.155 5.302-.466.108-.294-.377-.812-1.363-1.252-.976-.44-2.467-.755-4.109-.641-1.641.124-3.071.652-3.974 1.231-.914.58-1.317 1.16-1.167 1.438ZM454.469 77.904c.496.517 2.375-.083 4.651-.171 2.271-.155 4.212.243 4.641-.32.185-.275-.129-.797-.986-1.273-.842-.476-2.24-.849-3.805-.766-1.564.083-2.906.6-3.68 1.164-.79.564-1.037 1.117-.821 1.37"/><path fill="#CACACA" d="M502.701 91.908c.253-.124 10.262-3.508 10.354 6.865.099 10.373-10.313 8.329-10.333 8.034-.021-.294-.026-14.894-.026-14.894"/><path fill="#1B1B1B" d="M505.85 102.845c.046-.037.18.124.485.263.299.135.81.223 1.347.016 1.089-.414 1.992-2.163 2.028-4.03a5.997 5.997 0 0 0-.531-2.582c-.325-.755-.816-1.283-1.368-1.376a.919.919 0 0 0-1.058.507c-.134.29-.067.497-.124.517-.031.026-.222-.17-.145-.6.042-.207.16-.45.403-.651.248-.207.609-.31.996-.275.8.047 1.523.776 1.9 1.594.418.817.671 1.826.65 2.887-.046 2.09-1.094 4.055-2.586 4.506-.728.196-1.337-.016-1.652-.259-.325-.254-.376-.486-.345-.502M477.357 104.019c-.356-.021-.372 2.359-2.416 4.04-2.039 1.687-4.568 1.408-4.589 1.744-.036.15.563.465 1.631.496 1.048.042 2.581-.289 3.83-1.319 1.244-1.029 1.786-2.411 1.869-3.388.093-.994-.165-1.589-.33-1.573M430.483 64.54c.16-.61.593-1.122 1.135-1.448 1.177-.714 2.545-.636 3.861-.672 3.283-.088 6.53-.968 9.441-2.494-1.027-.507-1.987-1.128-2.808-1.93-1.693-1.655-2.684-4.2-1.941-6.45.14-.425.377-.865.801-1 .671-.217 1.264.44 1.739.958 1.559 1.707 2.994 2.431 5.291 2.173 1.424-.16 2.803-.497 3.923-1.211.041-.047.082-.098.129-.145a93.897 93.897 0 0 1 1.564-1.62c3.85-3.915 7.164-6.637 10.597-8.064 5.027-2.096 13.467-3.022 18.753-1.692 5.285 1.324 10.065 5.556 10.855 10.957 2.926-2.535 7.36-2.566 10.974-1.159l.087-.041c4.021 1.386 6.349 5.603 7.578 9.684.067.223.124.45.191.673 1.378 2.137 3.241 3.958 5.451 5.215.392.222.836.491.887.941.052.445-.314.813-.676 1.076a7.944 7.944 0 0 1-3.226 1.387c.377.967.821 1.909 1.363 2.804.459.76 1.006 1.676.624 2.478-.299.62-1.078.885-1.76.791-.681-.093-1.29-.46-1.873-.822.459 1.066.918 2.136 1.378 3.202a9.435 9.435 0 0 1-4.362-.243c-.805 3.839-1.368 10.942-2.323 13.55-2.746.077-3.417-.213-4.8.263-1.786.616-1.064 3.787-3.407 2.913-1.192-.445-3.066-4.936-3.479-6.141a59.392 59.392 0 0 1-2.844-25.04 18.99 18.99 0 0 0-5.91-4.174l.18.16c-4.248-1.423-9.048-2.82-13.043-.781-3.097 1.578-4.889 4.837-7.191 7.45-4.356 4.945-9.322 7.62-15.898 7.977-.542 4.584-.63 12.075-.805 16.353l-3.737-8.51v.036c-.3-.497-.553-.998-.79-1.505l-.083-.156v-.02c-.382-.807-.743-1.62-1.228-2.416-.016.01-.026.026-.041.036-2.287 2.07-5.725-1.014-3.934-3.528a6.033 6.033 0 0 1 1.275-1.31c-1.042 1.004-2.612 1.501-4 1.087-1.389-.409-2.478-1.8-2.374-3.249.072-.988.764-1.878 1.651-2.281-1.863.165-3.778-.217-5.414-1.133-1.074-.6-2.132-1.588-1.786-2.939"/><path fill="#CACACA" d="M489.079 53.697c-.031.042.64.394 1.533 1.377.888.977 1.889 2.68 2.38 5.013.253 1.158.413 2.457.428 3.854.021 1.397-.072 2.897-.16 4.475-.082 1.578-.175 3.249-.057 4.977.062.864.176 1.743.372 2.622.201.864.439 1.8 1.099 2.535.527.6 1.394.86 2.148.694a3.401 3.401 0 0 0 1.91-1.113c.96-1.148 1.187-2.597 1.414-3.874l-.315.04c.532 1.139 1.079 2.267 1.879 3.162.79.9 1.869 1.49 2.963 1.572a2.947 2.947 0 0 0 1.559-.29c.475-.237.815-.635 1.047-1.06.222-.43.336-.9.305-1.35a1.89 1.89 0 0 0-.501-1.174l-.16.145a9.794 9.794 0 0 0 3.283 2.41c.434.197.78.31 1.012.383.237.067.361.093.361.088 0-.01-.113-.057-.34-.14a11.37 11.37 0 0 1-.981-.429 10.105 10.105 0 0 1-3.169-2.447l-.16.145c.516.538.557 1.485.123 2.255-.216.378-.531.735-.949.937-.413.212-.914.29-1.415.248-1.006-.088-2.013-.641-2.751-1.495-.754-.854-1.285-1.95-1.812-3.094l-.222-.48-.093.527c-.227 1.273-.469 2.664-1.347 3.704a3.066 3.066 0 0 1-1.708.993 1.928 1.928 0 0 1-1.822-.59c-.579-.636-.821-1.52-1.012-2.369a17.766 17.766 0 0 1-.367-2.566c-.123-1.702-.036-3.363.037-4.935.082-1.578.165-3.084.129-4.501a18.753 18.753 0 0 0-.48-3.9c-.532-2.36-1.59-4.088-2.525-5.05-.944-.968-1.636-1.283-1.636-1.283M442.396 69.005s.036.042.124.104c.103.072.227.16.382.274.165.124.377.264.645.404.263.15.563.325.929.475 1.414.652 3.675 1.294 6.494 1.097 2.792-.191 6.132-1.22 9.1-3.487 2.999-2.214 5.621-5.458 7.748-9.162 1.078-1.852 1.956-3.745 2.926-5.494.966-1.754 2.029-3.373 3.33-4.661 1.285-1.294 2.782-2.256 4.336-2.706.774-.238 1.553-.3 2.297-.295a8.129 8.129 0 0 1 2.111.383 8.72 8.72 0 0 1 3.179 1.868 8.662 8.662 0 0 1 1.735 2.204c.702 1.386.753 2.281.805 2.266.005 0 0-.052-.016-.16l-.077-.467c-.077-.403-.258-.993-.594-1.707a8.723 8.723 0 0 0-1.718-2.286 8.792 8.792 0 0 0-3.237-1.961 8.138 8.138 0 0 0-2.178-.414c-.769-.02-1.59.041-2.39.285-1.61.455-3.159 1.438-4.48 2.752-1.337 1.309-2.432 2.959-3.407 4.723-.981 1.764-1.858 3.653-2.932 5.49-2.111 3.672-4.692 6.88-7.639 9.073-2.917 2.246-6.174 3.28-8.925 3.503-2.772.227-5.007-.362-6.421-.973-1.425-.615-2.106-1.174-2.132-1.128"/><path fill="#CACACA" d="M440.941 62.347s.18.15.547.373c.361.227.914.507 1.616.802.702.3 1.569.579 2.555.807a17.85 17.85 0 0 0 3.262.398 18.124 18.124 0 0 0 3.278-.259c.991-.186 1.873-.43 2.586-.703.717-.27 1.28-.523 1.646-.735.372-.207.573-.326.563-.346-.031-.063-.862.382-2.292.843-.712.238-1.585.45-2.56.615-.981.15-2.07.244-3.216.228a19.302 19.302 0 0 1-3.2-.362 17.284 17.284 0 0 1-2.535-.724c-1.409-.523-2.224-.999-2.255-.942"/><path fill="#8FFF71" d="m427.83 280.897 3.024-52.923.176-12.836-19.78-9.4 13.379-44.113c1.982-4.796 5.689-8.749 10.474-10.73.273-.114.541-.217.805-.31l30.924-10.989c1.621 5.039 9.719 8.454 16.791 8.847 13.059.284 19.966-10.942 19.966-10.942s.036.01.098.031c1.512.476 17.054 4.734 25.664 9.266 3.164 1.314 9.998 6.125 14.53 13.911 6.143 10.543 18.443 39.789 18.443 39.789l-33.747 11.35c-.258-1.221-.62-2.913-1.017-4.796 0 .021.01.047.015.068l-4.067 44.32 1.915 25.438s5.848 7.025 6.168 11.619v8.604c-20.141 6.089-46.972 12.602-66.447 14.278-.212.021-.423.036-.64.057-9.818.802-19.491.595-28.952-1.071-.284-.052-.568-.109-.852-.165a88.815 88.815 0 0 1-10.571-2.623c-.145-.047-.284-.083-.429-.13 0 0 .79-16.912 2.628-21.516 1.837-4.609 1.496-5.028 1.496-5.028"/><path fill="#263238" d="M429.177 169.68c.052 0 .098.703.175 1.966.099 1.396.222 3.202.372 5.364.32 4.532.774 10.792 1.141 17.714.377 6.927.542 13.208.495 17.76-.02 2.277-.082 4.113-.175 5.386-.088 1.267-.165 1.971-.212 1.966-.046 0-.067-.709-.062-1.976.011-1.268 0-3.105-.046-5.376-.083-4.537-.325-10.802-.702-17.724-.367-6.917-.749-13.182-.94-17.724a145.2 145.2 0 0 1-.149-5.385c.005-1.273.051-1.977.093-1.977M531.875 170.906c.047.01-.015.631-.175 1.754-.181 1.257-.413 2.845-.692 4.739a477.737 477.737 0 0 0-2.044 15.654 474.744 474.744 0 0 0-1.481 15.722c-.15 1.904-.279 3.508-.377 4.775-.093 1.128-.171 1.749-.222 1.749-.047 0-.067-.631-.052-1.759.011-1.133.062-2.768.155-4.791.186-4.045.589-9.627 1.28-15.768.692-6.141 1.538-11.671 2.251-15.655.356-1.992.671-3.601.913-4.708.243-1.107.398-1.712.444-1.707"/></g><mask id="o" width="993" height="560" x="-136" y="-49" maskUnits="userSpaceOnUse" style="mask-type:luminance"><path fill="#fff" d="M856.028-48.364h-991.056v558.728h991.056V-48.364Z"/></mask><g mask="url(#o)"><path fill="#1B1B1B" d="M561.839 161.185c1.223 12.333-7.985 23.296-20.564 24.496-12.58 1.2-23.77-7.827-24.988-20.156-1.224-12.333 7.985-23.301 20.564-24.496 12.579-1.2 23.77 7.828 24.993 20.156"/><path fill="#8FFF71" d="M560.993 159.374c1.223 12.334-7.986 23.296-20.565 24.496-12.579 1.2-23.77-7.827-24.988-20.155-1.223-12.334 7.985-23.301 20.565-24.496 12.579-1.201 23.769 7.827 24.993 20.155"/><path fill="#3F3F3F" d="M555.444 159.664c.908 9.162-6.127 17.331-15.713 18.241-9.585.916-18.092-5.773-19-14.935-.909-9.162 6.127-17.331 15.712-18.242 9.586-.915 18.092 5.774 19.001 14.936Z"/><path fill="#CACACA" d="M539.726 177.838c-9.415.895-17.803-5.727-18.975-14.868.011.16.021.326.037.486.929 9.39 9.451 16.265 19.036 15.349 9.58-.91 16.595-9.265 15.661-18.66-.016-.16-.041-.321-.062-.481.645 9.193-6.282 17.274-15.697 18.174Z"/><path fill="#1B1B1B" d="M536.448 144.801c9.415-.895 17.803 5.727 18.975 14.868-.01-.16-.021-.326-.036-.486-.929-9.39-9.451-16.265-19.037-15.35-9.58.916-16.595 9.266-15.661 18.661.016.16.042.321.062.481-.645-9.193 6.282-17.274 15.697-18.174Z"/><path fill="#1B1B1B" d="M547.613 165.298c-.237-2.39-1.553-3.823-3.324-4.294 1.156-.88 1.838-2.349 1.652-4.237-.232-2.349-1.734-3.885-4.315-4.206l-.289-2.897-2.731.258.268 2.696-1.548.15-.268-2.695-2.731.258.268 2.696-2.488.237-1.734.166.263 2.675 1.735-.166 1.29 13.016-1.915.182.263 2.674 1.915-.181 2.488-.238.31 3.135 2.731-.259-.31-3.135 1.548-.15.31 3.135 2.731-.258-.32-3.234c3.04-.719 4.465-2.612 4.196-5.328m-11.779-9.685 3.696-.352c2.054-.196 3.298.533 3.469 2.241.165 1.681-.914 2.628-2.963 2.824l-4.197.399-.501-5.065.496-.047Zm5.58 12.608-4.47.424-.315.031-.527-5.303 4.791-.455c2.235-.212 3.52.486 3.706 2.323.18 1.836-.945 2.768-3.18 2.98"/><path fill="#8FFF71" d="M546.313 164.879c-.238-2.39-1.554-3.823-3.324-4.294 1.156-.88 1.837-2.349 1.651-4.237-.232-2.349-1.734-3.885-4.315-4.206l-.289-2.897-2.73.258.268 2.696-1.549.15-.268-2.696-2.731.259.269 2.695-2.488.238-1.734.166.263 2.675 1.734-.166 1.291 13.016-1.915.181.263 2.675 1.915-.181 2.488-.238.309 3.135 2.731-.259-.31-3.135 1.549-.15.31 3.135 2.73-.258-.32-3.234c3.04-.719 4.465-2.612 4.197-5.328m-11.779-9.685 3.695-.352c2.055-.196 3.299.533 3.469 2.24.165 1.682-.914 2.628-2.963 2.825l-4.196.398-.501-5.064.496-.047Zm5.579 12.608-4.47.424-.315.031-.526-5.303 4.79-.455c2.235-.212 3.52.486 3.706 2.323.181 1.836-.944 2.768-3.179 2.98M380.388 107.532h-39.782a2.833 2.833 0 0 1-2.828-2.835v-.031a2.837 2.837 0 0 1 2.828-2.841h39.782a2.835 2.835 0 0 1 2.829 2.841v.031a2.833 2.833 0 0 1-2.829 2.835ZM210.293 261.58h29.995l-9.173-9.188 36.329-36.41a8.28 8.28 0 0 0 0-11.682 8.225 8.225 0 0 0-11.656 0l-36.328 36.41-9.167-9.193v30.063Z"/><path stroke="#1B1B1B" stroke-miterlimit="10" stroke-width="2" d="m225.84 234.316-6.375 6.389-9.167-9.188v30.063h29.995l-9.167-9.188 36.328-36.411c3.216-3.223 3.216-8.453 0-11.681-3.216-3.228-8.434-3.223-11.655 0l-22.846 22.897-7.108 7.124-.005-.005Z"/><path fill="#8FFF71" d="m360.5 282.889 21.209-21.258h-12.966v-51.496c0-4.562-3.691-8.261-8.243-8.261-4.553 0-8.244 3.699-8.244 8.261v51.496H339.29l21.21 21.258Z"/><path stroke="#1B1B1B" stroke-miterlimit="10" stroke-width="2" d="M352.256 252.594v9.038H339.29l21.21 21.257 21.209-21.257h-12.966v-51.496c0-4.563-3.691-8.257-8.238-8.257-4.548 0-8.243 3.699-8.243 8.257v42.458h-.006Z"/><path fill="#8FFF71" d="M510.707 261.58v-30.063l-9.167 9.193-36.329-36.41a8.233 8.233 0 0 0-11.655 0c-3.221 3.223-3.216 8.453 0 11.682l36.328 36.41-9.172 9.188h29.995Z"/><path stroke="#1B1B1B" stroke-miterlimit="10" stroke-width="2" d="m483.504 245.998 6.375 6.394-9.172 9.188h29.995v-30.063l-9.168 9.188-36.328-36.41a8.233 8.233 0 0 0-11.655 0c-3.216 3.223-3.216 8.453 0 11.681l22.846 22.898 7.107 7.124Z"/></g></g></g><defs><clipPath id="a"><path fill="#fff" d="M0 0h721v462H0z"/></clipPath></defs></svg>