<svg xmlns="http://www.w3.org/2000/svg" fill="none" viewBox="0 0 129 32"><path fill="#0F6" d="M44.444 4.38H40.25v22.844h15.448v-3.929H44.444V4.38ZM82.004 11.485l-.066-.075c-1.39-1.586-3.248-2.389-5.524-2.389-2.444 0-4.564.904-6.301 2.686-1.737 1.781-2.618 3.979-2.618 6.533 0 2.554.881 4.7 2.617 6.515 1.736 1.815 3.857 2.735 6.3 2.735 2.257 0 4.116-.794 5.525-2.363l.065-.073v2.17h4.062V9.322h-4.062v2.164h.002ZM80.636 22.13c-1.062 1.084-2.36 1.634-3.854 1.634-1.495 0-2.848-.544-3.887-1.617-1.04-1.073-1.569-2.387-1.569-3.906 0-1.519.534-2.805 1.587-3.89 1.05-1.083 2.352-1.632 3.87-1.632 1.518 0 2.792.55 3.854 1.633 1.063 1.086 1.602 2.394 1.602 3.889 0 1.495-.54 2.805-1.602 3.889h-.001ZM104.563 11c-1.471-1.313-3.252-1.979-5.295-1.979-2.186 0-3.978.791-5.323 2.35l-.066.076V9.32h-4.061v17.903h4.061v-9.219c0-1.476.44-2.725 1.306-3.71.862-.982 1.99-1.48 3.35-1.48 1.164 0 2.164.405 2.972 1.202.808.796 1.217 1.902 1.217 3.287v9.919h4.061V16.27c0-2.18-.748-3.954-2.222-5.271ZM124.75 9.288v2.164l-.067-.076c-1.39-1.585-3.248-2.388-5.524-2.388-2.444 0-4.563.904-6.301 2.686-1.737 1.781-2.617 3.979-2.617 6.532 0 2.555.88 4.7 2.616 6.515 1.737 1.816 3.857 2.736 6.301 2.736 2.256 0 4.115-.795 5.524-2.363l.066-.073v2.17h4.061V9.288h-4.061.002Zm-1.369 12.808c-1.062 1.084-2.359 1.634-3.854 1.634-1.494 0-2.846-.544-3.887-1.617s-1.569-2.388-1.569-3.907c0-1.518.533-2.805 1.586-3.889 1.051-1.084 2.353-1.633 3.87-1.633 1.518 0 2.792.55 3.854 1.633 1.064 1.086 1.602 2.395 1.602 3.89 0 1.494-.539 2.805-1.602 3.889ZM59.743 9.322v17.902h4.061V9.322h-3.448c-.025 0-.028-.038-.003-.04a4.063 4.063 0 0 0 3.451-4.017V4.38h-4.061v4.943ZM12.519 31.564c6.473 0 11.721-5.248 11.721-11.721-6.473 0-11.721 5.248-11.721 11.721ZM12.519.306C6.045.306.797 5.554.797 12.027v19.536c6.474 0 11.722-5.248 11.722-11.721V.306Z"/></svg>