<svg xmlns="http://www.w3.org/2000/svg" fill="none" viewBox="0 0 90 108"><path fill="#F4F4F4" d="M41.24 47.696s-.016.008-.016.016v2.227c0 .995-.872 1.792-1.894 1.666-.86-.102-1.479-.876-1.479-1.74v-2.157s-.008-.016-.016-.016h-5.06s-.016.008-.016.016v2.047c0 3.98 3.27 7.19 7.254 6.91 3.514-.243 6.3-3.17 6.3-6.733v-2.228s-.009-.016-.017-.016h-5.06l.004.008ZM13.75 47.696H.016S0 47.704 0 47.712v9.606s.008.016.016.016h4.3s.015-.008.015-.016v-5.292s.008-.016.016-.016h4s.02.008.015.02L3.605 73.285s0 .012.008.016l5.282 3.536s.008.007.008.011v19.876s.008.016.015.016h4.3s.016-.008.016-.016V74.546s0-.012-.008-.012L8.485 71.36s-.008-.012-.008-.016l5.285-23.632s-.004-.02-.016-.02l.004.004ZM5.46 39.394l1.17 4.157h.502l1.175-4.157s.004-.008.012-.011l4.173-1.171v-.5l-4.173-1.17s-.008-.004-.012-.012l-1.175-4.157H6.63L5.459 36.53s-.004.008-.012.012l-4.177 1.17v.5l4.177 1.17s.008.005.012.012Z"/><path fill="#F4F4F4" d="M89.63 36.094H73.983c-6.623-5.115-14.61-8.058-23.08-8.482h-1.755l-.97-5.253-.466-2.577 3.156 2.62 5.495-5.296L44.143 0v.02l-.02-.02-14.401 10.262-3.077 17.244s-.008.012-.016.012h-5.396s-.016.008-.016.015v4.326s.008.016.016.016h9.278c-.182.102-.36.2-.54.302-1.35.79-3.5 2.629-4.608 3.858-3.708 3.91-5.846 9.288-5.605 14.675.45 10.061 8.713 18.308 18.811 18.78.41.02.82.02 1.23.015 4.734.004 9.144 1.925 12.41 5.343 3.266 3.415 4.935 7.897 4.706 12.624-.422 8.659-7.562 15.77-16.255 16.191-4.745.227-9.246-1.434-12.674-4.688-2.895-2.746-4.694-6.305-5.183-10.183 0-.008.008-.02.016-.02H45.53s.016.008.016.016v7.94s.008.016.016.016h4.3s.015-.008.015-.016V84.474s-.008-.016-.016-.016H18.35s-.016.008-.016.016v1.972c0 5.674 2.181 11.158 6.189 15.193 4.094 4.122 9.502 6.361 15.265 6.361.359 0 .722-.008 1.08-.028 2.99-.145 5.89-.915 8.525-2.231.012-.004.023 0 .023.016v1.94s.008.016.016.016c21.738-.008 39.524-17.31 40.198-38.809h.02v-32.79s-.008-.016-.016-.016l-.004-.004Zm-55.85-23.36 9.313-6.64c.202.259.39.506.395.51l6.792 9.56s-.008.035-.023.019l-5.574-4.644s-.016-.004-.024 0l-4.477 5.426s0 .027.016.023l2.485-.44.407 2.26.118.683h-10.67l1.247-6.765-.004.007ZM31.726 23.86h12.272l.658 3.654H31.161s-.015-.008-.015-.02l.58-3.634ZM53.4 103.175s-.023-.019-.011-.027a22.358 22.358 0 0 0 1.577-1.422c3.787-3.772 6.016-8.762 6.272-14.046.288-5.917-1.807-11.531-5.897-15.81a21.399 21.399 0 0 0-6.5-4.655c-.012-.004-.012-.02 0-.028a19.908 19.908 0 0 0 4.323-3.123c3.416-3.25 5.506-7.477 6.007-12.077 0-.008.008-.016.016-.016h1.093c4.33 0 7.841 3.496 7.841 7.81v5.308s.008.016.016.016h4.3s.015-.008.015-.016v-5.308c0-6.698-5.451-12.124-12.172-12.124h-5.306s-.016.008-.016.016v1.917c0 4.003-1.46 7.905-4.228 10.804-3.144 3.293-7.424 5.002-11.956 4.79-7.885-.366-14.334-6.805-14.685-14.66-.19-4.203 1.598-8.442 4.441-11.534l.032-.035c-.012.011-.02.023-.032.035.02-.02.115-.126.044-.051.816-.904 2.63-2.471 3.597-3.037 4.734-2.774 9.625-3.976 16.354-4.023h.264c9.834 0 19.06 3.78 26.002 10.662C81.6 49.288 85.335 58.23 85.32 67.715c-.035 18.335-14.023 33.485-31.915 35.465l-.004-.004Zm31.915-53.593s-.024.024-.031.008c-1.7-3.3-3.882-6.38-6.509-9.154-.008-.012 0-.028.012-.028h6.508s.016.008.016.016v9.158h.004Z"/></svg>