<svg xmlns="http://www.w3.org/2000/svg" fill="none" viewBox="0 0 255 86"><path fill="#000" d="M218.134 80.585v5.414h36.865V61.58h-5.371v19.004h-31.494Zm0-80.585v5.414h31.494V24.42h5.371V0h-36.865Zm-19.011 41.885v-12.58h8.426c4.108 0 5.583 1.38 5.583 5.149v2.23c0 3.874-1.422 5.201-5.583 5.201h-8.426Zm13.376 2.23c3.844-1.009 6.529-4.62 6.529-8.918 0-2.708-1.052-5.15-3.054-7.115-2.527-2.442-5.899-3.663-10.269-3.663h-11.849v37.16h5.267V46.77h7.9c4.054 0 5.688 1.699 5.688 5.946v8.866h5.371v-8.017c0-5.839-1.369-8.068-5.583-8.706v-.743Zm-44.342 1.22h16.221v-4.883h-16.221V29.303h17.8V24.42h-23.172v37.16h23.962v-4.883h-18.59v-11.36ZM150.513 47.3v2.547c0 5.362-1.949 7.115-6.845 7.115h-1.159c-4.899 0-7.268-1.594-7.268-8.972v-9.98c0-7.432 2.475-8.973 7.373-8.973h1.052c4.793 0 6.32 1.805 6.372 6.796h5.793c-.526-7.326-5.371-11.944-12.639-11.944-3.528 0-6.477 1.115-8.689 3.238-3.318 3.132-5.161 8.44-5.161 15.872 0 7.167 1.58 12.476 4.845 15.767 2.211 2.176 5.267 3.344 8.268 3.344 3.16 0 6.058-1.275 7.531-4.035h.736v3.504h4.845V42.416h-14.272V47.3h9.218Zm-46.448-17.997h5.741c5.425 0 8.374 1.38 8.374 8.813v9.767c0 7.431-2.949 8.813-8.374 8.813h-5.741V29.303Zm6.214 32.278c10.059 0 13.797-7.698 13.797-18.58 0-11.042-4.002-18.58-13.903-18.58H98.797v37.16h11.482ZM73.361 45.335h16.221v-4.883h-16.22V29.303h17.8V24.42H67.988v37.16h23.964v-4.883h-18.59v-11.36ZM42.29 24.42h-5.372v37.16h24.226v-4.883H42.29V24.419ZM0 61.581V86h36.865v-5.415H5.37V61.58H0ZM0 0v24.42h5.371V5.413h31.494V0H0Z"/></svg>