<svg xmlns="http://www.w3.org/2000/svg" fill="none" viewBox="0 0 1676 57"><path fill="#000" d="M21.555.36h34.307v34.397c0 11.904-9.65 21.554-21.554 21.554H0V21.914C0 10.009 9.65.359 21.555.359ZM87.206 56.58c14.484 0 26.225-11.74 26.225-26.224-14.484 0-26.225 11.741-26.225 26.225ZM60.981 56.58c14.484 0 26.225-11.74 26.225-26.224-14.483 0-26.225 11.741-26.225 26.225ZM145.044 0c-14.88 0-26.943 9.5-26.943 21.218V56.58c14.88 0 26.943-9.5 26.943-21.218V0ZM115.586 26.943C115.586 12.063 106.087 0 94.368 0H59.006c0 14.88 9.499 26.943 21.217 26.943h35.363ZM174.599.36h34.307v34.397c0 11.904-9.65 21.554-21.554 21.554h-34.308V21.914c0-11.905 9.65-21.555 21.555-21.555ZM240.25 56.58c14.484 0 26.225-11.74 26.225-26.224-14.484 0-26.225 11.741-26.225 26.225ZM214.026 56.58c14.483 0 26.224-11.74 26.224-26.224-14.483 0-26.224 11.741-26.224 26.225ZM298.088 0c-14.88 0-26.943 9.5-26.943 21.218V56.58c14.88 0 26.943-9.5 26.943-21.218V0ZM268.63 26.943C268.63 12.063 259.131 0 247.413 0H212.05c0 14.88 9.499 26.943 21.217 26.943h35.363ZM327.643.36h34.307v34.397c0 11.904-9.65 21.554-21.554 21.554h-34.308V21.914c0-11.905 9.65-21.555 21.555-21.555ZM393.294 56.58c14.484 0 26.225-11.74 26.225-26.224-14.484 0-26.225 11.741-26.225 26.225ZM367.069 56.58c14.484 0 26.225-11.74 26.225-26.224-14.483 0-26.225 11.741-26.225 26.225ZM451.132 0c-14.88 0-26.943 9.5-26.943 21.218V56.58c14.88 0 26.943-9.5 26.943-21.218V0ZM421.674 26.943c0-14.88-9.499-26.943-21.217-26.943h-35.363c0 14.88 9.499 26.943 21.217 26.943h35.363ZM480.687.36h34.308v34.397c0 11.904-9.651 21.554-21.555 21.554h-34.308V21.914c0-11.905 9.651-21.555 21.555-21.555ZM546.338 56.58c14.484 0 26.225-11.74 26.225-26.224-14.483 0-26.225 11.741-26.225 26.225ZM520.114 56.58c14.483 0 26.224-11.74 26.224-26.224-14.483 0-26.224 11.741-26.224 26.225ZM604.176 0c-14.88 0-26.943 9.5-26.943 21.218V56.58c14.88 0 26.943-9.5 26.943-21.218V0ZM574.719 26.943c0-14.88-9.5-26.943-21.218-26.943h-35.363c0 14.88 9.499 26.943 21.218 26.943h35.363ZM633.731.36h34.307v34.397c0 11.904-9.65 21.554-21.554 21.554h-34.308V21.914c0-11.905 9.651-21.555 21.555-21.555ZM699.382 56.58c14.484 0 26.225-11.74 26.225-26.224-14.483 0-26.225 11.741-26.225 26.225ZM673.158 56.58c14.483 0 26.224-11.74 26.224-26.224-14.483 0-26.224 11.741-26.224 26.225ZM757.22 0c-14.88 0-26.943 9.5-26.943 21.218V56.58c14.88 0 26.943-9.5 26.943-21.218V0ZM727.762 26.943c0-14.88-9.499-26.943-21.217-26.943h-35.363c0 14.88 9.499 26.943 21.217 26.943h35.363ZM786.775.36h34.308v34.397c0 11.904-9.651 21.554-21.555 21.554H765.22V21.914c0-11.905 9.651-21.555 21.555-21.555ZM852.427 56.58c14.483 0 26.224-11.74 26.224-26.224-14.483 0-26.224 11.741-26.224 26.225ZM826.202 56.58c14.483 0 26.224-11.74 26.224-26.224-14.483 0-26.224 11.741-26.224 26.225ZM910.264 0c-14.88 0-26.943 9.5-26.943 21.218V56.58c14.881 0 26.943-9.5 26.943-21.218V0ZM880.807 26.943c0-14.88-9.5-26.943-21.218-26.943h-35.363c0 14.88 9.499 26.943 21.218 26.943h35.363ZM939.819.36h34.308v34.397c0 11.904-9.651 21.554-21.555 21.554h-34.308V21.914c0-11.905 9.651-21.555 21.555-21.555ZM1005.47 56.58c14.48 0 26.22-11.74 26.22-26.224-14.48 0-26.22 11.741-26.22 26.225ZM979.246 56.58c14.483 0 26.224-11.74 26.224-26.224-14.483 0-26.224 11.741-26.224 26.225ZM1063.31 0c-14.88 0-26.94 9.5-26.94 21.218V56.58c14.88 0 26.94-9.5 26.94-21.218V0ZM1033.85 26.943c0-14.88-9.5-26.943-21.22-26.943h-35.36c0 14.88 9.499 26.943 21.218 26.943h35.362ZM1092.86.36h34.31v34.397c0 11.904-9.65 21.554-21.55 21.554h-34.31V21.914c0-11.905 9.65-21.555 21.55-21.555ZM1158.51 56.58c14.49 0 26.23-11.74 26.23-26.224-14.48 0-26.23 11.741-26.23 26.225ZM1132.29 56.58c14.48 0 26.22-11.74 26.22-26.224-14.48 0-26.22 11.741-26.22 26.225ZM1216.35 0c-14.88 0-26.94 9.5-26.94 21.218V56.58c14.88 0 26.94-9.5 26.94-21.218V0ZM1186.9 26.943c0-14.88-9.5-26.943-21.22-26.943h-35.37c0 14.88 9.5 26.943 21.22 26.943h35.37ZM1245.91.36h34.3v34.397c0 11.904-9.65 21.554-21.55 21.554h-34.31V21.914c0-11.905 9.65-21.555 21.56-21.555ZM1311.56 56.58c14.48 0 26.22-11.74 26.22-26.224-14.48 0-26.22 11.741-26.22 26.225ZM1285.33 56.58c14.49 0 26.23-11.74 26.23-26.224-14.48 0-26.23 11.741-26.23 26.225ZM1369.4 0c-14.88 0-26.95 9.5-26.95 21.218V56.58c14.88 0 26.95-9.5 26.95-21.218V0ZM1339.94 26.943c0-14.88-9.5-26.943-21.22-26.943h-35.36c0 14.88 9.5 26.943 21.22 26.943h35.36ZM1398.95.36h34.31v34.397c0 11.904-9.65 21.554-21.56 21.554h-34.3V21.914c0-11.905 9.65-21.555 21.55-21.555ZM1464.6 56.58c14.49 0 26.23-11.74 26.23-26.224-14.49 0-26.23 11.741-26.23 26.225ZM1438.38 56.58c14.48 0 26.22-11.74 26.22-26.224-14.48 0-26.22 11.741-26.22 26.225ZM1522.44 0c-14.88 0-26.94 9.5-26.94 21.218V56.58c14.88 0 26.94-9.5 26.94-21.218V0ZM1492.98 26.943c0-14.88-9.5-26.943-21.21-26.943h-35.37c0 14.88 9.5 26.943 21.22 26.943h35.36ZM1552 .36h34.3v34.397c0 11.904-9.65 21.554-21.55 21.554h-34.31V21.914c0-11.905 9.65-21.555 21.56-21.555ZM1617.65 56.58c14.48 0 26.22-11.74 26.22-26.224-14.48 0-26.22 11.741-26.22 26.225ZM1591.42 56.58c14.49 0 26.23-11.74 26.23-26.224-14.49 0-26.23 11.741-26.23 26.225ZM1675.48 0c-14.88 0-26.94 9.5-26.94 21.218V56.58c14.88 0 26.94-9.5 26.94-21.218V0ZM1646.03 26.943c0-14.88-9.5-26.943-21.22-26.943h-35.36c0 14.88 9.5 26.943 21.21 26.943h35.37Z"/></svg>