<svg fill="none" xmlns="http://www.w3.org/2000/svg" viewBox="0 0 116 124">
    <path
        d="M115.217 58.344c3.023 32.594-19.77 61.568-50.937 64.735-31.166 3.167-58.887-20.684-61.91-53.262C-.653 37.24 22.14 8.25 53.307 5.082c31.167-3.167 58.887 20.684 61.91 53.262Z"
        fill="#1B1B1B" />
    <path
        d="M113.116 53.544c3.023 32.594-19.77 61.568-50.937 64.735C31.013 121.447 3.292 97.595.27 65.017-2.754 32.44 20.054 3.45 51.206.282c31.167-3.167 58.887 20.684 61.91 53.262Z"
        fill="#00ff66" />
    <path
        d="M60.442 102.346c-23.323 2.375-44.105-15.142-47.007-39.284.03.42.045.856.09 1.277 2.313 24.82 23.413 42.984 47.159 40.576 23.73-2.408 41.112-24.482 38.8-49.303-.046-.436-.107-.856-.152-1.276 1.602 24.288-15.568 45.65-38.89 48.026"
        fill="#CACACA" />
    <path
        d="M52.325 15.036C75.647 12.661 96.428 30.178 99.33 54.32c-.03-.42-.045-.857-.09-1.277-2.313-24.82-23.413-42.984-47.158-40.576-23.73 2.407-41.113 24.481-38.8 49.303.045.436.106.856.151 1.276-1.602-24.288 15.568-45.65 38.89-48.026"
        fill="#1B1B1B" />
    <path
        d="M99.376 54.32c2.252 24.206-15.175 45.796-38.92 48.203-23.746 2.408-44.816-15.254-47.068-39.478-2.252-24.207 15.175-45.796 38.92-48.204 23.746-2.407 44.816 15.255 47.068 39.478Z"
        fill="#3F3F3F" />
    <path
        d="M59.435 35.24c12.943 0 23.435 11.204 23.435 25.026 0 10.336-5.868 19.21-14.241 23.027L62.728 66.9c2.224-1.26 3.738-3.757 3.738-6.635 0-4.147-3.148-7.508-7.03-7.508-3.884 0-7.032 3.361-7.032 7.508 0 2.878 1.517 5.376 3.74 6.637l-5.9 16.392C41.868 79.474 36 70.602 36 60.266 36 46.444 46.492 35.24 59.435 35.24Z"
        fill="#000" />
    <path
        d="M56.435 34.172c12.943 0 23.435 11.205 23.435 25.026 0 10.336-5.868 19.21-14.241 23.027l-5.901-16.392c2.224-1.26 3.738-3.757 3.738-6.635 0-4.147-3.148-7.508-7.03-7.508-3.884 0-7.032 3.361-7.032 7.508 0 2.878 1.517 5.376 3.74 6.637l-5.9 16.392C38.868 78.406 33 69.534 33 59.198c0-13.822 10.492-25.026 23.435-25.026Z"
        fill="#00ff66" />
</svg>