<svg fill="none" xmlns="http://www.w3.org/2000/svg" viewBox="0 0 116 124">
    <path
        d="M115.217 58.344c3.023 32.594-19.77 61.568-50.937 64.735-31.166 3.167-58.887-20.684-61.91-53.262C-.653 37.24 22.14 8.25 53.307 5.082c31.167-3.167 58.887 20.684 61.91 53.262Z"
        fill="#1B1B1B" />
    <path
        d="M113.116 53.544c3.023 32.594-19.77 61.568-50.937 64.735C31.013 121.447 3.292 97.595.27 65.017-2.754 32.44 20.054 3.45 51.206.282c31.167-3.167 58.887 20.684 61.91 53.262Z"
        fill="#00ff66" />
    <path
        d="M60.442 102.346c-23.323 2.375-44.105-15.142-47.007-39.284.03.42.045.856.09 1.277 2.313 24.82 23.413 42.984 47.159 40.576 23.73-2.408 41.112-24.482 38.8-49.303-.046-.436-.107-.856-.152-1.276 1.602 24.288-15.568 45.65-38.89 48.026"
        fill="#CACACA" />
    <path
        d="M52.325 15.036C75.647 12.661 96.428 30.178 99.33 54.32c-.03-.42-.045-.857-.09-1.277-2.313-24.82-23.413-42.984-47.158-40.576-23.73 2.407-41.113 24.481-38.8 49.303.045.436.106.856.151 1.276-1.602-24.288 15.568-45.65 38.89-48.026"
        fill="#1B1B1B" />
    <path
        d="M99.376 54.32c2.252 24.206-15.175 45.796-38.92 48.203-23.746 2.408-44.816-15.254-47.068-39.478-2.252-24.207 15.175-45.796 38.92-48.204 23.746-2.407 44.816 15.255 47.068 39.478Z"
        fill="#3F3F3F" />
    <path
        d="m49.925 40.358-1.34-2.8h-.06v9.4h-2.86v-13.96h3.32l3.82 6.6 1.34 2.8h.06v-9.4h2.86v13.96h-3.32l-3.82-6.6Zm15.813 6.84c-.92 0-1.76-.153-2.52-.46a5.122 5.122 0 0 1-1.94-1.36c-.534-.613-.947-1.366-1.24-2.26-.294-.906-.44-1.953-.44-3.14 0-1.186.146-2.226.44-3.12.293-.906.706-1.66 1.24-2.26a5.025 5.025 0 0 1 1.94-1.38c.76-.306 1.6-.46 2.52-.46.92 0 1.76.154 2.52.46.76.307 1.406.767 1.94 1.38.533.6.946 1.354 1.24 2.26.293.894.44 1.934.44 3.12 0 1.187-.147 2.234-.44 3.14-.294.894-.707 1.647-1.24 2.26a5.123 5.123 0 0 1-1.94 1.36c-.76.307-1.6.46-2.52.46Zm0-2.7c.92 0 1.633-.3 2.14-.9.52-.6.78-1.46.78-2.58v-2.08c0-1.12-.26-1.98-.78-2.58-.507-.6-1.22-.9-2.14-.9-.92 0-1.64.3-2.16.9-.507.6-.76 1.46-.76 2.58v2.08c0 1.12.253 1.98.76 2.58.52.6 1.24.9 2.16.9ZM38.648 59.69v20.268h-5.472V59.69h-6.804v-4.86h19.08v4.86h-6.804Zm21.551 0v20.268h-5.472V59.69h-6.804v-4.86h19.08v4.86H60.2Zm10.548 20.268V54.83h11.88c1.176 0 2.232.204 3.168.612a6.64 6.64 0 0 1 2.376 1.62c.672.696 1.188 1.548 1.548 2.556.36.984.54 2.064.54 3.24 0 1.2-.18 2.292-.54 3.276-.36.984-.876 1.824-1.548 2.52a7.046 7.046 0 0 1-2.376 1.656c-.936.384-1.992.576-3.168.576h-6.408v9.072h-5.472Zm5.472-13.824h5.76c.816 0 1.452-.204 1.908-.612.48-.432.72-1.056.72-1.872v-1.584c0-.816-.24-1.428-.72-1.836-.456-.432-1.092-.648-1.908-.648h-5.76v6.552Z"
        fill="#000" />
    <path
        d="m46.925 39.358-1.34-2.8h-.06v9.4h-2.86v-13.96h3.32l3.82 6.6 1.34 2.8h.06v-9.4h2.86v13.96h-3.32l-3.82-6.6Zm15.813 6.84c-.92 0-1.76-.153-2.52-.46a5.122 5.122 0 0 1-1.94-1.36c-.534-.613-.947-1.366-1.24-2.26-.294-.906-.44-1.953-.44-3.14 0-1.186.146-2.226.44-3.12.293-.906.706-1.66 1.24-2.26a5.025 5.025 0 0 1 1.94-1.38c.76-.306 1.6-.46 2.52-.46.92 0 1.76.154 2.52.46.76.307 1.406.767 1.94 1.38.533.6.946 1.354 1.24 2.26.293.894.44 1.934.44 3.12 0 1.187-.147 2.234-.44 3.14-.294.894-.707 1.647-1.24 2.26a5.123 5.123 0 0 1-1.94 1.36c-.76.307-1.6.46-2.52.46Zm0-2.7c.92 0 1.633-.3 2.14-.9.52-.6.78-1.46.78-2.58v-2.08c0-1.12-.26-1.98-.78-2.58-.507-.6-1.22-.9-2.14-.9-.92 0-1.64.3-2.16.9-.507.6-.76 1.46-.76 2.58v2.08c0 1.12.253 1.98.76 2.58.52.6 1.24.9 2.16.9ZM35.648 58.69v20.268h-5.472V58.69h-6.804v-4.86h19.08v4.86h-6.804Zm21.551 0v20.268h-5.472V58.69h-6.804v-4.86h19.08v4.86H57.2Zm10.548 20.268V53.83h11.88c1.176 0 2.232.204 3.168.612a6.64 6.64 0 0 1 2.376 1.62c.672.696 1.188 1.548 1.548 2.556.36.984.54 2.064.54 3.24 0 1.2-.18 2.292-.54 3.276-.36.984-.876 1.824-1.548 2.52a7.046 7.046 0 0 1-2.376 1.656c-.936.384-1.992.576-3.168.576h-6.408v9.072h-5.472Zm5.472-13.824h5.76c.816 0 1.452-.204 1.908-.612.48-.432.72-1.056.72-1.872v-1.584c0-.816-.24-1.428-.72-1.836-.456-.432-1.092-.648-1.908-.648h-5.76v6.552Z"
        fill="#00ff66" />
</svg>