<svg xmlns="http://www.w3.org/2000/svg" fill="none" viewBox="0 0 116 124"><path fill="#1B1B1B" d="M115.217 58.344c3.023 32.594-19.77 61.568-50.937 64.735-31.166 3.167-58.887-20.684-61.91-53.262C-.653 37.24 22.14 8.25 53.307 5.082c31.167-3.167 58.887 20.684 61.91 53.262Z"/><path fill="#8FFF71" d="M113.116 53.544c3.023 32.594-19.77 61.568-50.937 64.735C31.013 121.447 3.292 97.595.27 65.017-2.754 32.44 20.054 3.45 51.206.282c31.167-3.167 58.887 20.684 61.91 53.262Z"/><path fill="#3F3F3F" d="M99.376 54.32c2.252 24.206-15.175 45.796-38.92 48.203-23.746 2.408-44.816-15.254-47.068-39.478-2.252-24.207 15.175-45.796 38.92-48.204 23.746-2.407 44.816 15.255 47.068 39.478Z"/><path fill="#CACACA" d="M60.442 102.346c-23.323 2.375-44.105-15.142-47.007-39.284.03.42.045.856.09 1.277 2.313 24.82 23.413 42.984 47.159 40.576 23.73-2.408 41.112-24.482 38.8-49.303-.046-.436-.107-.856-.152-1.276 1.602 24.288-15.568 45.65-38.89 48.026"/><path fill="#1B1B1B" d="M52.325 15.036C75.647 12.661 96.428 30.178 99.33 54.32c-.03-.42-.045-.857-.09-1.277-2.313-24.82-23.413-42.984-47.158-40.576-23.73 2.407-41.113 24.481-38.8 49.303.045.436.106.856.151 1.276-1.602-24.288 15.568-45.65 38.89-48.026"/><path fill="#1B1B1B" d="M79.984 69.202c-.59-6.302-3.854-10.115-8.237-11.344 2.856-2.327 4.55-6.205 4.096-11.198-.575-6.206-4.293-10.278-10.686-11.102l-.71-7.66-6.757.695.665 7.127-3.84.387-.664-7.11-6.771.695.664 7.127-6.166.63-4.293.436.65 7.078 4.292-.436 3.205 34.403-4.746.485.665 7.078 4.746-.485 6.167-.63.77 8.274 6.757-.695-.771-8.274 3.84-.388.77 8.274 6.756-.695-.8-8.548c7.526-1.89 11.063-6.9 10.398-14.091M50.798 43.637l9.16-.937c5.078-.517 8.176 1.405 8.584 5.914.409 4.444-2.267 6.948-7.345 7.466l-10.4 1.05-1.239-13.38 1.24-.13v.017Zm13.83 33.32-11.08 1.132-.785.08-1.3-14.01 11.865-1.212c5.532-.565 8.736 1.277 9.174 6.141.454 4.848-2.342 7.304-7.874 7.87Z"/><path fill="#8FFF71" d="M76.765 68.104c-.59-6.303-3.854-10.116-8.237-11.344 2.856-2.327 4.549-6.205 4.096-11.199-.575-6.205-4.293-10.277-10.686-11.102l-.71-7.66-6.757.696.665 7.126-3.84.388-.664-7.126-6.772.695.665 7.126-6.167.63-4.292.436.65 7.078 4.292-.436 3.205 34.404-4.746.484.665 7.078 4.746-.484 6.166-.63.771 8.273 6.757-.695-.771-8.274 3.839-.387.77 8.273 6.757-.694-.801-8.549c7.527-1.89 11.064-6.9 10.399-14.091M47.578 42.523l9.16-.937c5.078-.517 8.177 1.406 8.585 5.914.408 4.444-2.267 6.949-7.346 7.466l-10.399 1.05-1.24-13.38 1.24-.129v.016Zm13.83 33.321L50.33 76.975l-.786.081-1.3-14.01 11.866-1.212c5.532-.566 8.72 1.276 9.174 6.14.454 4.849-2.343 7.305-7.875 7.87Z"/></svg>