<svg fill="none" xmlns="http://www.w3.org/2000/svg" viewBox="0 0 116 124">
    <path
        d="M115.217 58.344c3.023 32.594-19.77 61.568-50.937 64.735-31.166 3.167-58.887-20.684-61.91-53.262C-.653 37.24 22.14 8.25 53.307 5.082c31.167-3.167 58.887 20.684 61.91 53.262Z"
        fill="#1B1B1B" />
    <path
        d="M113.116 53.544c3.023 32.594-19.77 61.568-50.937 64.735C31.013 121.447 3.292 97.595.27 65.017-2.754 32.44 20.054 3.45 51.206.282c31.167-3.167 58.887 20.684 61.91 53.262Z"
        fill="#00ff66" />
    <path
        d="M99.376 54.32c2.252 24.206-15.175 45.796-38.92 48.203-23.746 2.408-44.816-15.254-47.068-39.478-2.252-24.207 15.175-45.796 38.92-48.204 23.746-2.407 44.816 15.255 47.068 39.478Z"
        fill="#3F3F3F" />
    <path
        d="M60.442 102.346c-23.323 2.375-44.105-15.142-47.007-39.284.03.42.045.856.09 1.277 2.313 24.82 23.413 42.984 47.159 40.576 23.73-2.408 41.112-24.482 38.8-49.303-.046-.436-.107-.856-.152-1.276 1.602 24.288-15.568 45.65-38.89 48.026"
        fill="#CACACA" />
    <path
        d="M52.325 15.036C75.647 12.661 96.428 30.178 99.33 54.32c-.03-.42-.045-.857-.09-1.277-2.313-24.82-23.413-42.984-47.158-40.576-23.73 2.407-41.113 24.481-38.8 49.303.045.436.106.856.151 1.276-1.602-24.288 15.568-45.65 38.89-48.026"
        fill="#1B1B1B" />
    <path
        d="M75.575 77.035c1.583-5.983-.194-10.58-3.9-13.18 3.476-1.176 6.383-4.166 7.65-8.902 1.565-5.888-.551-10.875-6.284-13.78l1.93-7.269-6.59-1.633-1.792 6.764-3.742-.934 1.786-6.749-6.604-1.638-1.791 6.764-6.014-1.494-4.185-1.042-1.789 6.715 4.185 1.042-8.654 32.653-4.628-1.15-1.775 6.72 4.628 1.15 6.013 1.493-2.08 7.853 6.589 1.633 2.08-7.853 3.743.934-2.081 7.853 6.59 1.633 2.145-8.115c7.72.794 12.746-2.615 14.56-9.439m-18.769-33.3 8.932 2.217c4.952 1.232 7.214 4.038 6.069 8.313-1.124 4.216-4.49 5.616-9.44 4.384l-10.137-2.53 3.372-12.698 1.21.298-.006.015Zm1.706 35.23L47.7 76.307l-.767-.19 3.53-13.296 11.57 2.876c5.394 1.34 7.782 4.107 6.545 8.719-1.218 4.601-4.68 5.916-10.075 4.576Z"
        fill="#1B1B1B" />
    <path
        d="M72.92 74.945c1.583-5.982-.194-10.58-3.9-13.18 3.476-1.176 6.384-4.166 7.65-8.901 1.565-5.889-.55-10.876-6.284-13.781l1.93-7.269-6.59-1.633-1.792 6.765-3.742-.935 1.792-6.764-6.604-1.638-1.792 6.764-6.013-1.494-4.185-1.042-1.79 6.715 4.186 1.042-8.655 32.653-4.628-1.15-1.774 6.72 4.627 1.15 6.014 1.493-2.081 7.853 6.59 1.633 2.08-7.853 3.743.934-2.081 7.853 6.59 1.633 2.145-8.115c7.72.794 12.745-2.615 14.559-9.438M54.147 41.658l8.932 2.218c4.952 1.232 7.214 4.039 6.068 8.314-1.123 4.216-4.489 5.615-9.44 4.383l-10.136-2.53 3.372-12.697 1.21.298-.006.014Zm1.706 35.23L45.05 74.203l-.767-.19 3.53-13.295 11.569 2.875c5.395 1.34 7.769 4.102 6.546 8.719-1.218 4.602-4.68 5.916-10.075 4.576Z"
        fill="#00ff66" />
</svg>