<svg fill="none" xmlns="http://www.w3.org/2000/svg" viewBox="0 0 116 124"><path d="M115.217 58.344c3.023 32.594-19.77 61.568-50.937 64.735-31.166 3.167-58.887-20.684-61.91-53.262C-.653 37.24 22.14 8.25 53.307 5.082c31.167-3.167 58.887 20.684 61.91 53.262Z" fill="#1B1B1B"/><path d="M113.116 53.544c3.023 32.594-19.77 61.568-50.937 64.735C31.013 121.447 3.292 97.595.27 65.017-2.754 32.44 20.054 3.45 51.206.282c31.167-3.167 58.887 20.684 61.91 53.262Z" fill="#0F6"/><path d="M99.376 54.32c2.252 24.206-15.175 45.796-38.92 48.203-23.746 2.408-44.816-15.254-47.068-39.478-2.252-24.207 15.175-45.796 38.92-48.204 23.746-2.407 44.816 15.255 47.068 39.478Z" fill="#3F3F3F"/><path d="M60.442 102.346c-23.323 2.375-44.105-15.142-47.007-39.284.03.42.045.856.09 1.277 2.313 24.82 23.413 42.984 47.159 40.576 23.73-2.408 41.112-24.482 38.8-49.303-.046-.436-.107-.856-.152-1.276 1.602 24.288-15.568 45.65-38.89 48.026" fill="#CACACA"/><path d="M52.325 15.036C75.647 12.661 96.428 30.178 99.33 54.32c-.03-.42-.045-.857-.09-1.277-2.313-24.82-23.413-42.984-47.158-40.576-23.73 2.407-41.113 24.481-38.8 49.303.045.436.106.856.151 1.276-1.602-24.288 15.568-45.65 38.89-48.026" fill="#1B1B1B"/><path d="M81.872 52.935c1.04-7.04-4.255-10.824-11.495-13.35l2.349-9.536-5.734-1.447-2.287 9.286a237.49 237.49 0 0 0-4.594-1.095l2.303-9.346L56.683 26l-2.35 9.533a189.665 189.665 0 0 1-3.662-.87l.006-.03-7.908-2-1.525 6.2s4.254.988 4.164 1.049c2.323.587 2.742 2.143 2.672 3.376l-2.675 10.864c.16.042.367.101.596.194-.19-.048-.395-.101-.606-.152l-3.75 15.22c-.284.713-1.004 1.785-2.628 1.378.058.084-4.168-1.053-4.168-1.053l-2.846 6.645 7.462 1.883c1.388.352 2.749.72 4.088 1.068l-2.373 9.646 5.728 1.447 2.35-9.544c1.564.43 3.083.827 4.57 1.2l-2.342 9.5L57.22 93l2.373-9.628c9.778 1.874 17.131 1.118 20.226-7.835 2.494-7.209-.124-11.367-5.269-14.079 3.747-.874 6.57-3.37 7.322-8.523Zm-13.102 18.6c-1.772 7.208-13.761 3.31-17.649 2.334l3.15-12.78c3.886.983 16.351 2.927 14.5 10.445Zm1.774-18.704c-1.617 6.557-11.596 3.226-14.833 2.409l2.855-11.59c3.237.817 13.662 2.341 11.978 9.181Z" fill="#000"/><path d="M78.872 51.935c1.04-7.04-4.255-10.824-11.495-13.35l2.349-9.536-5.734-1.447-2.287 9.286a237.49 237.49 0 0 0-4.594-1.095l2.303-9.346L53.683 25l-2.35 9.533a189.665 189.665 0 0 1-3.662-.87l.006-.03-7.908-2-1.525 6.2s4.254.988 4.164 1.049c2.323.587 2.742 2.143 2.672 3.376l-2.675 10.864c.16.042.367.101.596.194-.19-.048-.395-.101-.606-.152l-3.75 15.22c-.284.713-1.004 1.785-2.628 1.378.058.084-4.168-1.053-4.168-1.053l-2.846 6.645 7.462 1.883c1.388.352 2.749.72 4.088 1.068l-2.373 9.646 5.728 1.447 2.35-9.544c1.564.43 3.083.827 4.57 1.2l-2.342 9.5L54.22 92l2.373-9.628c9.778 1.874 17.131 1.118 20.226-7.835 2.494-7.209-.124-11.367-5.269-14.079 3.747-.874 6.57-3.37 7.322-8.523Zm-13.102 18.6c-1.772 7.208-13.761 3.31-17.649 2.334l3.15-12.78c3.886.983 16.351 2.927 14.5 10.445Zm1.774-18.704c-1.617 6.557-11.596 3.226-14.833 2.409l2.855-11.59c3.237.817 13.662 2.341 11.978 9.181Z" fill="#0F6"/></svg>